<?xml version="1.0" encoding="utf-8"?>
<!-- Generator: Adobe Illustrator 16.0.0, SVG Export Plug-In . SVG Version: 6.00 Build 0)  -->
<!DOCTYPE svg PUBLIC "-//W3C//DTD SVG 1.1//EN" "http://www.w3.org/Graphics/SVG/1.1/DTD/svg11.dtd">
<svg version="1.1" id="Layer_1" xmlns="http://www.w3.org/2000/svg" xmlns:xlink="http://www.w3.org/1999/xlink" x="0px" y="0px"
	 width="85.152px" height="70px" viewBox="0 -20.956 85.152 70" enable-background="new 0 -20.956 85.152 70" xml:space="preserve">
<g>
	<path fill="#011C38" d="M85.14,1.62c0,0.39,0,0.78,0,1.17c-0.156,0.126-0.344,0.087-0.52,0.088
		c-1.256,0.003-2.514,0.001-3.771,0.002c-0.208,0-0.428-0.028-0.565,0.184c-0.071,0.14-0.058,0.292-0.058,0.44
		c-0.002,4.291-0.002,8.582,0,12.873c0,0.136-0.003,0.271,0.028,0.401c0.021,0.117,0.024,0.234-0.021,0.347
		c-0.334,0.333-1.129,0.399-1.619,0.138c-0.078-0.203-0.045-0.416-0.045-0.625C78.569,12.289,78.57,7.94,78.57,3.591
		c0-0.711-0.001-0.711-0.729-0.711c-1.185,0-2.368,0.002-3.554-0.001c-0.536-0.001-0.57-0.038-0.576-0.551
		c-0.011-0.775,0.056-0.842,0.84-0.842c3.301-0.001,6.6,0,9.897,0C84.688,1.486,84.933,1.458,85.14,1.62z"/>
	<path fill="#526478" d="M80.188,17.099c-0.003-0.086-0.006-0.173-0.008-0.26c-0.056-0.113-0.033-0.234-0.033-0.354
		c-0.001-4.389-0.001-8.779,0-13.169c0-0.118-0.021-0.24,0.033-0.354c0.152-0.183,0.361-0.175,0.572-0.174
		c1.462,0.002,2.924,0.002,4.387,0.003c0,0.06,0,0.12,0,0.18c-1.438-0.002-2.878,0.002-4.315-0.012
		c-0.344-0.003-0.471,0.098-0.469,0.464c0.019,4.512,0.017,9.024,0.029,13.536c0.001,0.431-0.167,0.604-0.587,0.585
		c-0.299-0.016-0.6-0.006-0.898-0.006c-0.297-0.001-0.44-0.152-0.438-0.445c0.001-0.27,0.011-0.539,0.011-0.809
		c0.003-4.288-0.001-8.575,0.013-12.862c0.001-0.365-0.119-0.468-0.465-0.464c-1.244,0.015-2.488,0.005-3.731,0.008
		c-0.648,0.001-0.678-0.023-0.681-0.691c0-0.075-0.001-0.15-0.001-0.225c0-0.614,0.064-0.678,0.66-0.677
		c3.418,0.001,6.836,0.001,10.254,0c0.21,0,0.42-0.008,0.621,0.067c0,0.06,0,0.12,0,0.18c-3.598,0.002-7.193,0.003-10.79,0.01
		c-0.183,0-0.438-0.097-0.514,0.149c-0.091,0.299-0.089,0.628,0.013,0.927c0.049,0.142,0.239,0.077,0.37,0.077
		c1.287,0,2.576-0.002,3.865-0.001c0.553,0,0.585,0.035,0.584,0.59c-0.006,4.541-0.013,9.082-0.02,13.624
		c0,0.089,0.013,0.179,0.02,0.269c0.415,0.139,0.842,0.038,1.262,0.055C80.062,17.322,80.125,17.198,80.188,17.099z"/>
	<path fill="#C6CBD2" d="M0.09,1.26c0.705,0.001,1.411,0.024,2.114-0.006C2.606,1.237,2.74,1.433,2.777,1.771
		c0.014,0.119,0.008,0.24,0.008,0.36c0,4.259-0.006,8.519,0.01,12.778c0.001,0.289-0.217,0.645,0.015,0.852
		c0.23,0.207,0.604,0.074,0.915,0.076c1.68,0.008,3.358,0.002,5.039,0.005c0.522,0.001,0.607,0.083,0.607,0.599
		c0.001,1.279,0.113,1.201-1.178,1.199c-2.279-0.005-4.56,0-6.839-0.002c-0.548,0-0.771-0.242-0.681-0.779
		c0.035-0.211,0.04-0.418,0.04-0.625C0.715,12.288,0.718,8.343,0.71,4.399C0.709,3.817,0.664,3.234,0.618,2.653
		C0.593,2.34,0.397,2.146,0.09,2.07c0-0.09,0-0.18,0-0.27c0.359-0.002,0.647,0.223,0.724,0.626C0.919,2.999,1.042,3.568,1.04,4.159
		c-0.013,4.17,0.001,8.34-0.011,12.51c-0.002,0.62,0.034,0.662,0.664,0.663c2.266,0.003,4.53,0.003,6.795,0
		c0.576-0.001,0.851-0.488,0.568-1.004c-0.117-0.216-0.33-0.179-0.521-0.179c-1.681-0.006-3.36-0.002-5.04-0.004
		c-0.982,0-1.015-0.03-1.015-1.008c0-4.216,0-8.431,0-12.646c0-0.165,0-0.33-0.003-0.495C2.475,1.707,2.35,1.562,2.039,1.57
		C1.56,1.582,1.079,1.578,0.599,1.567C0.419,1.563,0.236,1.577,0.09,1.44C0.09,1.38,0.09,1.32,0.09,1.26z"/>
	<path fill="#394D64" d="M0.09,1.44C0.765,1.444,1.44,1.464,2.112,1.447c0.406-0.01,0.519,0.178,0.517,0.547
		c-0.011,2.204-0.01,4.408-0.012,6.612c-0.002,2.309,0.003,4.618-0.014,6.927c-0.002,0.385,0.144,0.487,0.504,0.483
		c1.829-0.015,3.658-0.007,5.486-0.011c0.333-0.001,0.651-0.003,0.647,0.468c-0.008,0.979-0.015,0.995-0.647,0.995
		c-2.384,0.003-4.768-0.004-7.151,0.009c-0.416,0.002-0.547-0.175-0.546-0.57C0.91,12.679,0.903,8.451,0.921,4.223
		C0.923,3.63,0.788,3.064,0.704,2.488C0.656,2.155,0.438,1.901,0.09,1.8C0.09,1.68,0.09,1.56,0.09,1.44z"/>
	<g>
		<path fill="#001B38" d="M19.978,2.505c0.389,0.169,0.811,0.269,1.239,0.293c0.628,0.038,1.218,0.305,2.021,0.753
			c0.062,0.035,0.125,0.066,0.211,0.107c0.366,0.235,0.724,0.55,1.142,1.005c0.095,0.135,0.194,0.266,0.295,0.397
			c0.094,0.123,0.188,0.245,0.25,0.335l0.028,0.06L25.2,5.513c0.381,0.634,0.655,1.12,0.698,1.604
			c0.031,0.344,0.135,0.676,0.31,0.991c0.091,0.544,0.123,1.124,0.096,1.725c-0.039,0.857-0.166,1.575-0.386,2.192
			c-0.258,0.722-0.636,1.366-1.124,1.916c-0.13,0.147-0.266,0.288-0.401,0.428c-0.162,0.168-0.324,0.336-0.479,0.511
			c-0.69,0.585-1.384,0.965-2.116,1.16c-0.738,0.197-1.432,0.293-2.12,0.293c-0.531,0-1.063-0.061-1.579-0.18
			c-1.479-0.344-2.657-1.129-3.604-2.401c-0.375-0.506-0.658-1.006-0.86-1.521c-0.038-0.371-0.146-0.674-0.231-0.91
			c-0.029-0.081-0.068-0.192-0.074-0.221c-0.136-1.409-0.124-2.557,0.04-3.602c0.008-0.019,0.017-0.038,0.025-0.057
			c0.068-0.16,0.174-0.402,0.223-0.692c0.078-0.127,0.167-0.297,0.229-0.509c0.094-0.139,0.24-0.357,0.342-0.655
			c0.261-0.362,0.492-0.669,0.748-0.94c0.372-0.396,0.814-0.772,1.356-1.152l0.067-0.043l0.08-0.075
			c0.032-0.022,0.136-0.073,0.212-0.109c0.062-0.03,0.13-0.063,0.203-0.1c0.337-0.073,0.605-0.202,0.803-0.296
			c0.025-0.012,0.05-0.025,0.072-0.036l0.032-0.003c0.453-0.046,0.997-0.101,1.561-0.325L19.978,2.505 M20.336,1.005
			c-0.445,0-0.894,0-1.34,0c-0.479,0.262-1.012,0.293-1.54,0.349c-0.044,0.003-0.087,0.011-0.129,0.025
			c-0.321,0.112-0.604,0.331-0.961,0.342c-0.305,0.194-0.663,0.29-0.933,0.544c-0.572,0.401-1.11,0.843-1.591,1.353
			c-0.365,0.39-0.68,0.822-0.989,1.256c-0.023,0.035-0.043,0.071-0.059,0.111c-0.03,0.254-0.225,0.424-0.328,0.639
			c-0.019,0.036-0.034,0.075-0.045,0.115c-0.019,0.205-0.187,0.335-0.259,0.512c-0.01,0.046-0.016,0.094-0.018,0.14
			c-0.004,0.292-0.201,0.527-0.247,0.806c-0.219,1.346-0.193,2.694-0.062,4.048c0.044,0.452,0.325,0.836,0.313,1.294
			c0.269,0.763,0.662,1.46,1.142,2.106c1.132,1.523,2.597,2.535,4.469,2.969c0.645,0.148,1.283,0.219,1.919,0.219
			c0.841,0,1.675-0.122,2.506-0.344c1.048-0.279,1.968-0.829,2.787-1.541c0.302-0.35,0.639-0.666,0.945-1.014
			c0.631-0.711,1.098-1.522,1.412-2.405c0.3-0.841,0.431-1.733,0.472-2.628c0.036-0.789-0.013-1.576-0.172-2.352
			c-0.127-0.17-0.219-0.355-0.237-0.569c-0.074-0.839-0.485-1.542-0.906-2.242c-0.02-0.038-0.04-0.075-0.062-0.112
			c-0.198-0.311-0.445-0.589-0.65-0.896c-0.478-0.528-0.989-1.015-1.6-1.39c-0.066-0.033-0.136-0.062-0.2-0.099
			c-0.834-0.464-1.679-0.882-2.664-0.941C20.98,1.282,20.635,1.187,20.336,1.005L20.336,1.005z"/>
	</g>
	<path fill="#C4CAD1" d="M56.34,17.46c-0.127,0.193-0.322,0.18-0.521,0.18c-2.519-0.002-5.035-0.002-7.555-0.002
		c-0.607,0-0.668-0.061-0.667-0.672c0-4.107-0.005-8.215,0.007-12.322c0.002-0.793-0.072-1.568-0.277-2.335
		c-0.048-0.177-0.188-0.217-0.291-0.315C46.883,1.852,46.8,1.66,46.853,1.471c0.058-0.202,0.261-0.211,0.45-0.211
		c2.787,0.003,5.575,0,8.363,0.006c0.438,0.001,0.706,0.341,0.639,0.774c-0.16,1.019-0.16,1.019-1.221,1.019
		c-1.647,0-3.298,0.008-4.945-0.006c-0.39-0.003-0.499,0.053-0.49,0.514c0.031,1.555,0.098,3.114-0.031,4.669
		c-0.028,0.344,0.203,0.306,0.411,0.307c0.959,0.001,1.92-0.001,2.879-0.001c0.854,0,1.709-0.002,2.562,0
		c0.189,0.001,0.399-0.037,0.515,0.183c0.061,0.421,0.072,0.843-0.006,1.264c-0.062,0.059-0.122,0.119-0.185,0.178
		c-0.152,0.09-0.32,0.044-0.481,0.045c-1.72,0.003-3.438,0.001-5.154,0.002c-0.511,0-0.526,0.026-0.525,0.522
		c0.005,1.524,0.003,3.048,0.001,4.572c0,0.09,0.016,0.183-0.044,0.26c-0.105,0.4,0.219,0.266,0.368,0.268
		c1.351,0.014,2.699,0.007,4.049,0.007c0.585,0,1.171,0.009,1.756-0.004c0.222-0.005,0.412,0.036,0.579,0.183
		C56.41,16.499,56.412,16.979,56.34,17.46z"/>
	<path fill="#BEC4CC" d="M65.889,17.39c-0.035,0.053-0.07,0.106-0.104,0.16c-0.543,0.078-1.086,0.062-1.631,0.008
		c-0.111-0.052-0.174-0.136-0.171-0.263c-0.063-0.128-0.035-0.267-0.035-0.397c-0.002-4.305-0.002-8.606,0-12.912
		c0-0.133-0.029-0.271,0.036-0.398c0.074-0.436-0.108-0.553-0.541-0.542c-1.272,0.029-2.548,0.001-3.82,0.016
		c-0.419,0.004-0.594-0.146-0.595-0.577c-0.005-1.219-0.017-1.218,1.206-1.218c3.312,0,6.624,0,9.938,0
		c0.635,0,0.754,0.125,0.754,0.768c-0.001,1.023-0.001,1.023-1.037,1.022c-1.199,0-2.397-0.001-3.599,0.001
		c-0.183,0-0.421-0.067-0.401,0.256c0.059,0.113,0.035,0.235,0.035,0.353c0.001,4.456,0.001,8.913,0,13.369
		C65.923,17.153,65.945,17.274,65.889,17.39z"/>
	<path fill="#546679" d="M31.49,4.702c-0.324-0.666-0.652-1.331-0.97-2c-0.138-0.288-0.308-0.532-0.583-0.71
		c-0.168-0.107-0.396-0.244-0.315-0.488c0.08-0.249,0.328-0.143,0.511-0.144c0.45-0.002,0.899,0.011,1.35,0.011
		c0.588,0,0.791,0.15,0.985,0.693c0.367,1.02,0.794,2.015,1.212,3.015c0.39,0.931,0.712,1.889,1.087,2.826
		c0.356,0.896,0.754,1.775,1.115,2.669c0.378,0.935,0.735,1.878,1.102,2.818c0.043,0.111,0.075,0.228,0.123,0.337
		c0.053,0.121,0.095,0.288,0.256,0.269c0.179-0.021,0.123-0.203,0.161-0.325c0.124-0.396,0.259-0.789,0.402-1.177
		c0.396-1.057,0.799-2.112,1.199-3.167c0.248-0.651,0.501-1.3,0.747-1.952c0.382-1.015,0.76-2.031,1.14-3.047
		c0.321-0.862,0.639-1.726,0.967-2.585c0.073-0.194,0.25-0.329,0.443-0.346c0.401-0.034,0.812-0.06,1.21-0.014
		c0.316,0.037,0.355,0.313,0.213,0.552c-0.37,0.614-0.551,1.307-0.835,1.956c-0.312,0.719-0.587,1.455-0.873,2.185
		c-0.146,0.374-0.285,0.75-0.429,1.126c-0.051,0.134-0.031,0.308-0.207,0.374C41.437,7.536,41.41,7.47,41.4,7.396
		c-0.006-0.199,0.043-0.39,0.122-0.567c0.686-1.545,1.191-3.162,1.88-4.705c0.135-0.301,0.099-0.409-0.237-0.387
		C42.969,1.75,42.773,1.73,42.58,1.76c-0.188,0.029-0.339,0.106-0.404,0.306c-0.486,1.491-1.087,2.94-1.617,4.415
		c-0.332,0.922-0.705,1.835-1.051,2.755c-0.388,1.034-0.812,2.055-1.173,3.099c-0.201,0.578-0.488,1.122-0.648,1.718
		c-0.071,0.271-0.311,0.308-0.549,0.191c-0.199-0.098-0.304-0.282-0.374-0.486c-0.641-1.836-1.417-3.618-2.138-5.422
		c-0.587-1.47-1.164-2.944-1.753-4.413c-0.232-0.581-0.476-1.157-0.694-1.743c-0.096-0.252-0.276-0.429-0.571-0.436
		c-0.462-0.01-0.924-0.011-1.487,0.005c0.86,0.724,1.017,1.74,1.457,2.607C31.603,4.486,31.604,4.608,31.49,4.702z"/>
	<path fill="#384D63" d="M25.02,27.342c-0.107,0.013-0.178-0.024-0.168-0.145c0.008-0.119,0.081-0.212,0.194-0.207
		c0.372,0.011,0.402-0.233,0.402-0.507c0.001-1.227,0.103-0.979-0.946-0.996c-0.165-0.002-0.332-0.016-0.494,0.005
		c-0.24,0.028-0.592-0.154-0.699,0.126c-0.147,0.387-0.108,0.824,0.02,1.23c0.049,0.154,0.215,0.135,0.342,0.172
		c0.093,0.025,0.149,0.1,0.143,0.203c-0.01,0.125-0.112,0.125-0.2,0.127c-0.375,0.006-0.749,0.01-1.123,0.006
		c-0.082,0-0.191,0.021-0.234-0.082c-0.05-0.121,0.021-0.209,0.12-0.256c0.28-0.131,0.31-0.371,0.307-0.641
		c-0.008-0.773-0.007-1.549-0.002-2.322c0.001-0.22,0.004-0.425-0.267-0.498c-0.105-0.029-0.195-0.098-0.146-0.229
		c0.039-0.106,0.129-0.185,0.239-0.169c0.329,0.043,0.656,0.016,0.983-0.001c0.128-0.007,0.247,0.032,0.277,0.176
		c0.033,0.162-0.081,0.212-0.21,0.224c-0.29,0.021-0.312,0.217-0.312,0.445c0.007,1.297-0.084,1.064,1.023,1.077
		c0.239,0.003,0.48-0.019,0.719,0.008c0.368,0.039,0.486-0.129,0.465-0.469c-0.015-0.224-0.008-0.449-0.001-0.675
		c0.005-0.223-0.046-0.385-0.318-0.373c-0.146,0.006-0.286-0.038-0.27-0.219c0.021-0.196,0.183-0.224,0.34-0.205
		c0.299,0.033,0.595,0.043,0.896,0.004c0.145-0.019,0.279,0.025,0.313,0.188c0.04,0.186-0.106,0.232-0.242,0.252
		c-0.244,0.037-0.26,0.203-0.26,0.396c0.001,0.838-0.002,1.676-0.006,2.515c-0.001,0.213,0.058,0.362,0.288,0.444
		c0.18,0.062,0.407,0.188,0.086,0.394c-0.534-0.198-0.653-0.604-0.64-1.138c0.02-0.715,0.013-1.432,0.01-2.146
		c0-0.212-0.008-0.423,0.255-0.607c-0.246-0.012-0.412-0.03-0.571-0.073c0.229,0.051,0.317,0.209,0.312,0.425
		c-0.014,0.446,0.016,0.893-0.04,1.342c-0.043,0.36,0.021,0.739,0.056,1.106C25.708,26.788,25.589,27.185,25.02,27.342z"/>
	<path fill="#506276" d="M41.484,7.369c0.005,0.071,0.011,0.142,0.016,0.213c-0.263,0.898-0.618,1.761-0.979,2.624
		c-0.27,0.643-0.486,1.306-0.736,1.956c-0.239,0.623-0.489,1.24-0.736,1.859c-0.279,0.703-0.564,1.402-0.842,2.105
		c-0.143,0.359-0.258,0.729-0.41,1.084c-0.103,0.236-0.248,0.443-0.559,0.45c-0.297,0.006-0.435-0.195-0.532-0.411
		c-0.276-0.607-0.531-1.225-0.792-1.84c-0.276-0.655-0.553-1.311-0.827-1.967c-0.257-0.616-0.515-1.231-0.771-1.848
		c-0.277-0.669-0.559-1.337-0.833-2.007c-0.36-0.877-0.713-1.757-1.079-2.633c-0.262-0.628-0.531-1.254-0.815-1.873
		c-0.059-0.126-0.11-0.24-0.099-0.379c0.004-0.124,0.007-0.249,0.011-0.373c0.339,0.181,0.328,0.564,0.467,0.852
		c0.325,0.671,0.602,1.367,0.889,2.055c0.464,1.115,0.943,2.225,1.396,3.346c0.562,1.399,1.117,2.801,1.744,4.173
		c0.285,0.625,0.526,1.271,0.791,1.905c0.1,0.237,0.119,0.606,0.439,0.608c0.332,0.002,0.335-0.363,0.428-0.607
		c0.251-0.656,0.543-1.296,0.787-1.955c0.46-1.248,0.97-2.478,1.452-3.717c0.374-0.959,0.72-1.931,1.146-2.87
		c0.062-0.138,0.094-0.284,0.144-0.425C41.232,7.543,41.259,7.36,41.484,7.369z"/>
	<path fill="#A6B0BA" d="M12.24,12.6c0.513,1.149,1.13,2.236,2.071,3.09c1.993,1.808,4.34,2.322,6.958,1.895
		c1.379-0.225,2.562-0.828,3.654-1.657c0.06-0.05,0.118-0.053,0.177,0c-0.972,0.89-2.084,1.438-3.38,1.772
		c-1.082,0.277-2.145,0.251-3.196,0.17c-0.863-0.066-1.716-0.359-2.525-0.779c-1.146-0.595-2.062-1.416-2.809-2.433
		c-0.497-0.677-0.895-1.413-1.167-2.229c-0.295-0.882-0.485-1.771-0.542-2.691c-0.036-0.596-0.012-1.193,0.125-1.777
		c0.146-0.618,0.229-1.267,0.483-1.838c0.316-0.706,0.551-1.491,1.229-1.982c-0.073,0.312-0.263,0.56-0.456,0.805l0,0
		c-0.055,0.273-0.259,0.471-0.362,0.718l0,0c-0.06,0.196-0.155,0.373-0.263,0.546l0,0c-0.457,1.283-0.503,2.612-0.453,3.954
		c0.022,0.642,0.062,1.277,0.336,1.873C12.206,12.216,12.158,12.421,12.24,12.6z"/>
	<path fill="#8D99A6" d="M25.102,15.928c-0.06,0-0.117,0-0.177,0c0.565-0.575,1.076-1.194,1.543-1.854
		c0.35-0.493,0.58-1.044,0.771-1.595c0.531-1.543,0.543-3.144,0.365-4.751c-0.006-0.057-0.041-0.112-0.062-0.167
		c-0.265-0.472-0.227-1.027-0.442-1.528c-0.208-0.477-0.443-0.925-0.72-1.359l0.001,0.001c-0.165-0.332-0.409-0.605-0.645-0.887
		c-0.479-0.49-0.986-0.943-1.538-1.349c-0.662-0.458-1.402-0.742-2.161-0.988c-0.23-0.075-0.471-0.07-0.706-0.104
		c-0.198-0.028-0.354-0.091-0.28-0.341c0.583-0.184,1.042,0.221,1.526,0.387c1.057,0.363,2.01,0.958,2.805,1.766
		c0.959,0.973,1.691,2.065,2.108,3.402c0.521,1.668,0.531,3.341,0.203,5.006c-0.312,1.587-1.115,2.956-2.314,4.071
		C25.281,15.726,25.194,15.83,25.102,15.928z"/>
	<path fill="#C7CDD3" d="M51.678,27.347c-0.123,0.021-0.262,0.043-0.264-0.139c-0.002-0.15,0.11-0.277,0.243-0.284
		c0.391-0.017,0.358-0.278,0.358-0.539c-0.002-0.764-0.005-1.528,0.001-2.293c0.002-0.239,0.017-0.448-0.33-0.44
		c-0.155,0.005-0.284-0.133-0.274-0.301c0.011-0.188,0.149-0.305,0.332-0.306c0.884-0.006,1.77-0.007,2.651,0.008
		c0.277,0.005,0.416,0.201,0.47,0.462c0.049,0.237,0.234,0.467-0.016,0.707c-0.239,0.229-0.541,0.188-0.562-0.129
		c-0.025-0.428-0.256-0.445-0.566-0.417c-0.061,0.005-0.12,0.001-0.181,0.001c-0.736,0.001-0.933,0.233-0.779,0.967
		c0.039,0.195,0.184,0.314,0.4,0.248c0.267-0.084,0.537-0.056,0.804-0.043c0.27,0.012,0.467,0.17,0.466,0.447
		c-0.001,0.312-0.27,0.262-0.472,0.268c-0.3,0.006-0.601,0-0.898,0.004c-0.222,0.002-0.351,0.078-0.261,0.332
		c0.023,0.067,0.019,0.147,0.021,0.224c0.01,0.219-0.213,0.519,0.112,0.632c0.381,0.137,0.797,0.081,1.193,0.023
		c0.13-0.021,0.125-0.188,0.141-0.305c0.034-0.274,0.198-0.396,0.465-0.365c0.253,0.031,0.366,0.207,0.341,0.444
		c-0.031,0.281,0.13,0.646-0.286,0.789c-0.128-0.194-0.004-0.375,0.03-0.56c0.021-0.107,0.039-0.217-0.075-0.275
		c-0.126-0.064-0.214,0.023-0.244,0.123c-0.122,0.405-0.407,0.465-0.773,0.411c-0.19-0.028-0.39-0.017-0.582,0.017
		c-0.123,0.021-0.237,0-0.349-0.057c-0.314-0.165-0.456-0.688-0.326-1.223c0.082-0.342,0.339-0.422,0.646-0.43
		c0.304-0.009,0.61,0.021,0.909-0.084c-0.253-0.181-0.533-0.111-0.802-0.121c-0.293-0.012-0.609-0.009-0.717-0.336
		c-0.119-0.371-0.149-0.77,0.062-1.131c0.09-0.15,0.256-0.208,0.427-0.211c0.402-0.006,0.809-0.044,1.209,0.027
		c0.065,0.021,0.123,0.062,0.169,0.113c0.105,0.104,0.044,0.291,0.197,0.402c0.207-0.212,0.05-0.406-0.014-0.599
		c-0.028-0.029-0.058-0.058-0.089-0.08c-0.497-0.179-1.01-0.077-1.514-0.069c-0.296,0.006-0.59,0.1-0.893,0.029
		c-0.071-0.018-0.177-0.02-0.184,0.07c-0.01,0.111,0.13,0.096,0.193,0.149c0.041,0.026,0.072,0.062,0.098,0.104
		c0.131,0.572-0.006,1.166,0.126,1.736c-0.002,0.053-0.011,0.103-0.021,0.149c-0.071,0.229-0.063,0.472-0.041,0.702
		C52.288,26.714,52.144,27.104,51.678,27.347z"/>
	<path fill="#7F8C9B" d="M41.409,27.343c-0.352-0.066-0.194-0.264-0.047-0.339c0.323-0.166,0.311-0.431,0.312-0.721
		c0.01-0.806-0.062-1.61,0.038-2.411c0.025-0.21-0.121-0.209-0.233-0.257c-0.145-0.062-0.293-0.12-0.234-0.314
		c0.052-0.175,0.214-0.165,0.362-0.192c0.732-0.141,1.042,0.395,1.34,0.879c0.128,0.207,0.292,0.408,0.363,0.652
		c0.021,0.041,0.02,0.079-0.005,0.117c-0.225,0.014-0.304-0.174-0.385-0.314c-0.141-0.244-0.321-0.461-0.479-0.691
		c-0.023-0.034-0.045-0.068-0.066-0.104c-0.119-0.229-0.32-0.237-0.565-0.209c0.186,0.191,0.359,0.354,0.605,0.438
		c0.203,0.066,0.271,0.266,0.354,0.438c0.258,0.523,0.6,0.996,0.926,1.477c0.109,0.057,0.177-0.018,0.245-0.08
		c0.041-0.044,0.08-0.089,0.117-0.138c0.146-0.153,0.213-0.427,0.514-0.365c0.021,0.062,0.026,0.124-0.026,0.176
		c-0.168,0.113-0.24,0.286-0.332,0.461c-0.216,0.413-0.492,0.413-0.76,0.035c-0.332-0.473-0.655-0.948-0.889-1.479
		c-0.036-0.08-0.069-0.185-0.184-0.146c-0.106,0.036-0.087,0.148-0.073,0.23c0.105,0.668,0.035,1.343,0.055,2.014
		c0.007,0.229,0.003,0.459,0.317,0.498c0.118,0.015,0.181,0.107,0.16,0.229c-0.027,0.168-0.157,0.146-0.278,0.129
		c-0.355-0.26-0.493-0.61-0.482-1.05c0.012-0.565,0.013-1.133-0.035-1.7c-0.106,0.443-0.123,0.904-0.042,1.338
		C42.12,26.565,41.954,27.021,41.409,27.343z"/>
	<path fill="#586A7D" d="M62.546,25.483c-0.623-0.172-1.142-0.508-1.5-1.045c-0.158-0.236-0.137-0.521,0.025-0.766
		c0.377-0.562,0.905-0.727,1.561-0.508c0.084,0.027,0.174,0.045,0.263,0.054c0.494,0.052,0.684,0.316,0.562,0.79
		c-0.033,0.133-0.114,0.207-0.248,0.223c-0.207,0.021-0.279-0.125-0.361-0.274c-0.207-0.379-0.812-0.521-1.104-0.267
		c-0.358,0.312-0.146,0.865,0.411,1.064c0.452,0.161,0.867,0.391,1.229,0.699c0.288,0.247,0.449,0.604,0.371,0.958
		c-0.088,0.405-0.258,0.823-0.756,0.937c-0.113-0.205,0.057-0.299,0.166-0.406c0.386-0.381,0.363-1.02-0.037-1.37
		c-0.286-0.253-0.632-0.395-0.968-0.554c-0.149-0.07-0.3-0.14-0.417-0.254c-0.233-0.229-0.541-0.434-0.432-0.82
		c0.111-0.394,0.422-0.56,0.771-0.582c-0.123,0.037-0.301,0.014-0.453,0.109c-0.469,0.293-0.523,0.709-0.14,1.111
		c0.195,0.207,0.411,0.382,0.691,0.477c0.153,0.053,0.283,0.164,0.383,0.301C62.579,25.405,62.572,25.446,62.546,25.483z"/>
	<path fill="#354B62" d="M44.543,25.194c-0.146,0.156-0.289,0.312-0.435,0.468c-0.103-0.044-0.184-0.106-0.22-0.218
		c0.165-0.364,0.396-0.694,0.571-1.055c0.197-0.277,0.432-0.537,0.584-0.839c0.223-0.433,0.603-0.379,0.97-0.394
		c0.146-0.008,0.281,0.054,0.296,0.214c0.016,0.162-0.128,0.173-0.25,0.188c-0.201,0.026-0.27,0.15-0.267,0.348
		c0.016,0.885,0.021,1.769,0.033,2.652c0.002,0.166-0.001,0.342,0.193,0.414c0.138,0.049,0.351,0.049,0.298,0.252
		c-0.054,0.211-0.271,0.108-0.421,0.116c-0.257-0.209-0.315-0.495-0.312-0.804c0.016-0.7-0.041-1.4,0.037-2.102
		c0.021-0.179,0.009-0.357-0.062-0.526c-0.053-0.112,0.004-0.233-0.021-0.354c-0.196-0.045-0.229,0.153-0.348,0.227
		c0.106,0.016,0.229-0.034,0.315,0.07c0.123,0.23,0.185,0.463,0.029,0.705c-0.029,0.012-0.065,0.02-0.081-0.002
		c-0.26-0.347-0.41-0.334-0.562,0.094C44.822,24.874,44.666,25.019,44.543,25.194z"/>
	<path fill="#253C54" d="M62.549,25.392c-0.439-0.259-0.938-0.418-1.27-0.86c-0.173-0.233-0.257-0.474-0.129-0.699
		c0.142-0.25,0.318-0.521,0.677-0.521c0.208,0,0.415,0,0.63,0.026c-0.328,0.103-0.688,0.089-0.934,0.405
		c-0.191,0.247-0.195,0.432,0.001,0.672c0.31,0.376,0.736,0.544,1.158,0.729c0.668,0.295,0.863,0.586,0.867,1.258
		c0.001,0.276-0.058,0.498-0.323,0.636c-0.12,0.062-0.214,0.166-0.23,0.313c-0.146-0.002-0.295-0.002-0.441-0.004
		c-0.129-0.209,0.071-0.23,0.174-0.324c0.221-0.2,0.565-0.307,0.542-0.703c-0.017-0.245-0.049-0.454-0.303-0.598
		C62.818,25.638,62.699,25.489,62.549,25.392z"/>
	<path fill="#637385" d="M54.252,23.601c-0.418-0.008-0.836-0.02-1.253-0.021c-0.268,0-0.424,0.126-0.416,0.411
		c0.001,0.06,0,0.119-0.001,0.179c-0.007,0.865-0.007,0.865,0.867,0.856c0.148-0.002,0.299-0.004,0.447,0
		c0.171,0.004,0.359,0.017,0.354,0.24c-0.005,0.2-0.188,0.201-0.338,0.205c-0.284,0.006-0.568,0.01-0.853,0
		c-0.367-0.013-0.521,0.15-0.479,0.521c0.019,0.161-0.019,0.327-0.002,0.489c0.028,0.312,0.187,0.496,0.525,0.473
		c0.208-0.016,0.422-0.053,0.624-0.02c0.358,0.06,0.609,0.021,0.665-0.412c0.02-0.151,0.167-0.266,0.34-0.213
		c0.18,0.055,0.266,0.203,0.229,0.387c-0.044,0.218-0.114,0.431-0.175,0.646c-0.056,0-0.11,0-0.165,0.001
		c-0.127-0.176,0.032-0.347,0.006-0.525c-0.631,0.631-1.354,0.435-2.078,0.231c-0.362-0.471-0.237-0.987-0.116-1.489
		c0.044-0.18,0.227-0.271,0.426-0.27c0.209,0.002,0.419-0.001,0.628,0.001c0.03-0.001,0.021-0.001-0.028-0.001
		c-1.056-0.003-1.414-0.523-1.074-1.557c0.062-0.185,0.166-0.315,0.366-0.354c0.469-0.013,0.938-0.055,1.404,0.026
		C54.229,23.451,54.312,23.489,54.252,23.601z"/>
	<path fill="#354A61" d="M41.409,27.343c-0.008-0.145,0.021-0.266,0.176-0.326c0.354-0.141,0.374-0.447,0.325-0.748
		c-0.09-0.554-0.027-1.105-0.042-1.658c-0.005-0.142-0.012-0.352,0.188-0.344c0.169,0.008,0.14,0.205,0.143,0.332
		c0.007,0.555,0.009,1.109,0.004,1.664c-0.003,0.336-0.013,0.663,0.321,0.879c0.041,0.025,0.026,0.137,0.039,0.207
		C42.179,27.347,41.794,27.345,41.409,27.343z"/>
	<path fill="#283E57" d="M34.738,27.341c-0.118,0.001-0.237,0.003-0.356,0.004c-0.095-0.125-0.019-0.219,0.055-0.312
		c0.229-0.235,0.554-0.348,0.776-0.592c0.519-0.563,0.448-1.226,0.312-1.896c-0.11-0.437-0.452-0.661-0.798-0.884
		c-0.098-0.062-0.224-0.077-0.293-0.186c-0.022-0.067-0.016-0.133,0.032-0.188c0.504-0.09,0.813,0.245,1.101,0.554
		c0.662,0.719,0.76,1.559,0.353,2.428c-0.144,0.305-0.441,0.522-0.712,0.73C35.053,27.114,34.899,27.233,34.738,27.341z"/>
	<path fill="#354A61" d="M25.02,27.342c0.007-0.104-0.004-0.237,0.14-0.239c0.396-0.006,0.419-0.278,0.396-0.559
		c-0.033-0.406,0.12-0.831-0.143-1.221c-0.11-0.166,0.137-0.282,0.14-0.446c0.003-0.373,0.014-0.747,0-1.12
		c-0.011-0.263-0.222-0.354-0.436-0.42c0.364,0,0.729,0,1.095,0c-0.629,0.176-0.467,0.676-0.472,1.096
		c-0.008,0.612-0.007,1.228,0,1.838c0.004,0.369-0.033,0.77,0.478,0.871c0.032,0.006,0.041,0.131,0.062,0.198
		C25.86,27.341,25.44,27.342,25.02,27.342z"/>
	<path fill="#55677A" d="M62.549,25.392c0.412,0.116,0.699,0.377,0.789,0.793c0.081,0.373-0.182,0.588-0.441,0.799
		c-0.127,0.104-0.355,0.125-0.342,0.363c-0.493,0-0.986-0.002-1.479,0.004c-0.164,0-0.255-0.059-0.252-0.231
		c0.003-0.257-0.006-0.511,0.004-0.765c0.006-0.154,0.103-0.248,0.256-0.263c0.155-0.014,0.235,0.07,0.297,0.216
		c0.361,0.866,1.227,0.896,1.729,0.317c0.195-0.224,0.169-0.541-0.062-0.771c-0.146-0.146-0.331-0.248-0.499-0.371
		C62.547,25.454,62.548,25.423,62.549,25.392z"/>
	<path fill="#3D5167" d="M34.738,27.341c0.145-0.377,0.553-0.453,0.809-0.716c0.981-1.007,0.505-2.836-0.854-3.303
		c-0.066-0.023-0.146-0.007-0.222-0.007c-0.149,0.131-0.333,0.121-0.509,0.107c-0.716-0.055-1.268,0.223-1.671,0.809
		c-0.06,0.086-0.12,0.174-0.241,0.175c-0.049-0.032-0.055-0.071-0.018-0.117c0.299-0.837,1.312-1.284,2.137-1.202
		c1.213,0.122,1.76,0.861,2.051,1.825c0.194,0.649-0.246,1.659-0.938,2.124C35.117,27.147,35.025,27.438,34.738,27.341z"/>
	<path fill="#C0C7CE" d="M65.889,17.39c-0.001-4.691-0.001-9.384-0.002-14.076c0.129,0.175,0.074,0.377,0.074,0.566
		c0.004,4.344,0.004,8.688,0.002,13.032C65.964,17.073,66.006,17.245,65.889,17.39z"/>
	<path fill="#C0C7CE" d="M63.984,3.588c0,4.569-0.001,9.138-0.001,13.707c-0.117-0.125-0.08-0.28-0.08-0.428
		c-0.001-4.253,0-8.507,0.005-12.76C63.907,3.933,63.854,3.745,63.984,3.588z"/>
	<path fill="#31465E" d="M52.644,27.017c0.454,0.114,0.918,0.06,1.378,0.07c0.248,0.007,0.388-0.12,0.427-0.363
		c0.021-0.125,0.067-0.26,0.218-0.223c0.165,0.042,0.163,0.197,0.125,0.334c-0.048,0.171-0.108,0.339-0.165,0.508
		c-0.981,0.001-1.965,0.004-2.946,0.004c0.008-0.07,0-0.197,0.026-0.205c0.543-0.162,0.398-0.604,0.423-0.984
		c0.015-0.232-0.063-0.475,0.062-0.695c0.259,0.396,0.089,0.835,0.123,1.253C52.332,26.935,52.351,27.112,52.644,27.017z"/>
	<path fill="#2E445C" d="M45.437,24.56c0.196-0.232,0.105-0.474,0.015-0.713c0.03-0.076,0.081-0.121,0.17-0.101
		c0.187,0.776,0.081,1.565,0.093,2.351c0.008,0.43,0.014,0.851,0.188,1.25c-0.329,0.004-0.656,0.008-0.985,0.012
		c-0.102-0.137-0.064-0.248,0.066-0.34c0.261-0.058,0.346-0.216,0.352-0.48c0.016-0.641-0.073-1.282,0.056-1.918
		C45.402,24.599,45.42,24.579,45.437,24.56z"/>
	<path fill="#D8DCE0" d="M49.589,15.567c0-1.524,0.001-3.049,0.001-4.574c0-0.104,0.021-0.216-0.009-0.312
		c-0.138-0.451,0.125-0.511,0.474-0.51c1.658,0.002,3.318,0.001,4.979,0.001c0.255,0,0.509-0.003,0.763-0.005
		c-0.145,0.166-0.337,0.093-0.507,0.094c-1.691,0.006-3.386,0.014-5.077-0.005c-0.408-0.005-0.548,0.112-0.541,0.535
		c0.023,1.438,0.013,2.875,0.008,4.313C49.676,15.26,49.74,15.438,49.589,15.567z"/>
	<path fill="#CCD1D7" d="M44.971,27.079c-0.124,0.07-0.09,0.176-0.059,0.277c-0.314-0.094-0.221-0.293-0.062-0.418
		c0.299-0.24,0.318-0.5,0.262-0.864c-0.089-0.558,0.014-1.124,0.114-1.699c-0.328,0.269-0.417,0.697-0.682,1.003
		c-0.001-0.062-0.002-0.122-0.003-0.184c0.159-0.299,0.308-0.604,0.482-0.892c0.063-0.104,0.167-0.265,0.305-0.229
		c0.164,0.042,0.091,0.225,0.103,0.352c0.004,0.044,0.003,0.089,0.005,0.134l0.007,0.002c-0.091,0.639-0.033,1.278-0.031,1.918
		C45.413,26.817,45.32,27.026,44.971,27.079z"/>
	<path fill="#2F455D" d="M21.051,1.004c0.036,0.238,0.224,0.231,0.402,0.268c0.991,0.204,1.951,0.49,2.743,1.166
		c-0.274,0.043-0.424-0.196-0.619-0.306c-0.928-0.52-1.951-0.677-2.97-0.863c-0.172-0.032-0.283-0.068-0.271-0.263
		C20.574,1.005,20.812,1.004,21.051,1.004z"/>
	<path fill="#8C98A5" d="M16.375,1.791c-0.271,0.225-0.654,0.272-0.895,0.552c-0.255-0.016-0.337,0.385-0.637,0.265
		c0.368-0.508,0.974-0.662,1.472-0.973c0.44-0.276,1.01-0.262,1.437-0.611c0.107-0.088,0.348-0.016,0.524-0.018
		c0.086,0.258-0.111,0.287-0.274,0.33c-0.206,0.054-0.429,0.018-0.628,0.11l0,0C17.02,1.5,16.733,1.748,16.375,1.791z"/>
	<path fill="#485C70" d="M14.846,2.607c0.261,0.03,0.351-0.352,0.636-0.265c-0.782,0.586-1.549,1.191-2.128,1.997
		c-0.15,0.21-0.189,0.514-0.486,0.607c0.151-0.268,0.304-0.536,0.456-0.805C13.752,3.553,14.243,3.024,14.846,2.607z"/>
	<path fill="#637385" d="M32.033,24.289c0.008,0.033,0.017,0.067,0.024,0.101c0.039,0.186-0.065,0.344-0.083,0.521
		c-0.09,0.936,0.251,1.646,1.069,2.121c0.086,0.088,0.163,0.178,0.081,0.31c-0.444-0.103-0.704-0.454-0.978-0.767
		c-0.496-0.567-0.421-1.266-0.37-1.947C31.791,24.472,31.88,24.353,32.033,24.289z"/>
	<path fill="#334960" d="M33.125,27.342c-0.033-0.083-0.065-0.166-0.1-0.249c0.003-0.107,0.034-0.195,0.153-0.225
		c0.424,0.107,0.882,0.017,1.29,0.22c-0.029,0.086-0.059,0.171-0.089,0.257C33.962,27.344,33.544,27.343,33.125,27.342z"/>
	<path fill="#485C70" d="M17.374,1.445c0.181-0.134,0.396-0.156,0.606-0.183c0.162-0.021,0.273-0.083,0.297-0.257
		c0.239,0,0.479,0,0.719,0c-0.004,0.126-0.025,0.226-0.185,0.251C18.334,1.331,17.867,1.483,17.374,1.445z"/>
	<path fill="#A7B0BA" d="M44.462,24.392c-0.08,0.411-0.338,0.729-0.555,1.07c-0.372,0.071-0.624-0.214-0.622-0.706
		c0.009-0.038,0.017-0.077,0.023-0.116c0.106,0.123,0.228,0.237,0.315,0.371c0.061,0.09-0.024,0.281,0.131,0.299
		c0.179,0.02,0.242-0.181,0.291-0.297C44.148,24.772,44.274,24.565,44.462,24.392z"/>
	<path fill="#C0C7CE" d="M64.154,17.558c0.543-0.002,1.088-0.005,1.631-0.008C65.241,17.696,64.698,17.685,64.154,17.558z"/>
	<path fill="#D8DCE0" d="M56.34,17.46c0.001-0.48,0.001-0.961,0.001-1.441C56.487,16.499,56.488,16.979,56.34,17.46z"/>
	<path fill="#D8DCE0" d="M55.979,9.989c0.002-0.421,0.004-0.842,0.006-1.263C56.118,9.147,56.128,9.568,55.979,9.989z"/>
	<path fill="#364B62" d="M80.181,2.961c0,4.626,0,9.251,0,13.877c-0.126-0.122-0.082-0.28-0.083-0.426
		c-0.002-4.342-0.003-8.685-0.001-13.027C80.097,3.241,80.054,3.083,80.181,2.961z"/>
	<path fill="#364B62" d="M80.188,17.099c-0.001,0.111-0.042,0.235-0.15,0.239c-0.457,0.017-0.925,0.144-1.368-0.073
		C79.178,17.229,79.714,17.448,80.188,17.099z"/>
	<path fill="#011B38" d="M2.506,8.864c0,2.219,0,4.438,0,6.658c0,0.61,0.062,0.676,0.666,0.676c1.785,0,3.569-0.002,5.354,0.002
		c0.186,0,0.459-0.081,0.515,0.148c0.062,0.26,0.023,0.551-0.02,0.819c-0.02,0.122-0.193,0.113-0.313,0.113
		c-2.415,0.001-4.829-0.003-7.243,0.005c-0.321,0.001-0.388-0.194-0.367-0.438c0.152-1.932,0.043-3.865,0.062-5.796
		C1.179,8.88,1.145,6.705,1.172,4.531C1.182,3.74,0.909,3.012,0.8,2.251C0.797,2.238,0.789,2.225,0.785,2.21
		c-0.053-0.2-0.452-0.283-0.248-0.528C0.613,1.59,0.925,1.702,1.13,1.706c0.346,0.007,0.69,0.015,1.035-0.002
		C2.445,1.689,2.519,1.8,2.518,2.071C2.508,4.335,2.513,6.6,2.513,8.864C2.51,8.864,2.508,8.864,2.506,8.864z"/>
	<path fill="#485C70" d="M12.24,12.6c-0.782-2.13-0.799-4.259,0.001-6.389c0.103,0.559-0.29,1.013-0.316,1.56
		c-0.058,1.242-0.11,2.48,0.062,3.714C12.041,11.861,12.34,12.186,12.24,12.6z"/>
	<path fill="#2F455D" d="M26.379,4.672c0.559,0.488,0.722,1.187,0.946,1.84c0.112,0.33,0.235,0.68,0.216,1.047
		c-0.109-0.04-0.173-0.125-0.184-0.234C27.272,6.352,26.798,5.522,26.379,4.672z"/>
	<path fill="#2F455D" d="M25.736,3.787c0.305,0.231,0.557,0.499,0.645,0.887C26.13,4.404,25.885,4.13,25.736,3.787z"/>
	<path fill="#485C70" d="M16.375,1.791c0.328-0.129,0.613-0.377,0.999-0.345C17.061,1.619,16.763,1.836,16.375,1.791z"/>
	<path fill="#485C70" d="M12.503,5.665c-0.008-0.304,0.219-0.49,0.363-0.718C12.92,5.275,12.682,5.455,12.503,5.665z"/>
	<path fill="#485C70" d="M12.242,6.211c-0.024-0.235,0.149-0.375,0.262-0.546C12.562,5.917,12.461,6.093,12.242,6.211z"/>
	<path fill="#011C39" d="M51.975,17.438c-1.261,0-2.521-0.011-3.779,0.006c-0.36,0.004-0.479-0.152-0.469-0.486
		c0.086-2.488,0.03-4.978,0.03-7.466c0-2.069,0.062-4.138-0.043-6.207c-0.026-0.522-0.152-1-0.519-1.394
		c-0.087-0.094-0.146-0.195-0.084-0.323c0.047-0.096,0.137-0.106,0.229-0.097c1.106,0.11,2.217,0.036,3.323,0.046
		c1.604,0.014,3.21,0.009,4.813-0.005c0.406-0.004,0.569,0.129,0.534,0.555c-0.07,0.814-0.056,0.814-0.853,0.813
		c-1.726-0.002-3.449-0.002-5.175-0.001c-0.607,0-0.659,0.085-0.637,0.683c0.06,1.483,0.052,2.968,0.004,4.451
		c-0.014,0.575,0.06,0.69,0.647,0.691c1.726,0.001,3.449-0.004,5.174,0c0.215,0,0.516-0.093,0.598,0.173
		c0.093,0.306,0.11,0.657-0.005,0.966c-0.072,0.194-0.312,0.135-0.487,0.136c-1.725,0.002-3.448,0.001-5.174-0.001
		c-0.715-0.001-0.745,0.073-0.733,0.766c0.023,1.559,0.017,3.119-0.006,4.678c-0.009,0.537,0.028,0.62,0.593,0.62
		c1.904,0.003,3.811,0.014,5.714-0.011c0.436-0.005,0.587,0.12,0.578,0.556c-0.019,0.854,0.001,0.852-0.854,0.852
		C54.254,17.437,53.114,17.437,51.975,17.438z"/>
	<path fill="#011C38" d="M65.773,10.155c0,2.234,0,4.468-0.001,6.701c0,0.564-0.021,0.584-0.578,0.578
		c-1.064-0.013-1.025,0.195-1.023-1.041c0.011-4.35,0.005-8.695,0.02-13.043c0.001-0.39-0.167-0.492-0.516-0.489
		c-1.274,0.009-2.55,0.006-3.823,0.003c-0.219,0-0.521,0.07-0.583-0.202c-0.075-0.325-0.131-0.692,0.022-1.008
		c0.098-0.197,0.351-0.129,0.539-0.13c1.693-0.003,3.389,0,5.082,0c1.738,0,3.479-0.002,5.218-0.003
		c0.279,0,0.569-0.007,0.579,0.385c0.021,0.882-0.029,0.961-0.594,0.961c-1.289-0.001-2.579,0.006-3.868-0.01
		c-0.376-0.004-0.492,0.14-0.49,0.507c0.014,2.264,0.007,4.528,0.007,6.792C65.767,10.155,65.77,10.155,65.773,10.155z"/>
	<path fill="#001B38" d="M41.484,7.369c-0.298,0.345-0.337,0.805-0.52,1.204c-0.32,0.705-0.55,1.453-0.863,2.167
		c-0.292,0.661-0.508,1.354-0.768,2.029c-0.26,0.673-0.536,1.341-0.801,2.012c-0.157,0.396-0.306,0.799-0.462,1.196
		c-0.161,0.41-0.3,0.832-0.503,1.221c-0.199,0.383-0.5,0.371-0.674-0.016c-0.312-0.697-0.587-1.412-0.891-2.115
		c-0.259-0.604-0.536-1.197-0.805-1.795c-0.141-0.31-0.254-0.631-0.388-0.943c-0.482-1.133-0.853-2.318-1.375-3.431
		c-0.398-0.85-0.739-1.725-1.128-2.578c-0.294-0.647-0.603-1.302-0.812-1.99c-0.314-0.233-0.307-0.63-0.451-0.944
		c-0.263-0.569-0.47-1.157-1.023-1.524c-0.061-0.04-0.127-0.093-0.084-0.182c0.04-0.083,0.124-0.069,0.195-0.069
		c0.54,0.003,1.081-0.011,1.619,0.021c0.378,0.022,0.499,0.358,0.598,0.651c0.245,0.736,0.604,1.426,0.864,2.151
		c0.141,0.389,0.387,0.739,0.439,1.163c0.043,0.339,0.256,0.623,0.375,0.94c0.443,1.188,0.977,2.341,1.451,3.518
		c0.374,0.926,0.68,1.881,1.083,2.794c0.146,0.332,0.22,0.675,0.351,1.003c0.076,0.19,0.204,0.391,0.456,0.372
		c0.274-0.021,0.251-0.253,0.267-0.443c0.025-0.321,0.227-0.582,0.342-0.863c0.292-0.707,0.517-1.439,0.837-2.137
		c0.295-0.639,0.472-1.333,0.716-1.996c0.155-0.426,0.394-0.829,0.5-1.265c0.108-0.449,0.401-0.821,0.467-1.277
		c0.046-0.328,0.217-0.623,0.343-0.907c0.32-0.718,0.518-1.479,0.832-2.199c0.151-0.344,0.388-0.698,0.385-1.115
		c-0.002-0.276,0.222-0.355,0.427-0.375c0.343-0.033,0.688-0.018,1.033-0.02c0.185-0.001,0.258,0.088,0.163,0.255
		c-0.527,0.925-0.833,1.939-1.212,2.925C42.141,5.66,41.739,6.486,41.484,7.369z"/>
	<path fill="#1D354F" d="M52.644,27.017c-0.055,0.25-0.251,0.174-0.394,0.146c-0.196-0.036-0.059-0.184-0.059-0.284
		c0-0.473-0.002-0.946-0.003-1.419l-0.001,0.007c-0.008-0.627,0.017-1.257-0.117-1.877c-0.021,0.004-0.035-0.003-0.048-0.021
		c-0.188-0.135-0.21-0.28,0.047-0.307c0.211-0.021,0.445-0.041,0.646,0.092c0.044,0.039,0.052,0.084,0.021,0.135
		c-0.296,0.076-0.261,0.322-0.267,0.539c-0.033,1.169-0.032,1.168,1.126,1.164c0.146,0,0.298-0.041,0.46,0.08
		c-0.228,0.188-0.481,0.097-0.711,0.099c-0.871,0.008-0.882,0.001-0.871,0.856C52.479,26.495,52.356,26.804,52.644,27.017z"/>
	<path fill="#637385" d="M52.74,23.39c-0.203-0.031-0.399-0.099-0.611-0.082c-0.247,0.019-0.164,0.141-0.104,0.265
		c-0.15-0.024-0.368,0.021-0.357-0.222c0.007-0.162,0.178-0.203,0.31-0.188c0.727,0.082,1.448-0.072,2.174-0.014
		c0.171,0.016,0.365-0.032,0.473,0.166c-0.158,0.164-0.354,0.078-0.537,0.084C53.636,23.394,53.188,23.412,52.74,23.39z"/>
	<path fill="#2B4159" d="M54.09,23.31c0.178,0.002,0.354,0.006,0.53,0.008l0.002,0.002c0.069,0.072,0.048,0.166,0.053,0.253
		c0.012,0.165,0.132,0.399-0.091,0.467c-0.295,0.088-0.078-0.291-0.251-0.349c-0.026-0.029-0.055-0.061-0.081-0.09
		c-0.023-0.041-0.049-0.082-0.073-0.123C54.117,23.438,54.032,23.411,54.09,23.31z"/>
	<path fill="#31465E" d="M52.072,23.59c0.079,0.024,0.124,0.08,0.127,0.16c0.011,0.498-0.013,0.997,0.088,1.49
		c0.019,0.087-0.007,0.177-0.098,0.227C52.15,24.842,52.111,24.216,52.072,23.59z"/>
	<path fill="#637385" d="M54.333,23.688c0.173,0.022,0.055,0.258,0.248,0.304c0.104-0.218,0.043-0.449,0.041-0.675
		c0.14,0.062,0.104,0.195,0.132,0.305c0.054,0.222,0.104,0.509-0.185,0.538C54.276,24.188,54.38,23.868,54.333,23.688z"/>
	<path fill="#152D48" d="M43.285,24.756c0.062,0.211,0.247,0.354,0.293,0.58c0.032,0.163,0.194,0.144,0.329,0.126
		c0.124,0.01,0.189,0.077,0.201,0.2c-0.029,0.032-0.061,0.065-0.09,0.098c-0.188-0.104-0.264,0.064-0.368,0.157
		c-0.369-0.586-0.744-1.168-1.094-1.77c-0.194-0.334-0.684-0.496-1.041-0.737c0.479-0.229,0.731-0.162,0.976,0.251
		c-0.104,0.096-0.184-0.036-0.277-0.028c0.091,0.038,0.176,0.132,0.276,0.023C42.755,24.022,43.021,24.39,43.285,24.756z"/>
	<path fill="#06203C" d="M43.651,25.917c0.021-0.122-0.059-0.286,0.127-0.338c0.146-0.041,0.225,0.037,0.241,0.181
		C43.909,25.841,43.878,26.108,43.651,25.917z"/>
	<path fill="#122B46" d="M63.257,23.827c0.011,0.135-0.022,0.255-0.122,0.229c-0.205-0.058-0.194-0.277-0.252-0.438
		c-0.034-0.104,0.012-0.195,0.122-0.181C63.251,23.472,63.154,23.731,63.257,23.827z"/>
	<path fill="#021D3A" d="M45.62,23.746c-0.058,0.034-0.113,0.067-0.17,0.101c-0.223-0.074-0.311,0.166-0.491,0.202
		c0.229-0.245,0.217-0.78,0.787-0.631C45.702,23.533,45.661,23.64,45.62,23.746z"/>
	<path fill="#31465E" d="M54.09,23.31c0.029,0.058,0.06,0.111,0.089,0.168c-0.479,0.004-0.96,0.008-1.438,0.014
		c0-0.033,0.001-0.067,0.001-0.102C53.181,23.209,53.641,23.349,54.09,23.31z"/>
	<path fill="#2C435A" d="M33.12,26.911c-0.001,0.074-0.021,0.143-0.094,0.182c-1.001-0.291-1.507-1.878-0.969-2.703
		c0.511-1.019,1.407-1.168,2.414-1.074c0,0.054,0.001,0.104,0.001,0.156c-0.196,0.12-0.408,0.031-0.612,0.043
		c-0.843,0.047-1.292,0.596-1.545,1.299c-0.218,0.604-0.026,1.174,0.432,1.637c0.029,0.027,0.057,0.062,0.081,0.095
		C32.893,26.69,33.072,26.748,33.12,26.911z"/>
	<path fill="#3D5167" d="M32.761,26.55c-0.447-0.251-0.747-1.033-0.628-1.638c0.212-1.063,1.277-1.72,2.34-1.44
		c0.565,0.135,0.948,0.479,1.159,1.021c-0.042,0.022-0.086,0.022-0.13,0.006c-0.138-0.069-0.221-0.198-0.323-0.308
		c-0.486-0.506-1.104-0.631-1.732-0.438c-0.638,0.197-0.938,0.766-1.086,1.382c-0.094,0.39,0.186,0.71,0.312,1.056
		C32.715,26.308,32.864,26.396,32.761,26.55z"/>
	<path fill="#788695" d="M35.548,24.481c0.029-0.006,0.058-0.004,0.084,0.009c0.038,0.204,0.091,0.407,0.111,0.614
		c0.104,0.998-0.452,1.576-1.274,1.981c-0.462,0.03-0.919,0.028-1.35-0.177c-0.1-0.112-0.325-0.085-0.329-0.303
		c0.218-0.131,0.398-0.004,0.585,0.086c0.95,0.451,1.991-0.17,2.069-1.219C35.472,25.146,35.32,24.792,35.548,24.481z"/>
	<path fill="#0C2541" d="M61.133,26.278c0.134,0.209,0.277,0.394,0.371,0.602c0.052,0.115-0.093,0.121-0.178,0.125
		c-0.239,0.012-0.312-0.137-0.308-0.344C61.023,26.537,60.976,26.394,61.133,26.278z"/>
	<path fill="#32485F" d="M44.971,27.079c0.353-0.157,0.404-0.438,0.403-0.799c-0.001-0.572-0.117-1.153,0.067-1.721
		c0.002,0.696-0.007,1.395,0.013,2.09C45.465,27.015,45.309,27.138,44.971,27.079z"/>
	<path fill="#0A2440" d="M42.49,23.656c-0.021,0.155-0.096,0.2-0.241,0.122c-0.118-0.063-0.256-0.125-0.27-0.266
		c-0.012-0.13,0.109-0.121,0.188-0.076c0.113,0.062,0.215,0.146,0.321,0.225L42.49,23.656L42.49,23.656z"/>
</g>
</svg>
