<?xml version="1.0" encoding="utf-8"?>
<!-- Generator: Adobe Illustrator 16.0.0, SVG Export Plug-In . SVG Version: 6.00 Build 0)  -->
<!DOCTYPE svg PUBLIC "-//W3C//DTD SVG 1.1//EN" "http://www.w3.org/Graphics/SVG/1.1/DTD/svg11.dtd">
<svg version="1.1" id="圖層_1" xmlns="http://www.w3.org/2000/svg" xmlns:xlink="http://www.w3.org/1999/xlink" x="0px" y="0px"
	 width="85.413px" height="70px" viewBox="-85.413 73.626 85.413 70" enable-background="new -85.413 73.626 85.413 70"
	 xml:space="preserve">
<g>
	<g>
		<g>
			<path fill="#181878" d="M-42.978,107.118c0.232-0.033,0.466-0.065,0.73-0.101c0.2-0.033,0.431-0.066,0.631-0.133
				c0.231-0.033,0.464-0.101,0.731-0.166l0.299-0.102c0.365-0.165,0.729-0.432,1.062-0.662c-0.264-0.135-0.562-0.199-0.829-0.232
				c-0.268-0.033-0.565-0.066-0.865-0.066l-0.167,0.033c-0.531,0.132-1.028,0.197-1.562,0.3l-0.2,0.032l-0.165,0.033l-0.134,0.032
				l-0.132-0.032h-0.099l-0.102-0.033l-0.065-0.065l-0.033-0.035l-0.066-0.1c-0.065-0.065-0.167-0.165-0.266-0.229l-0.132-0.234
				l-0.066-0.199v-0.198v-0.167l0.033-0.166c0.033-0.035,0.066-0.102,0.099-0.167l0.101-0.233l0.134-0.23l0.264-0.266
				c0.066-0.133,0.167-0.233,0.268-0.365l0.101-0.133l0.433,0.033l0.5-0.166l0.496-0.066l0.466-0.066c0.199,0,0.397,0,0.564,0
				c0.299,0.033,0.565,0.066,0.832,0.133l0.597,0.133l0.465,0.133l0.399,0.132l0.265,0.134l0.199,0.133
				c0.1,0.065,0.167,0.131,0.233,0.232l0.033,0.066h0.032h0.033c0.033-0.168,0.066-0.299,0.135-0.465
				c0.065-0.166,0.132-0.332,0.23-0.467c0-0.164,0-0.297,0-0.464c-0.299-0.099-0.598-0.132-0.896-0.167
				c-0.398-0.033-0.798-0.033-1.162-0.033c-0.332,0-0.631-0.033-0.932-0.033c-0.464,0-0.931,0.066-1.361,0.135
				c-0.165,0.033-0.333,0.066-0.498,0.099l-0.233,0.099c-0.099,0.068-0.198,0.102-0.299,0.168l-0.066,0.033h-0.132l-0.167-0.033
				c-0.065-0.033-0.132-0.066-0.2-0.1l-0.033-0.035c-0.065-0.099-0.164-0.197-0.232-0.299c-0.132-0.197-0.297-0.398-0.432-0.562
				l-0.033-0.334l0.033-0.264l0.101-0.234l0.066-0.198c0.099-0.134,0.166-0.3,0.299-0.397c0.099-0.201,0.23-0.367,0.333-0.566
				l0.165-0.065c0.333-0.067,0.698-0.101,1.032-0.134c0.33-0.033,0.662-0.066,0.994-0.1c0-0.232,0-0.465,0.033-0.73
				c-0.165,0.033-0.299,0.1-0.464,0.132c-0.2,0.033-0.431,0.132-0.631,0.198l-0.099,0.035c-0.133,0.066-0.233,0.132-0.334,0.23
				l-0.065,0.068l-0.266,0.066l-0.233,0.033l-0.199-0.033l-0.134-0.066l-0.132-0.068l-0.167-0.132l-0.033-0.065l-0.132-0.168
				l-0.033-0.264l-0.033-0.232l0.033-0.266c0-0.199,0.033-0.398,0.066-0.632l0.166-0.364l0.134-0.268l0.165-0.198l0.134-0.167
				l0.132-0.099l0.1-0.065l0.101-0.033c0.366-0.168,0.731-0.233,1.129-0.267c0.267-0.032,0.531-0.032,0.83-0.032
				c-0.033-0.332-0.033-0.632-0.033-0.965c0-0.232,0-0.464,0-0.697c-0.032-0.166-0.032-0.365-0.065-0.564c0-0.1,0-0.199-0.033-0.297
				c-0.033-0.366-0.066-0.733-0.1-1.065l0.033-0.231l0.066-0.199l0.099-0.135l0.066-0.164c0.067-0.066,0.134-0.166,0.232-0.233
				c0.066-0.132,0.135-0.231,0.2-0.397v-0.033l0.2-0.264l0.165-0.135l0.167-0.1l0.198-0.066l0.134-0.033l0.165,0.033l0.165,0.033
				l0.068,0.033l0.165,0.132l0.132,0.167l0.232,0.266c0.066,0.067,0.132,0.166,0.167,0.266l0.132,0.232l0.1,0.231l0.067,0.233
				l0.033,0.199c0.033,0.133,0.033,0.299,0.033,0.465c-0.066,0.5-0.167,0.963-0.267,1.461l-0.066,0.465l-0.068,0.898l0.035,0.465
				l1.129,0.032l0.665,0.065l0.498,0.1c0.299,0.068,0.565,0.135,0.832,0.266l0.033,0.066l0.167,0.167l0.099,0.233l0.101,0.23
				l0.032,0.232c0.033,0.201,0.068,0.365,0.068,0.566l-0.068,0.299l-0.099,0.131l-0.165,0.066l-0.232,0.033l-0.2,0.033l-0.132,0.134
				l-0.068,0.065l-0.132,0.033c-0.066,0-0.132,0.033-0.233,0l-0.529-0.131l-0.498-0.068l-0.4-0.033c-0.264-0.033-0.53-0.033-0.796,0
				c-0.033,0.332-0.033,0.664-0.033,1.029l0.165,0.033c0.565,0.102,1.164,0.233,1.729,0.367c0.134,0.033,0.266,0.1,0.397,0.198
				l0.068,0.032l0.065-0.065l0.165-0.132l0.167-0.066l0.165-0.035l0.134,0.035l0.1,0.033l0.134,0.1l0.066,0.166l0.065,0.166
				l0.033,0.131l0.066,0.365v0.334c0.032,0.364,0,0.729-0.033,1.063l-0.033,0.198l-0.165,0.432l-0.167,0.434
				c-0.232,0.562-0.499,1.129-0.764,1.66c0.299,0.334,0.531,0.631,0.797,0.963s0.533,0.697,0.764,1.064
				c0.299,0.464,0.533,0.93,0.765,1.428c0.134,0.266,0.267,0.562,0.399,0.83c0.165,0.4,0.299,0.766,0.432,1.164l0.199,0.562
				c0.165,0.565,0.333,1.131,0.433,1.729l0.065,0.102l0.033,0.166v0.164v0.168l-0.033,0.332l-0.065,0.332l-0.233,0.697l-0.099,0.232
				l-0.066,0.199l-0.099,0.133c-0.102,0.133-0.2,0.265-0.333,0.3l-0.267,0.101l-0.232,0.064l-0.2,0.033l-0.165-0.033l-0.134-0.033
				l-0.1-0.064l-0.032-0.066c-0.233-0.167-0.432-0.398-0.631-0.633c-0.133-0.496-0.198-1.028-0.298-1.561
				c-0.101-0.597-0.199-1.229-0.299-1.859c-0.035-0.266-0.101-0.565-0.167-0.832l-0.132-0.432l-0.134-0.398l-0.132-0.364
				l-0.135-0.364l-0.165-0.335l-0.266-0.53l-0.266-0.465c-0.165-0.232-0.331-0.465-0.531-0.664l-0.099-0.168
				c-0.066,0.033-0.135,0.068-0.2,0.135v0.033l-0.464,0.364l-0.334,0.233l-0.366,0.23l-0.365,0.168l-0.363,0.131l-0.366,0.133
				l-0.333,0.102l-0.332,0.066l-0.3,0.064l-0.497,0.066c-0.2,0.033-0.398,0.033-0.565,0.033c-0.264,0.101-0.53,0.134-0.83,0.199
				c-0.532,0.033-1.063,0.066-1.628,0.066l-0.266-0.033l-0.231-0.066l-0.2-0.101l-0.167-0.101c-0.099-0.065-0.198-0.131-0.299-0.23
				l-0.132-0.102l0.033-0.264l0.065-0.168l0.102-0.131c0.099-0.133,0.197-0.268,0.333-0.398l0.165-0.168l0.167-0.164l0.165-0.135
				l0.167-0.1l0.132-0.1l0.167-0.067l0.132-0.032l0.099-0.033l0.135-0.033l0.197,0.033c0.066,0,0.132,0,0.2,0.065l0.099,0.033
				l0.033,0.067l0.299,0.133L-42.978,107.118z"/>
			<path fill="#181878" d="M-45.537,100.406l-0.397,0.266c-0.135,0.102-0.267,0.168-0.435,0.233c-0.065,0.065-0.132,0.132-0.198,0.2
				c0,0.266,0,0.797,0.033,1.062c0.266-0.199,0.5-0.432,0.731-0.631l0.101-0.066c0.132-0.133,0.266-0.266,0.431-0.397
				c0.066-0.035,0.135-0.067,0.2-0.101l0.132-0.033l0.2,0.066l0.066,0.166l0.033,0.1c0,0.066,0,0.134,0,0.199
				c0.032,0.201,0.065,0.365,0.065,0.565v0.165l-0.033,0.166l-0.065,0.266c-0.033,0.1-0.101,0.2-0.134,0.299l-0.1,0.166
				l-0.099,0.133l-0.132,0.166l-0.267,0.266l-0.299,0.232c-0.232,0.201-0.466,0.365-0.732,0.533
				c-0.065,0.065,0.066,0.032,0.066,0.131l-0.066,0.133l0.033,0.365v0.365l0.033,0.365l-0.033,0.6l-0.033,0.531
				c-0.065,0.332-0.132,0.664-0.23,0.996c-0.101,0.198-0.167,0.398-0.266,0.6c-0.166,0.299-0.333,0.564-0.498,0.862
				c-0.102,0.167-0.2,0.3-0.333,0.464c-0.134,0.168-0.3,0.334-0.434,0.533c-0.166,0.167-0.333,0.332-0.532,0.467
				c-0.198,0.197-0.432,0.397-0.696,0.562c-0.365,0.268-0.765,0.5-1.131,0.764l-0.231,0.135l-0.334,0.1l-0.297,0.033l-0.233,0.033
				h-0.197c-0.135-0.033-0.267-0.033-0.398-0.066c-0.068,0-0.134,0-0.2,0c-0.065,0-0.134,0.033-0.167,0.033
				c-0.132,0-0.198,0-0.333,0l-0.065-0.033l-0.066-0.066l-0.066-0.064l-0.101-0.135l-0.033-0.231l-0.033-0.231l0.033-0.232
				l0.066-0.232l0.067-0.199l0.1-0.201l0.132-0.164l0.167-0.1c0.233-0.068,0.432-0.199,0.665-0.302
				c0.465-0.265,0.962-0.563,1.429-0.829l0.233-0.197l0.266-0.201l0.231-0.23l0.2-0.268l0.232-0.266l0.166-0.3l0.198-0.299
				l0.299-0.565l0.233-0.498c0.099-0.197,0.199-0.365,0.266-0.598c0.033-0.268,0.066-0.5,0.066-0.797c0-0.167-0.033-0.301-0.033-0.5
				c0,0-0.1-0.066-0.1-0.133c-0.266-0.098-0.564-0.131-0.864-0.232l-0.797-0.365c-0.398-0.197-0.799-0.398-1.197-0.631l-0.267-0.266
				l-0.164-0.23l-0.1-0.234l-0.033-0.197v-0.167c0.033-0.099,0.033-0.165,0.066-0.267l0.099-0.164l0.1-0.133l0.101-0.134l0.1-0.099
				c0.065-0.066,0.132-0.135,0.197-0.168c0.102-0.131,0.267-0.197,0.434-0.197h0.065c0.1,0.033,0.2,0.066,0.299,0.1
				c0.033,0.032,0.101,0.065,0.167,0.098c0.1,0.066,0.231,0.135,0.365,0.168l0.132,0.166l0.066,0.033l0.065,0.101
				c0.035,0.099,0.068,0.166,0.068,0.267c0.166,0.098,0.298,0.197,0.432,0.297c0.1,0.066,0.231,0.135,0.365,0.168l0.299,0.166
				c-0.034-0.299-0.034-0.863-0.067-1.162c-0.099-0.033-0.231-0.066-0.365-0.1c-0.432-0.199-0.896-0.4-1.328-0.633l-0.266-0.066
				c-0.134-0.065-0.299-0.131-0.434-0.23l-0.266-0.2l-0.198-0.233l-0.099-0.265l-0.068-0.233l-0.032-0.197
				c0.032-0.135,0.032-0.232,0.067-0.367l0.066-0.266l0.099-0.232l0.1-0.199l0.134-0.201l0.132-0.131
				c0.066-0.066,0.134-0.133,0.2-0.199l0.198-0.135l0.2-0.099l0.233-0.033l0.165,0.065l0.134,0.066l0.066,0.102l0.032,0.033
				l0.133,0.099c0.266,0.198,0.564,0.397,0.863,0.565c-0.101-0.697-0.101-1.428-0.101-2.16V96.06l-0.033-0.102l0.033-0.132v-0.099
				l0.066-0.135l0.101-0.065l0.1-0.033h0.033c0.366-0.099,0.767-0.2,1.099-0.333h0.032c0.166-0.132,0.333-0.23,0.465-0.365
				c0.167-0.132,0.3-0.264,0.464-0.397c0.168-0.165,0.3-0.365,0.467-0.532l0.332-0.365c0.099-0.099,0.199-0.199,0.299-0.332
				l0.066-0.066l0.134-0.332l0.032-0.1l0.133-0.133l0.132-0.068l0.134-0.033c0.066,0,0.165,0,0.23,0h0.066l0.167,0.102l0.099,0.133
				l0.1,0.131c0.101,0.168,0.2,0.334,0.266,0.533l0.1,0.332l0.067,0.299l0.033,0.231c0.033,0.233,0.066,0.466,0.033,0.698
				l-0.066,0.199l-0.067,0.197l-0.1,0.2l-0.099,0.166l-0.099,0.167l-0.233,0.299c-0.132,0.133-0.233,0.233-0.365,0.365
				c-0.132,0.1-0.233,0.199-0.366,0.3l-0.266,0.2c-0.132,0.1-0.266,0.166-0.398,0.266l-0.266,0.133
				c-0.233,0.1-0.499,0.231-0.764,0.299h-0.033l-0.033,0.133c-0.033,0.398,0,0.764,0,1.129c0.198-0.132,0.331-0.264,0.498-0.432
				l0.2-0.133l0.132-0.067c0.167-0.166,0.366-0.333,0.565-0.433l0.167-0.197c0.065-0.068,0.132-0.135,0.23-0.2l0.134-0.033h0.165
				l0.166,0.099l0.102,0.135l0.033,0.099c0,0.132,0,0.231,0,0.332c0,0.132-0.033,0.267-0.066,0.397l-0.266,0.699
				c-0.133,0.299-0.233,0.564-0.398,0.832l-0.267,0.197L-45.537,100.406z"/>
		</g>
		<g>
			<path fill="#181878" d="M-84.848,100.308l-0.135-0.101l-0.132-0.132l-0.065-0.102l-0.066-0.131l-0.068-0.133l-0.032-0.134
				l-0.033-0.099v-0.135l-0.033-0.099v-0.132l0.033-0.066v-0.101l0.033-0.099c0-0.1,0.032-0.166,0.032-0.266l0.068-0.199
				l0.033-0.166c0.065-0.166,0.099-0.299,0.165-0.466l0.065-0.065l0.102-0.066l0.132-0.068l0.134-0.066l0.365-0.199l0.198-0.1h0.167
				h0.132l0.132,0.066l0.068,0.066l0.065,0.066l0.033,0.066l0.132,0.033l0.167,0.033h0.166l0.167,0.033h0.165h0.167l0.166-0.033
				h0.134h0.132l0.233-0.066c0.099,0,0.166-0.033,0.266-0.033h0.066l0.033-0.033l0.065-1.263v-0.099V95.99h-0.065l-0.101,0.066
				l-0.101,0.065l-0.132,0.101l-0.233,0.166l-0.132,0.066l-0.132,0.132l-0.134,0.068l-0.101,0.065l-0.101,0.033h-0.1h-0.032h-0.066
				h-0.066h-0.101l-0.099-0.033c-0.066,0-0.167,0-0.233-0.033h-0.066c-0.165-0.364-0.364-0.73-0.562-1.096l-0.033-0.068
				l-0.035-0.065v-0.032v-0.068v-0.032v-0.033l0.035-0.032l0.363-0.434v-0.033c0-0.066,0-0.1,0-0.167l0.033-0.032V94.56l0.232-0.231
				l0.233-0.233l0.266-0.23l0.299-0.232l0.333-0.234l0.3-0.23l0.333-0.232l0.297-0.201l0.299-0.199l0.299-0.165
				c0.299-0.2,0.599-0.397,0.931-0.565l0.2-0.164l0.198-0.1l0.2-0.102l0.165-0.032h0.132h0.134h0.1h0.397l0.299,0.065l0.233,0.135
				l0.167,0.197l0.065,0.168l0.066,0.166v0.099v0.067l-0.033,0.1l-0.033,0.099l-0.032,0.101l-0.033,0.066v0.1
				c0,0.033-0.035,0.065-0.035,0.101l0.035,0.265l-0.035,0.232l-0.065,0.199l-0.066,0.166l-0.1,0.135l-0.067,0.1l-0.099,0.065
				l-0.033,0.099l-0.066,0.066l-0.101,0.033h-0.066h-0.165h-0.068h-0.032l-0.165,0.134l-0.066,0.032l-0.065,0.066l-0.2,0.233
				l-0.231,0.266c-0.032,0.198-0.032,0.365-0.032,0.531c-0.035,0.466-0.068,0.931-0.102,1.396c0,0.065,0,0.166,0,0.266l0.102-0.066
				l0.099-0.033l0.099-0.067c0.066-0.033,0.132-0.065,0.198-0.132l0.167-0.1l0.132-0.134l0.099-0.099l0.102-0.1l0.033-0.066
				c0.033-0.065,0.065-0.1,0.099-0.131l0.101-0.168l0.1-0.131l0.066-0.102l0.065-0.1l0.033-0.099c0-0.032,0-0.065,0.035-0.101
				l0.065-0.266c0.033-0.101,0.066-0.199,0.1-0.266l0.033-0.068l0.032-0.166c0-0.065,0.033-0.134,0.068-0.199l0.132-0.133
				l0.167-0.131l0.132-0.102l0.166-0.133l0.266-0.166c0.066-0.067,0.133-0.1,0.233-0.166h0.033h0.033v-0.033l0.032,0.033h0.033
				l0.033,0.033v0.065l0.033,0.101v0.1l0.033,0.132v0.167v0.332c0,0.23-0.033,0.432-0.033,0.665c0,0.132,0,0.299,0,0.431l-0.1,0.266
				l-0.099,0.234l-0.134,0.197l-0.1,0.232l-0.099,0.199l-0.134,0.166l-0.1,0.166l-0.132,0.166l-0.099,0.133l-0.102,0.133l-0.099,0.1
				l-0.1,0.1l-0.102,0.101l-0.065,0.065l-0.1,0.1l-0.232,0.102l-0.135,0.065l-0.132,0.065l-0.099,0.066l-0.101,0.066l-0.1,0.066
				l-0.033,0.067c-0.032,0.065-0.032,0.099-0.065,0.165c0,0.066-0.033,0.132-0.033,0.164l0.099,0.102l0.133,0.166l0.134,0.133
				l0.132,0.166l0.101,0.166l0.1,0.135l0.132,0.199l0.101,0.166l0.1,0.168l0.065,0.166l0.102,0.199l0.099,0.165l0.066,0.167
				l0.065,0.198l0.068,0.167l0.065,0.166l0.133,0.332l0.099,0.299c0.068,0.199,0.134,0.398,0.2,0.631
				c0.033,0.1,0.066,0.232,0.099,0.366v0.065l0.033,0.033c0.099-0.132,0.432-0.099,0.533-0.197l0.065-0.1l0.1-0.068l0.099-0.065
				l0.102-0.033l0.099-0.032c0.132,0,0.266-0.133,0.398-0.168h0.032l0.068-0.033l0.299-0.099l0.199-0.065l0.397-0.135
				c0.135-0.033,0.233-0.065,0.334-0.099l0.166-0.033l0.133-0.032l0.132-0.033h0.134h0.099c0.033,0,0.1,0.033,0.135,0.033
				l0.197,0.065c0.066,0.032,0.135,0.065,0.2,0.099c0.066,0,0.132,0,0.165,0c0.068,0,0.134,0,0.2,0l0.099-0.033h0.134
				c0.1,0,0.231,0,0.365,0c0.033,0,0.1,0,0.166,0h0.132l0.135-0.065l0.065-0.033l0.033-0.065l0.033-0.068l0.033-0.066v-0.033v-0.098
				l0.032-0.135c0-0.398,0-0.764,0-1.162c0-0.564,0-1.164,0-1.729c0-0.332,0-0.631,0-0.963c0-0.199,0-0.365,0.033-0.565
				c0-0.231,0-0.464,0-0.665c0-0.165,0-0.33,0-0.529c0-0.133,0-0.3-0.033-0.466c0-0.101,0-0.2,0-0.299
				c-0.032-0.5-0.032-0.997-0.032-1.497c-0.033-0.1-0.033-0.23-0.033-0.363v-0.199v-0.168l0.033-0.299c0-0.066,0-0.132,0.032-0.197
				l0.699-1.83l0.066-0.098l0.132-0.1l0.134-0.033h0.398l0.132,0.033l0.099,0.033l0.102,0.033l0.264,0.266l0.233,0.199l0.164,0.199
				l0.168,0.164l0.099,0.135l0.101,0.131l0.1,0.1l0.099,0.167l0.033,0.101v0.099v0.101l0.035,0.133v0.133v0.133v0.167V93
				l-0.035,0.167v0.165l-0.033,0.167v0.166l-0.033,0.165l-0.032,0.167v0.166l-0.033,0.134l-0.167,2.524
				c0,0.132-0.033,0.299-0.066,0.432l-0.033,0.3c0,0.133,0,0.266-0.032,0.434v0.132v0.267v0.131v0.135v0.099v0.099l0.032,0.1
				l-0.166,2.924l0.3,0.033l0.364,0.033l0.333,0.065l0.299,0.033l0.265,0.067l0.267,0.066l0.233,0.066l0.23,0.066l0.2,0.067
				l0.2,0.032l0.132,0.066l0.167,0.066l0.132,0.066l0.1,0.033l0.167,0.1l0.032,0.033h0.033v0.033l0.033,0.033v0.066v0.033
				l-0.033,0.035V103l-0.132,0.132l-0.134,0.166l-0.299,0.432c-0.1,0.133-0.233,0.297-0.332,0.465l-0.132,0.099l-0.102,0.099
				l-0.132,0.068l-0.099,0.066l-0.135,0.066l-0.132,0.032l-0.132,0.033l-0.099,0.032l-0.102,0.033l-0.099,0.035l-0.166,0.033
				c-0.068,0-0.134,0-0.167,0l-1.063-0.199c0,0.098,0,0.166,0,0.266c-0.034,1.328-0.034,2.691-0.034,4.021c0,0.996,0,1.992,0,2.989
				c0,0.231,0,0.465,0,0.729c0,0.066,0,0.133,0,0.201v0.1v0.099l-0.033,0.134l-0.066,0.231l-0.065,0.267
				c-0.066,0.231-0.132,0.432-0.2,0.633l-0.033,0.164l-0.099,0.365l-0.033,0.232l-0.066,0.201l-0.065,0.197l-0.066,0.168
				l-0.101,0.098l-0.231,0.1l-0.466,0.1l-0.165,0.068l-0.167,0.064l-0.099,0.033l-0.167,0.066l-0.066,0.033l-0.2-0.665l-0.033-0.198
				l-0.032-0.199l-0.033-0.232v-0.231l-0.033-0.2v-0.232l0.033-0.198v-0.2v-0.197l0.033-0.168l0.032-0.299
				c0-0.1,0.033-0.166,0.033-0.265v-0.101c-0.033-0.598-0.033-1.162-0.033-1.762c0-1.264,0.033-2.558,0-3.82v-0.631
				c0-0.268,0-0.565-0.032-0.83v-0.5l-0.033-0.199v-0.198l-0.033-0.167v-0.132h-0.033l-0.099-0.033h-0.134h-0.1h-0.132l-0.167,0.033
				h-0.132l-0.132,0.032c-0.134,0-0.267,0.033-0.4,0.066c-0.099,0-0.23,0.033-0.333,0.066l-0.197,0.068l-0.2,0.065l-0.233,0.065
				l-0.266,0.066l-0.231,0.066l-0.266,0.068l-0.266,0.065l-0.466,0.099c-0.299,0.066-0.832,0.102-1.131,0.168l0.035,0.164
				l0.066,0.301l0.065,0.599c0.066,0.331,0.099,0.663,0.132,1.028c0.068,0.6,0.167,1.229,0.233,1.828v0.299l0.033,0.232v0.2v0.198
				v0.166l-0.033,0.166v0.132v0.103l-0.033,0.098c-0.033,0.101-0.033,0.199-0.099,0.301v0.064l-0.033,0.066l-0.035,0.066
				l-0.033,0.065l-0.065,0.033l-0.066,0.034l-0.065,0.033l-0.233-0.033h-0.132l-0.1,0.033l-0.101,0.033l-0.099,0.032l-0.066,0.065
				l-0.066,0.033h-0.064l-0.102-0.033l-0.065-0.065l-0.066-0.065l-0.033-0.067l-0.032-0.101l-0.033-0.065v-0.065
				c-0.033-0.135-0.068-0.232-0.068-0.332c-0.065-0.398-0.132-0.797-0.165-1.229c-0.167-1.063-0.299-2.126-0.434-3.222
				c0-0.103-0.033-0.2-0.033-0.301l-0.099-0.397l-0.066-0.365l-0.066-0.332l-0.101-0.333l-0.065-0.299l-0.066-0.266l-0.066-0.268
				l-0.101-0.23l-0.066-0.233l-0.065-0.166l-0.066-0.2l-0.066-0.164l-0.067-0.135l-0.066-0.132l-0.032-0.101l-0.066-0.1l-0.066-0.1
				l-0.033-0.067l-0.065-0.065l-0.033-0.033l-0.033-0.066c-0.034-0.033-0.101-0.066-0.134-0.1l0.1,8.041l-0.033,0.265l-0.033,0.233
				l-0.033,0.232l-0.065,0.231l-0.033,0.167l-0.066,0.165l-0.067,0.2l-0.6-0.5l-0.431-0.563l-0.132-0.2l-0.102-0.132l-0.099-0.065
				l-0.099-0.065l-0.066-0.067l-0.068-0.033l-0.065-0.065v-0.101l-0.033-0.266l-0.033-0.268v-0.299l-0.033-0.299v-0.299
				l-0.032-0.599l-0.033-0.632v-0.631v-0.6c0.033-0.464,0.033-0.931,0.033-1.428c0-0.434,0.032-0.865,0.065-1.329
				c0-0.165,0-0.299,0-0.464l-0.531,0.994l-0.065,0.135l-0.068,0.132l-0.033,0.099l-0.065,0.135l-0.033,0.099l-0.065,0.233
				l-0.066,0.232c-0.068,0.231-0.134,0.465-0.2,0.731l-0.065,0.231l-0.068,0.231l-0.066,0.267l-0.033,0.231l-0.032,0.231
				l-0.033,0.233l-0.033,0.233v0.229l-0.033,0.233v0.232v0.233v0.198v0.232v0.198v0.2l0.033,0.365l0.033,0.332l0.033,0.332
				c0.065,0.267,0.099,0.531,0.167,0.797l0.033,0.232l0.032,0.133v0.101v0.065v0.066l-0.065,0.066
				c-0.035,0.031-0.068,0.064-0.135,0.099l-0.032,0.032l-0.066,0.068l-0.101,0.032l-0.066,0.033l-0.099,0.065l-0.167,0.033
				l-0.165-0.066l-0.167-0.065l-0.166-0.134l-0.165-0.132l-0.134-0.166l-0.101-0.166l-0.065-0.166l-0.066-0.2l-0.066-0.23
				l-0.067-0.199L-84.451,110l-0.033-0.198l-0.033-0.232l-0.032-0.2l-0.033-0.2l-0.033-0.23v-0.199l-0.032-0.199v-0.398v-0.364
				v-0.332v-0.332v-0.267c0.033-0.268,0.033-0.533,0.066-0.799l0.065-0.33l0.033-0.332l0.066-0.301l0.067-0.332l0.066-0.299
				l0.066-0.266l0.065-0.299l0.066-0.267l0.065-0.265l0.068-0.266l0.066-0.234l0.065-0.232l0.066-0.23l0.165-0.4l0.134-0.398
				l0.132-0.332c0.066-0.133,0.132-0.265,0.167-0.398c0.1-0.199,0.198-0.398,0.299-0.6h-0.067h-0.166l-0.233,0.035l-0.464,0.1
				c-0.099,0-0.233,0.033-0.333,0.033l-0.165,0.033h-0.134l-0.132-0.033l-0.1-0.033l-0.101-0.033l-0.066-0.033L-84.848,100.308z"/>
			<path fill="#181878" d="M-75.478,99.31l-0.102-0.033l-0.165-0.066l-0.167-0.099l-0.132-0.068l-0.134-0.099l-0.1-0.066
				l-0.099-0.066l-0.068-0.065l-0.099-0.167l-0.033-0.197l0.033-0.234l0.033-0.232l0.033-0.197l0.067-0.168l0.066-0.164
				c0.032-0.168,0.065-0.334,0.099-0.5v-0.168l0.033-0.099l0.033-0.132l0.067-0.066l0.563-0.266l0.2-0.033l0.199-0.033l0.198-0.066
				l0.165-0.065c0.167-0.032,0.299-0.067,0.433-0.134h0.301h0.132l0.167-0.033h0.132l0.132-0.033l0.102-0.033l0.099-0.033
				c0.134-0.1,0.233-0.166,0.366-0.266l0.2-0.134l0.099-0.032l0.033-0.033h0.365l0.267,0.033l0.198,0.032l0.134,0.067l0.065,0.033
				l0.066,0.066v0.066v0.033v0.133l-0.033,0.133l-0.033,0.134l-0.032,0.099c0,0.033-0.033,0.1-0.033,0.133v0.099l-0.033,0.134v0.133
				l-0.035,0.131l-0.032,0.135l-0.033,0.132l-0.066,0.132l-0.033,0.102l-0.065,0.232c-0.068,0.1-0.102,0.198-0.167,0.299
				l-0.033,0.166l-0.066,0.102l-0.065,0.066l-0.066,0.065l-0.067,0.032h-0.033h-0.066l-0.132-0.032h-0.132h-0.102h-0.065
				l-0.066,0.032h-0.065l-0.033,0.033l-0.033,0.033l-0.068,0.068l-0.065,0.066l-0.066,0.033c-0.065,0.032-0.1,0.065-0.167,0.1
				c-0.332,0.164-0.665,0.332-0.963,0.496c-0.166,0.066-0.333,0.135-0.498,0.234l-0.065,0.032l-0.066,0.033l-0.101,0.032h-0.066
				h-0.099h-0.066H-75.478L-75.478,99.31z"/>
			<path fill="#181878" d="M-76.01,99.777l0.099-0.066l0.099-0.066l0.102-0.032h0.1h0.066l0.099,0.032h0.068l0.132,0.033
				c0.033,0,0.066,0,0.099,0h0.102h0.165l0.23-0.065l0.233-0.065l0.232-0.068c0.1-0.033,0.233-0.066,0.365-0.1l0.5-0.197
				l0.165-0.066h0.167l0.132-0.035h0.1l0.101,0.035h0.066l0.065-0.068l0.1-0.033l0.099-0.065l0.134-0.099
				c0.033-0.033,0.066-0.068,0.1-0.102l0.165,0.068l0.067,0.132l0.066,0.132v0.167l0.033,0.132v0.1l-0.033,0.134l-0.066,0.165
				l-0.034,0.099v0.134v0.1v0.099v0.065l0.034,0.068l0.033,0.1v0.099l-0.033,0.101v0.1l-0.067,0.066l-0.066,0.166l-0.066,0.133
				l-0.032,0.033l-0.033,0.067c-0.033,0.033-0.033,0.033-0.066,0.065l-0.101,0.066l-0.033,0.033l-0.065,0.033l-0.066,0.033
				c-0.099,0.035-0.166,0.068-0.266,0.101l-0.231-0.032h-0.099l-0.134,0.032l-0.166,0.065l-0.166,0.1l-0.168,0.066
				c-0.099,0.033-0.197,0.101-0.299,0.134l-0.099,0.032l-0.099,0.033l-0.135,0.033l-0.132,0.033l-0.232,0.1l-0.231,0.098
				c-0.2,0.102-0.366,0.168-0.564,0.267h-0.033l-0.299-0.065l-0.233-0.1l-0.166-0.102l-0.134-0.131l-0.066-0.133l-0.033-0.099
				l-0.032-0.067v-0.066l0.065-0.697v-0.1l0.033-0.102l0.033-0.099l0.035-0.065c0.032-0.066,0.065-0.1,0.099-0.168v-0.066
				l0.033-0.032v-0.065v-0.068v-0.066c0-0.066,0-0.132,0-0.197l0.032-0.102l0.033-0.066L-76.01,99.777z"/>
		</g>
		<g>
			<path fill="#181878" d="M-19.023,90.806c0,0,1.861-0.299,3.39-0.131c0,0,2.525,0.166,3.457,0.598c0,0,0.165,0.166,0.165,0.432
				c0,0,0.299,0.199,0.333,0.297c0,0,0.232,0.467-1.795,1.631c0,0-0.963,0.264-1.295,0.332c0,0-0.466-0.035-1.895-0.068
				c0,0-1.529,0-2.06,0.397c0,0-0.365,0.267-0.863,0.233c0,0-0.832,0.066-0.799-0.863c0,0,0.065-0.932,0.266-1.098
				c0,0,0.398-0.531,0.366-0.764l0.134-0.199l0.165-0.266l0.134-0.332L-19.023,90.806z"/>
			<path fill="#181878" d="M-0.419,114.595c0,0-0.033-0.133-0.231-0.166c0,0-0.134-0.199-0.266-0.633c0,0-0.099-0.164-0.497-0.365
				c-0.366-0.197-2.725-1.526-5.084-2.922c0,0-1.694-1.164-2.026-1.629c0,0-0.964-0.697-0.864-2.725c0,0,0.032-1.062,0.167-1.53
				c0,0,0.065-0.099,0.498-0.065c0,0,0.931,0.133,1.761-0.233c0,0,0.832-0.366,1.562-0.962c0,0,0.165-0.299,0.231-0.432
				c0,0,0.599-0.434,1.131-1.43c0,0,0.332-0.962,0.499-1.761c0,0-0.035-0.167,0.033-0.3c0,0,0.264-0.829-0.2-1.227
				c0,0-0.099-0.201-0.365,0.065c0,0-0.599,0.2-0.764,0.631c0,0-0.167,0.433-0.299,0.099c-0.102-0.397-0.365-0.729-1.264-0.896
				c0,0-0.333-0.035-0.032-0.2c0,0,1.329-0.3,2.492-1.861c0,0,0.863-1.162,0.896-2.59c0,0-0.033-0.398-0.066-0.533
				c0,0-0.364-0.065-0.599,0.565c0,0-0.132,0.198-0.365,0.267c0,0-0.132,0.033-0.332,0.463c0,0-0.167,0.1-0.267-0.232l0.065-0.596
				c0,0,0.068-0.168-0.299-0.5c0,0-0.432-0.432-2.724-0.666c0,0-0.797,0.066-1.361,0.199c0,0-0.599,0.067-0.896,0.101
				c0,0-0.2,0.065-0.632,0.696c0,0-0.1,0.168-0.497,0.135c0,0-0.368,0-0.566,0.529c0,0-0.233,0.531-0.433,0.797
				c0,0-0.1,0.168-0.665-0.032c0,0-2.159-0.3-3.188-0.332c0,0-1.428-0.099-3.156,0.267c0,0-0.765,0.23-1.196,0.332
				c0,0-0.398-0.166-0.563,0.133l-0.134,0.299c0,0-0.166,0.266-0.333,1.029c0,0-0.398,0.365-0.198,1.264
				c0,0,0.498,0.797,0.997,0.599c0,0,0.198-0.099,0.297,0c0,0,0.267-0.065,0.398-0.132c0,0,0.065-0.232,0.167,0.365l0.2,0.297
				c0,0,0.099,0.167-0.102,0.199c0,0-1.359,0.231-1.527,0.498c0,0,0,0.334-0.065,0.365c0-0.066-0.832,0.7-0.565,1.961
				c0,0,0.299,0.799,1.164,0.766c0,0,0.464,0.033,0.696-0.102c0,0-0.066,0.365-0.033,0.5c0,0-0.165,0.563,0.033,1.096l0.099,0.599
				c0,0,0.068,2.092-0.331,3.688c0,0-0.101,0.362,0.133,1.229l0.198,0.365c0,0,0,0.564,0.2,1.029c0,0,0.6,0.996,1.695,0.799
				c0,0,2.326,0,3.457-1.828c0,0,0.465-1.162,0.632-1.594c0,0,0.796-1.496,0.132-3.523l-0.099-0.631v-0.398
				c0.166-0.398,0.197-0.863,0.265-1.429c0,0-0.033-0.499-0.563-0.665c0,0-0.565-0.033-0.699,0.398c0,0-0.066,0.131-0.132,0.631
				l0.065,0.666l0.102,0.464c0,0,0.099,0.299-0.135,0.299c0,0-1.327-0.2-1.693-0.2l-1.229-0.164c-0.034,0.065,0.101-0.6-0.397-1.828
				c0,0-0.068-0.232,0.464-0.299c0,0,0.531-0.232,1.296-0.167c0,0,0.599,0.099,1.096,0c0,0,1.264-0.099,1.429,0.033
				c0.365,0,1.129,0.065,1.361,0.167c0,0,0.533-0.533,0.698-1.096l0.163-0.356c-0.006,0.021-0.012,0.083,0.037,0.257
				c0.065,0.231,0.165,0.365,0.165,0.365s-0.165,0.297,0.067,0.564l0.698,0.496c0,0-0.832,2.66-0.766,5.051
				c0.067,2.427,0.964,3.889,3.19,5.582c0,0,5.281,3.39,6.445,3.488l0.132-0.197l0.2-0.135l0.365-0.1l0.332-0.033l0.198-0.365
				C-0.519,115.226-0.384,114.73-0.419,114.595z M-7.527,95.657c0,0,1.097,0,1.461,0.364c0,0,0.166,0.033,0.033,0.133
				c0,0-0.665,0.498-1.129,0.599l-0.267,0.198c0,0-0.932-0.465-1.264-0.896C-8.691,96.054-8.226,95.689-7.527,95.657z
				 M-8.726,101.339l0.233-0.1c0.499-0.167,1.396-0.066,1.396-0.066c0.564,0,0.397,0.365,0.397,0.365
				c-0.065,0.033-0.166,0.23-0.166,0.23c-0.232,0.332-0.83,0.467-0.83,0.467c-0.532,0.197-0.897,0.132-0.897,0.132
				c0-0.233-0.135-0.132-0.167-0.267C-8.79,102.003-8.726,101.339-8.726,101.339z M-18.062,107.318
				c0.102-0.198,0.135-0.098,0.267-0.198l1.428-0.101c0.299,0.033,0.964-0.033,1.099-0.299l0.266-0.267
				c0.264-0.362,0.432-0.797,0.432-0.797l0.1-0.065c0.065,0.364,0.032,0.862,0.032,0.862c-0.032,0.831-0.299,1.364-0.299,1.364
				c-0.764,0.994-2.425,1.129-2.425,1.129c-0.931,0.132-1.129-0.102-1.129-0.102l-0.167-0.033l0.167-0.363
				c0.066-0.266,0.165-0.932,0.165-0.965L-18.062,107.318z M-15.236,97.652c-0.299,0.929-0.498,0.962-0.498,0.962
				c-0.332,0.065-1.032,0.032-1.032,0.032l-0.23-0.098v-0.201c0.033-0.197-0.101-0.562-0.101-0.562
				c-0.1-0.299-0.066-0.333-0.066-0.333c0.2-0.099,0.665,0.065,0.864-0.099c0.132-0.102,0.73-0.068,0.73-0.068
				c0.233-0.033,0.332,0.068,0.332,0.068C-15.203,97.484-15.236,97.652-15.236,97.652z M-10.485,98.249
				c-0.433,0-0.832,1.129-0.832,1.129s0.033,0.033-0.065-0.032c-0.132-0.066-0.464-0.033-0.464-0.033c-0.2-0.2-0.333-0.2-0.333-0.2
				c-0.964,0-1.197-0.397-1.197-0.397c0.167-0.666,0.729-1.695,0.729-1.695c0.5-0.098,0.665-0.498,0.665-0.498
				c0-0.463,0.268-0.432,0.268-0.432c0.132,0.033,0.266,0.334,0.332,0.631c0.23,0.332,0.464,0.664,0.464,0.664
				c0.5,0.467,0.832,0.631,0.832,0.631C-10.187,98.117-10.353,98.216-10.485,98.249z"/>
		</g>
	</g>
	<g>
		<g>
			<path fill="#181878" d="M-32.888,125.679c0-0.14,0-0.336,0-0.603c-0.011-0.267-0.011-0.474-0.011-0.603
				c0-0.067,0-0.156,0.011-0.285c0-0.129,0-0.227,0-0.285c0-0.364-0.05-0.621-0.147-0.779c-0.139-0.227-0.396-0.334-0.769-0.334
				c-0.198,0-0.396,0.066-0.603,0.195c-0.167,0.119-0.305,0.229-0.414,0.308c-0.03-0.13-0.059-0.257-0.068-0.375
				c0-0.03-0.012-0.051-0.021-0.051s-0.117,0.021-0.334,0.051c-0.216,0.039-0.325,0.06-0.345,0.06c-0.02,0.01-0.04,0.02-0.04,0.039
				c0,0.01,0.01,0.021,0.01,0.039c0.088,0.364,0.139,0.76,0.139,1.184c0,0.156,0,0.404-0.011,0.72c0,0.315-0.01,0.552-0.01,0.71
				c0,0.049,0.031,0.068,0.07,0.068c0.059,0,0.156,0,0.285,0c0.129,0.01,0.217,0.01,0.286,0.01c0.039,0,0.061-0.029,0.061-0.078
				v-1.805c0-0.09,0.088-0.197,0.275-0.314c0.178-0.119,0.315-0.168,0.414-0.168c0.218,0,0.364,0.049,0.444,0.168
				c0.059,0.088,0.098,0.256,0.098,0.481c0,0.079,0,0.198,0,0.354c0,0.168,0,0.285,0,0.365c0,0.098,0,0.246-0.01,0.453
				c0,0.197-0.009,0.346-0.009,0.443c0,0.06,0.019,0.088,0.059,0.088c0.06,0,0.158,0,0.295,0c0.128,0.011,0.228,0.011,0.287,0.011
				C-32.907,125.747-32.888,125.718-32.888,125.679z"/>
			<path fill="#181878" d="M-29.527,123.863c0-0.256,0.011-0.641,0.04-1.162c0.021-0.514,0.03-0.896,0.03-1.163
				c0-0.04-0.021-0.06-0.049-0.06c-0.069,0-0.179,0.01-0.325,0.02c-0.149,0.01-0.257,0.021-0.326,0.021
				c-0.029,0-0.049,0.02-0.049,0.067c0,0.069,0,0.167,0.01,0.306s0.01,0.236,0.01,0.307v0.965c0,0.029-0.01,0.04-0.028,0.051
				c-0.08-0.078-0.168-0.158-0.246-0.229c-0.188-0.146-0.405-0.227-0.661-0.227c-0.415,0-0.75,0.157-1.006,0.465
				c-0.247,0.285-0.375,0.648-0.375,1.074c0,0.412,0.128,0.758,0.375,1.053c0.256,0.307,0.581,0.465,0.986,0.465
				c0.354,0,0.659-0.147,0.936-0.443c0.02-0.029,0.03-0.04,0.049-0.04c0.011,0,0.011,0.069,0.021,0.207
				c0,0.14,0.019,0.208,0.049,0.208s0.068,0,0.129-0.01c0.059,0,0.098-0.012,0.127-0.012c0,0,0.039,0.012,0.117,0.012
				c0.07,0.01,0.129,0.01,0.159,0c0.059,0,0.088-0.021,0.088-0.039l-0.011-0.041C-29.507,125.253-29.527,124.652-29.527,123.863z
				 M-30.413,124.917c-0.159,0.188-0.355,0.286-0.591,0.286c-0.238,0-0.436-0.099-0.592-0.286c-0.158-0.178-0.236-0.385-0.236-0.631
				c0-0.247,0.069-0.463,0.227-0.65c0.158-0.187,0.355-0.285,0.603-0.285c0.236,0,0.423,0.099,0.582,0.297
				c0.146,0.177,0.226,0.393,0.226,0.63C-30.197,124.523-30.276,124.74-30.413,124.917z"/>
			<path fill="#181878" d="M-35.993,123.017c0-0.03-0.079-0.061-0.247-0.101c-0.146-0.028-0.245-0.039-0.295-0.039
				c-0.039,0-0.069,0.06-0.088,0.188c-0.021,0.127-0.039,0.187-0.05,0.187c-0.01,0-0.01,0-0.021-0.01
				c-0.068-0.079-0.118-0.138-0.157-0.177c-0.228-0.207-0.492-0.315-0.788-0.315c-0.436,0-0.779,0.147-1.046,0.453
				c-0.257,0.296-0.385,0.66-0.385,1.104c0,0.395,0.128,0.738,0.385,1.033c0.256,0.315,0.582,0.475,0.967,0.475
				c0.158,0,0.314-0.041,0.473-0.129c0.098-0.051,0.207-0.117,0.325-0.217c0.099-0.078,0.147-0.119,0.168-0.119
				c0.009,0,0.028,0.07,0.049,0.219c0.019,0.139,0.049,0.205,0.088,0.205c0.06,0,0.14-0.01,0.246-0.018
				c0.109-0.011,0.198-0.021,0.247-0.021c0.059,0,0.078-0.029,0.078-0.09v-0.039c-0.049-0.877-0.078-1.33-0.078-1.35
				c0-0.336,0.04-0.73,0.117-1.193C-35.993,123.046-35.993,123.027-35.993,123.017z M-36.969,124.898
				c-0.159,0.188-0.354,0.287-0.593,0.287c-0.235,0-0.434-0.099-0.591-0.276c-0.157-0.188-0.227-0.394-0.227-0.64
				c0-0.237,0.069-0.455,0.227-0.631c0.157-0.188,0.354-0.285,0.591-0.285c0.247,0,0.435,0.098,0.593,0.285
				c0.146,0.176,0.215,0.383,0.215,0.631C-36.754,124.515-36.832,124.72-36.969,124.898z"/>
		</g>
		<g>
			<path fill="#181878" d="M-59.836,121.884c0-0.012-0.01-0.1-0.049-0.258c-0.03-0.167-0.05-0.257-0.05-0.257
				c-0.01-0.019-0.02-0.028-0.039-0.028c-0.209,0-0.404,0.028-0.603,0.108c-0.216,0.089-0.375,0.207-0.481,0.354
				c-0.13,0.156-0.188,0.424-0.188,0.777c0,0.08,0,0.178,0.009,0.307c-0.257,0.021-0.384,0.049-0.384,0.09
				c0,0.039,0,0.106,0.009,0.195c0,0.09,0,0.148,0,0.197c0,0.068,0.012,0.107,0.012,0.107c0.01,0.01,0.077,0.021,0.207,0.021
				c0.127-0.011,0.187,0.021,0.187,0.079v2.068c0,0.061,0.02,0.09,0.08,0.09h0.541c0.041,0,0.06-0.029,0.06-0.078
				c0-0.141,0-0.354-0.01-0.641c-0.009-0.287-0.019-0.494-0.019-0.643v-0.896c0.067,0,0.167,0.01,0.314,0.01
				c0.137,0.011,0.245,0.011,0.315,0.011c0.04,0,0.059-0.021,0.059-0.06c0-0.049,0-0.129-0.01-0.246c0-0.108,0-0.188,0-0.246
				c0-0.039-0.03-0.061-0.079-0.061c-0.069,0-0.178,0-0.315,0c-0.139-0.01-0.246-0.01-0.306-0.01c0-0.434,0.049-0.699,0.137-0.809
				c0.061-0.059,0.148-0.108,0.268-0.118c0.088-0.011,0.188-0.021,0.287-0.029C-59.846,121.923-59.836,121.902-59.836,121.884z"/>
			<path fill="#181878" d="M-62.203,123.204c-0.276-0.295-0.621-0.442-1.024-0.442c-0.414,0-0.759,0.147-1.035,0.442
				c-0.276,0.296-0.414,0.66-0.414,1.075c0,0.424,0.137,0.777,0.414,1.072c0.276,0.308,0.621,0.455,1.035,0.455
				c0.403,0,0.748-0.158,1.034-0.465c0.267-0.296,0.405-0.648,0.405-1.072C-61.789,123.855-61.927,123.5-62.203,123.204z
				 M-62.635,124.908c-0.158,0.179-0.354,0.275-0.593,0.275c-0.235,0-0.433-0.098-0.591-0.275c-0.147-0.178-0.227-0.395-0.227-0.631
				c0-0.246,0.069-0.453,0.227-0.631c0.148-0.178,0.354-0.266,0.591-0.266c0.238,0,0.435,0.088,0.593,0.274
				c0.146,0.168,0.215,0.375,0.215,0.62C-62.419,124.515-62.487,124.73-62.635,124.908z"/>
		</g>
		<g>
			<path fill="#181878" d="M-46.097,125.679c0-0.14-0.011-0.336-0.011-0.603s-0.009-0.474-0.009-0.603
				c0-0.067,0.009-0.156,0.009-0.285s0-0.227,0-0.285c0-0.364-0.049-0.621-0.147-0.779c-0.127-0.227-0.384-0.334-0.749-0.334
				c-0.188,0-0.385,0.066-0.592,0.195c-0.168,0.119-0.296,0.229-0.403,0.308c-0.03-0.13-0.05-0.257-0.062-0.375
				c-0.01-0.03-0.02-0.051-0.028-0.051c-0.01,0-0.118,0.021-0.325,0.051c-0.207,0.039-0.326,0.06-0.335,0.06
				c-0.021,0.01-0.04,0.02-0.04,0.039c0,0.01,0.009,0.021,0.009,0.039c0.089,0.364,0.128,0.76,0.128,1.184c0,0.156,0,0.404,0,0.72
				c-0.01,0.315-0.01,0.552-0.01,0.71c0,0.049,0.021,0.068,0.06,0.068c0.061,0,0.158,0,0.287,0c0.117,0.01,0.217,0.01,0.276,0.01
				c0.04,0,0.059-0.029,0.059-0.078v-1.805c0-0.09,0.088-0.197,0.267-0.314c0.177-0.119,0.314-0.168,0.414-0.168
				c0.208,0,0.354,0.049,0.424,0.168c0.068,0.088,0.099,0.256,0.099,0.481c0,0.079,0,0.198,0,0.354
				c0.01,0.168,0.01,0.285,0.01,0.365c0,0.098-0.01,0.246-0.01,0.453c-0.009,0.197-0.009,0.346-0.009,0.443
				c0,0.06,0.019,0.088,0.049,0.088c0.068,0,0.167,0,0.286,0c0.127,0.011,0.228,0.011,0.296,0.011
				C-46.116,125.747-46.097,125.718-46.097,125.679z"/>
			<path fill="#181878" d="M-55.746,121.785c-0.109-0.09-0.276-0.158-0.493-0.219c-0.207-0.049-0.384-0.077-0.542-0.077
				c-0.364,0-0.661,0.108-0.896,0.325c-0.236,0.227-0.355,0.521-0.355,0.896c0,0.344,0.128,0.62,0.365,0.826
				c0.011,0.01,0.237,0.148,0.681,0.404c0.246,0.146,0.365,0.316,0.365,0.514c0,0.402-0.296,0.602-0.897,0.602
				c-0.05,0-0.129,0-0.217-0.01c-0.098-0.012-0.168-0.021-0.217-0.021c-0.03,0-0.049,0.01-0.049,0.041
				c0,0.02,0.009,0.039,0.009,0.049c0.04,0.128,0.059,0.216,0.079,0.275c0.019,0.147,0.04,0.258,0.05,0.336
				c0.021,0.049,0.128,0.067,0.334,0.067c0.453,0,0.837-0.116,1.145-0.344c0.344-0.267,0.512-0.61,0.512-1.065
				c0-0.354-0.117-0.631-0.374-0.838c-0.04-0.029-0.276-0.156-0.7-0.384c-0.247-0.138-0.375-0.297-0.375-0.474
				c0-0.326,0.178-0.493,0.542-0.493c0.12,0,0.276,0.038,0.463,0.108c0.188,0.068,0.287,0.108,0.287,0.108
				c0.02,0,0.029-0.01,0.04-0.03c0.059-0.117,0.098-0.197,0.117-0.265c0.069-0.129,0.119-0.237,0.159-0.297
				C-55.728,121.804-55.737,121.794-55.746,121.785z"/>
			<path fill="#181878" d="M-43.563,122.947c-0.226-0.148-0.48-0.217-0.748-0.217c-0.414,0-0.75,0.156-1.025,0.463
				c-0.257,0.296-0.396,0.648-0.396,1.074c0,0.424,0.139,0.777,0.404,1.084c0.276,0.306,0.621,0.463,1.017,0.463
				c0.099,0,0.236-0.028,0.424-0.077c0.227-0.06,0.345-0.119,0.345-0.188c0-0.049-0.021-0.156-0.049-0.314
				c-0.03-0.168-0.061-0.246-0.079-0.246c0.01,0-0.04,0.029-0.168,0.1c-0.128,0.068-0.255,0.098-0.383,0.098
				c-0.238,0-0.435-0.088-0.603-0.275c-0.157-0.178-0.235-0.395-0.235-0.641s0.079-0.463,0.235-0.641
				c0.159-0.188,0.364-0.277,0.603-0.277c0.106,0,0.196,0.021,0.285,0.062c0.089,0.039,0.179,0.078,0.267,0.117
				c0.019,0,0.049-0.067,0.098-0.228c0.04-0.146,0.061-0.246,0.061-0.295C-43.513,122.986-43.534,122.966-43.563,122.947z"/>
			<path fill="#181878" d="M-53.293,122.947c-0.228-0.148-0.472-0.217-0.748-0.217c-0.404,0-0.74,0.156-1.016,0.463
				c-0.267,0.296-0.395,0.648-0.395,1.074c0,0.424,0.137,0.777,0.404,1.084c0.275,0.306,0.612,0.463,1.016,0.463
				c0.089,0,0.237-0.028,0.423-0.077c0.228-0.06,0.346-0.119,0.346-0.188c0-0.049-0.021-0.156-0.05-0.314
				c-0.029-0.168-0.06-0.246-0.079-0.246c0.01,0-0.049,0.029-0.168,0.1c-0.128,0.068-0.256,0.098-0.383,0.098
				c-0.237,0-0.442-0.088-0.602-0.275c-0.157-0.178-0.236-0.395-0.236-0.641s0.08-0.463,0.236-0.641
				c0.159-0.188,0.354-0.277,0.602-0.277c0.099,0,0.197,0.021,0.285,0.062c0.088,0.039,0.178,0.078,0.268,0.117
				c0.019,0,0.049-0.067,0.088-0.228c0.049-0.146,0.068-0.246,0.068-0.295C-53.233,122.986-53.253,122.966-53.293,122.947z"/>
			<path fill="#181878" d="M-40.912,124.849c0-0.008-0.01-0.008-0.03-0.008c-0.028,0.027-0.059,0.049-0.098,0.076
				c-0.257,0.208-0.533,0.307-0.838,0.307c-0.188,0-0.354-0.06-0.503-0.178c-0.167-0.117-0.256-0.277-0.286-0.453
				c1.124-0.078,1.725-0.139,1.804-0.179c0.129-0.049,0.188-0.146,0.188-0.295c0-0.386-0.118-0.71-0.355-0.976
				c-0.246-0.276-0.552-0.414-0.916-0.414c-0.395,0-0.729,0.156-0.996,0.473c-0.257,0.307-0.384,0.67-0.384,1.084
				c0,0.464,0.127,0.829,0.404,1.105c0.266,0.285,0.621,0.422,1.075,0.422c0.452,0,0.817-0.157,1.104-0.473
				c0.029-0.029,0.039-0.061,0.039-0.07c0-0.008-0.029-0.078-0.099-0.217C-40.873,124.917-40.902,124.849-40.912,124.849z
				 M-42.468,123.53c0.137-0.147,0.295-0.228,0.481-0.228c0.158,0,0.295,0.068,0.424,0.196c0.128,0.128,0.196,0.276,0.196,0.444
				c0,0.02-0.059,0.039-0.166,0.059c-0.404,0.061-0.75,0.09-1.036,0.09c-0.068,0-0.107-0.021-0.107-0.068
				C-42.676,123.845-42.606,123.677-42.468,123.53z"/>
			<path fill="#181878" d="M-49.318,124.849c0-0.008-0.009-0.008-0.029-0.008c-0.029,0.027-0.06,0.049-0.089,0.076
				c-0.255,0.208-0.542,0.307-0.848,0.307c-0.178,0-0.344-0.06-0.503-0.178c-0.167-0.117-0.256-0.277-0.286-0.453
				c1.124-0.078,1.726-0.139,1.804-0.179c0.13-0.049,0.188-0.146,0.188-0.295c0-0.386-0.118-0.71-0.355-0.976
				c-0.246-0.276-0.552-0.414-0.916-0.414c-0.395,0-0.729,0.156-0.996,0.473c-0.257,0.307-0.384,0.67-0.384,1.084
				c0,0.464,0.138,0.829,0.404,1.105c0.266,0.285,0.63,0.422,1.075,0.422c0.453,0,0.817-0.157,1.104-0.473
				c0.029-0.029,0.049-0.061,0.049-0.07c0-0.008-0.039-0.078-0.109-0.217C-49.279,124.917-49.31,124.849-49.318,124.849z
				 M-50.875,123.53c0.147-0.147,0.306-0.228,0.481-0.228c0.158,0,0.306,0.068,0.425,0.196c0.127,0.128,0.195,0.276,0.195,0.444
				c0,0.02-0.059,0.039-0.167,0.059c-0.403,0.061-0.75,0.09-1.034,0.09c-0.069,0-0.108-0.021-0.108-0.068
				C-51.083,123.845-51.014,123.677-50.875,123.53z"/>
			<g>
				<path fill="#181878" d="M-52.108,122.138c0-0.107-0.039-0.197-0.117-0.267c-0.079-0.078-0.168-0.108-0.277-0.108
					c-0.117,0-0.206,0.03-0.286,0.1c-0.079,0.078-0.128,0.168-0.128,0.275c0,0.246,0.138,0.375,0.414,0.375
					C-52.237,122.513-52.108,122.384-52.108,122.138z"/>
				<path fill="#181878" d="M-52.179,122.898c-0.039,0-0.088,0-0.167,0.012c-0.068,0.02-0.128,0.02-0.158,0.02
					c-0.04,0-0.099,0-0.167-0.02c-0.079-0.012-0.129-0.012-0.167-0.012c-0.039,0-0.061,0.021-0.061,0.05
					c0,0.157,0.011,0.396,0.039,0.71c0.021,0.307,0.03,0.542,0.03,0.699c0,0.139,0,0.346-0.01,0.632
					c-0.011,0.274-0.011,0.481-0.011,0.62c0,0.078,0.021,0.117,0.06,0.117h0.571c0.029,0,0.049-0.019,0.049-0.059
					c0-0.148,0-0.363-0.01-0.65c0-0.295-0.01-0.512-0.01-0.66c0-0.157,0.01-0.395,0.03-0.7c0.021-0.313,0.03-0.552,0.03-0.698
					C-52.128,122.918-52.147,122.898-52.179,122.898z"/>
			</g>
		</g>
		<g>
			<path fill="#181878" d="M-80.897,125.658c0-0.217,0-0.542-0.02-0.986c-0.02-0.443-0.03-0.769-0.03-0.994
				c0-0.227,0.011-0.572,0.03-1.035c0.01-0.463,0.02-0.809,0.02-1.045c0-0.039-0.028-0.068-0.078-0.068c-0.061,0-0.158,0-0.297-0.01
				c-0.128-0.01-0.235-0.01-0.295-0.01c-0.039,0-0.068,0.039-0.099,0.117c-0.472,1.271-0.837,2.237-1.104,2.889
				c-0.06,0.156-0.098,0.246-0.117,0.246s-0.068-0.1-0.147-0.295c-0.337-0.839-0.74-1.793-1.212-2.859
				c-0.041-0.088-0.061-0.127-0.08-0.127c-0.137,0-0.334,0.021-0.601,0.06c-0.05,0-0.069,0.028-0.069,0.06
				c0,0.235,0.01,0.58,0.03,1.043c0.02,0.463,0.029,0.81,0.029,1.035c0,0.229-0.01,0.562-0.029,1.006
				c-0.021,0.443-0.03,0.779-0.03,0.996c0,0.039,0.03,0.06,0.079,0.06c0.03,0,0.08,0,0.147-0.011c0.069,0,0.129-0.01,0.158-0.01
				c0.04,0,0.089,0.01,0.158,0.01c0.069,0.011,0.118,0.011,0.148,0.011c0.049,0,0.068-0.029,0.068-0.101c0-0.254,0-0.649-0.01-1.162
				c-0.011-0.521-0.011-0.905-0.011-1.162c0-0.029,0.011-0.061,0.021-0.069c0.02,0.011,0.03,0.03,0.04,0.04
				c0.334,0.788,0.582,1.379,0.749,1.773c0.118,0.295,0.216,0.521,0.276,0.689c0.02,0.029,0.119,0.049,0.306,0.049
				c0.127,0,0.197-0.01,0.207-0.039c0.118-0.275,0.208-0.502,0.266-0.68c0.364-0.957,0.602-1.539,0.7-1.755
				c0.009-0.021,0.02-0.029,0.039-0.029c0.021,0,0.029,0.021,0.029,0.05c0,0.256-0.009,0.641-0.029,1.152
				c-0.01,0.503-0.02,0.889-0.02,1.143c0,0.069,0.02,0.101,0.068,0.101c0.039,0,0.089,0,0.158-0.011c0.079,0,0.128-0.01,0.167-0.01
				c0.03,0,0.089,0.01,0.158,0.01c0.069,0.011,0.118,0.011,0.159,0.011C-80.916,125.737-80.897,125.708-80.897,125.658z"/>
			<path fill="#181878" d="M-76.394,125.679c0-0.14,0-0.336-0.011-0.603c0-0.267,0-0.474,0-0.603c0-0.067,0-0.156,0-0.285
				s0.011-0.227,0.011-0.285c0-0.364-0.05-0.621-0.159-0.779c-0.128-0.227-0.374-0.334-0.748-0.334
				c-0.188,0-0.384,0.066-0.593,0.195c-0.157,0.119-0.295,0.229-0.393,0.308c-0.039-0.13-0.061-0.257-0.07-0.375
				c0-0.03-0.009-0.051-0.019-0.051s-0.118,0.021-0.335,0.051c-0.206,0.039-0.315,0.06-0.334,0.06c-0.021,0.01-0.03,0.02-0.03,0.039
				c0,0.01,0,0.021,0,0.039c0.088,0.364,0.137,0.76,0.137,1.184c0,0.156,0,0.404-0.01,0.72c0,0.315-0.009,0.552-0.009,0.71
				c0,0.049,0.019,0.068,0.06,0.068c0.069,0,0.158,0,0.286,0c0.127,0.01,0.216,0.01,0.276,0.01c0.039,0,0.06-0.029,0.06-0.078
				v-1.805c0-0.09,0.088-0.197,0.276-0.314c0.167-0.119,0.306-0.168,0.404-0.168c0.208,0,0.354,0.049,0.434,0.168
				c0.06,0.088,0.099,0.256,0.099,0.481c0,0.079,0,0.198,0,0.354c0,0.168,0,0.285,0,0.365c0,0.098,0,0.246-0.01,0.453
				c0,0.197-0.011,0.346-0.011,0.443c0,0.06,0.021,0.088,0.06,0.088c0.06,0,0.156,0,0.285,0c0.128,0.011,0.217,0.011,0.286,0.011
				C-76.415,125.747-76.394,125.718-76.394,125.679z"/>
			<path fill="#181878" d="M-66.342,122.905c-0.061,0-0.158,0.01-0.276,0.021c-0.129,0.01-0.227,0.01-0.286,0.01
				c-0.03,0-0.049,0.029-0.049,0.08c0,0.059,0.01,0.137,0.019,0.256c0.011,0.107,0.02,0.195,0.02,0.256
				c0,0.266-0.009,0.443-0.02,0.543c-0.019,0.068-0.107,0.256-0.285,0.552c-0.179,0.295-0.287,0.454-0.315,0.454
				c-0.05,0-0.168-0.159-0.376-0.454c-0.196-0.306-0.305-0.493-0.314-0.571c-0.02-0.119-0.02-0.307-0.02-0.553
				c0-0.049,0-0.139,0.01-0.247c0-0.116,0-0.196,0-0.255c0-0.04-0.01-0.061-0.04-0.061c-0.067,0-0.157-0.01-0.275-0.021
				c-0.128,0-0.218-0.01-0.276-0.01c-0.049,0-0.069,0.021-0.069,0.067c0,0.08,0,0.198-0.01,0.348c0,0.156,0,0.267,0,0.345
				c0,0.315,0.01,0.513,0.04,0.593c0.04,0.098,0.208,0.354,0.503,0.737c0.276,0.375,0.424,0.581,0.424,0.64
				c0,0.041-0.039,0.119-0.107,0.229c-0.068,0.119-0.129,0.188-0.158,0.217c-0.109,0.061-0.267,0.089-0.482,0.089
				c-0.1,0-0.157,0.029-0.157,0.069c0,0.029,0.028,0.107,0.078,0.236c0.05,0.139,0.089,0.207,0.099,0.227
				c0.02,0.01,0.05,0.01,0.099,0.01c0.424,0,0.681-0.027,0.749-0.107c0.089-0.08,0.365-0.475,0.818-1.162
				c0.454-0.701,0.7-1.096,0.719-1.184c0.021-0.068,0.03-0.275,0.03-0.611C-66.253,123.152-66.283,122.905-66.342,122.905z"/>
			<path fill="#181878" d="M-71.151,125.126c-0.06,0-0.137,0.02-0.256,0.049c-0.118,0.021-0.207,0.039-0.267,0.039
				c-0.147,0-0.246-0.06-0.284-0.156c-0.041-0.069-0.05-0.188-0.05-0.365v-0.443c0-0.256,0-0.463,0.01-0.602
				c0.009-0.118,0.019-0.168,0.041-0.168c0.078,0,0.196,0,0.354,0.01c0.156,0.011,0.275,0.021,0.344,0.021
				c0.06,0,0.088-0.021,0.088-0.06c0-0.03,0-0.079-0.009-0.14c0-0.059,0-0.107,0-0.139c0-0.027,0.009-0.066,0.009-0.117
				c0.01-0.049,0.01-0.088,0.01-0.119c0-0.02-0.01-0.027-0.049-0.027h-0.699c-0.049,0-0.08-0.03-0.08-0.09
				c0-0.088,0.01-0.227,0.021-0.402c0.011-0.169,0.02-0.307,0.02-0.396c0-0.039-0.02-0.06-0.07-0.068
				c-0.344-0.059-0.53-0.088-0.541-0.088c-0.06,0-0.089,0.068-0.089,0.217c0,0.089,0.012,0.207,0.012,0.374
				c0.009,0.157,0.009,0.286,0.009,0.364s-0.049,0.117-0.137,0.129c-0.05,0-0.088,0-0.14,0c-0.06,0.011-0.088,0.039-0.099,0.089
				c-0.009,0.06-0.009,0.118-0.009,0.177c0,0.158,0.02,0.237,0.06,0.247c0.068,0.011,0.148,0.011,0.216,0.011
				c0.079,0,0.118,0.049,0.118,0.129c0,0.166,0,0.422-0.01,0.768c-0.009,0.346-0.009,0.602-0.009,0.77
				c0,0.424,0.227,0.641,0.681,0.641c0.344,0,0.591-0.039,0.748-0.117c0.03-0.02,0.049-0.029,0.06-0.04
				c0-0.011,0.01-0.04,0.01-0.069s0.01-0.089,0.02-0.187c0-0.08,0.01-0.14,0.01-0.179S-71.122,125.126-71.151,125.126z"/>
			<path fill="#181878" d="M-69.259,122.849c-0.118,0-0.217,0.01-0.286,0.039c-0.099,0.021-0.188,0.061-0.276,0.119
				c-0.078,0.049-0.156,0.107-0.234,0.156h-0.01c-0.03,0-0.05-0.059-0.06-0.177c-0.01-0.119-0.03-0.179-0.06-0.179
				c0.021,0-0.079,0.021-0.286,0.069c-0.138,0.011-0.236,0.021-0.307,0.029c-0.029,0.01-0.039,0.03-0.039,0.05
				c0,0.01,0,0.021,0,0.039c0.099,0.307,0.138,0.7,0.138,1.193c0,0.166,0,0.412-0.011,0.738c0,0.324,0,0.571,0,0.729
				c0,0.049,0.021,0.078,0.061,0.078c0.069,0,0.157,0,0.275,0c0.128,0.011,0.217,0.011,0.276,0.011c0.05,0,0.069-0.028,0.069-0.089
				c0-0.107-0.011-0.275-0.011-0.504c-0.01-0.235-0.021-0.402-0.021-0.512v-0.336c0-0.275,0.021-0.453,0.06-0.541
				c0.068-0.139,0.228-0.207,0.473-0.207c0.041,0,0.109,0,0.188,0.01c0.089,0.011,0.148,0.021,0.188,0.021
				c0.028,0,0.049-0.028,0.059-0.067c0.03-0.188,0.04-0.387,0.04-0.612C-69.032,122.868-69.101,122.849-69.259,122.849z"/>
			<path fill="#181878" d="M-73.4,124.209c-0.059-0.06-0.207-0.157-0.442-0.295c-0.158-0.09-0.236-0.179-0.236-0.267
				c0-0.129,0.079-0.219,0.227-0.258c0.129-0.02,0.246-0.029,0.375-0.049c0.039-0.01,0.059-0.02,0.059-0.039
				c0-0.029-0.02-0.119-0.059-0.246c-0.039-0.139-0.06-0.228-0.068-0.248c-0.021-0.027-0.04-0.039-0.061-0.039
				c-0.306,0-0.561,0.07-0.759,0.228c-0.216,0.168-0.325,0.403-0.325,0.7c0,0.236,0.079,0.412,0.236,0.562
				c0.039,0.028,0.197,0.127,0.454,0.275c0.167,0.088,0.246,0.186,0.246,0.295c0,0.236-0.188,0.354-0.552,0.354
				c0,0-0.03,0-0.088-0.01c-0.05-0.01-0.079-0.01-0.108,0c-0.04,0.01-0.05,0.03-0.05,0.049c0,0.041,0,0.109,0.011,0.197
				c0.01,0.09,0.02,0.158,0.02,0.197c0,0.08,0.021,0.129,0.05,0.148c0.02,0.008,0.078,0.008,0.195,0.008
				c0.307,0,0.562-0.076,0.77-0.245c0.228-0.177,0.345-0.425,0.345-0.72C-73.164,124.564-73.243,124.367-73.4,124.209z"/>
			<g>
				<path fill="#181878" d="M-75.084,122.138c0-0.107-0.039-0.197-0.118-0.267c-0.079-0.078-0.167-0.108-0.277-0.108
					c-0.116,0-0.205,0.03-0.285,0.1c-0.079,0.078-0.129,0.168-0.129,0.275c0,0.246,0.139,0.375,0.414,0.375
					C-75.213,122.513-75.084,122.384-75.084,122.138z"/>
				<path fill="#181878" d="M-75.154,122.898c-0.039,0-0.088,0-0.167,0.012c-0.067,0.02-0.128,0.02-0.158,0.02
					c-0.039,0-0.098,0-0.167-0.02c-0.079-0.012-0.129-0.012-0.167-0.012c-0.039,0-0.06,0.021-0.06,0.05
					c0,0.157,0.01,0.396,0.039,0.71c0.021,0.307,0.03,0.542,0.03,0.699c0,0.139,0,0.346-0.011,0.632
					c-0.011,0.274-0.011,0.481-0.011,0.62c0,0.078,0.021,0.117,0.061,0.117h0.57c0.03,0,0.049-0.019,0.049-0.059
					c0-0.148,0-0.363-0.01-0.65c0-0.295-0.009-0.512-0.009-0.66c0-0.157,0.009-0.395,0.03-0.7c0.02-0.313,0.029-0.552,0.029-0.698
					C-75.104,122.918-75.123,122.898-75.154,122.898z"/>
			</g>
			<g>
				<path fill="#181878" d="M-79.519,122.138c0-0.107-0.041-0.197-0.118-0.267c-0.079-0.078-0.178-0.108-0.287-0.108
					c-0.107,0-0.205,0.03-0.275,0.1c-0.089,0.078-0.128,0.168-0.128,0.275c0,0.246,0.137,0.375,0.403,0.375
					C-79.658,122.513-79.519,122.384-79.519,122.138z"/>
				<path fill="#181878" d="M-79.601,122.898c-0.029,0-0.088,0-0.157,0.012c-0.078,0.02-0.128,0.02-0.167,0.02s-0.088,0-0.167-0.02
					c-0.069-0.012-0.129-0.012-0.158-0.012c-0.04,0-0.06,0.021-0.06,0.05c0,0.157,0.01,0.396,0.029,0.71
					c0.021,0.307,0.03,0.542,0.03,0.699c0,0.139,0,0.346-0.01,0.632c0,0.274-0.011,0.481-0.011,0.62
					c0,0.078,0.021,0.117,0.069,0.117h0.562c0.039,0,0.059-0.019,0.059-0.059c0-0.148-0.01-0.363-0.01-0.65
					c-0.011-0.295-0.011-0.512-0.011-0.66c0-0.157,0.011-0.395,0.03-0.7c0.021-0.313,0.021-0.552,0.021-0.698
					C-79.55,122.918-79.56,122.898-79.601,122.898z"/>
			</g>
		</g>
		<g>
			<path fill="#181878" d="M-24.846,122.091c0-0.029,0-0.08-0.011-0.13c0-0.06-0.01-0.098-0.01-0.116c0-0.219,0.01-0.315,0.01-0.297
				c-0.01-0.039-0.029-0.059-0.088-0.059c0.06,0-0.068,0.009-0.375,0.027c-0.442,0.039-0.758,0.051-0.956,0.051
				c-0.217,0-0.67-0.02-1.359-0.061l-0.029-0.009c-0.031,0-0.041,0.019-0.05,0.039c-0.03,0.128-0.04,0.228-0.049,0.295
				c0,0.021-0.012,0.069-0.03,0.157c-0.021,0.07-0.03,0.119-0.03,0.158c0,0.021,0.009,0.029,0.04,0.029
				c0.228,0,0.602-0.02,1.094-0.05c0.03,0.621,0.04,1.114,0.04,1.47c0,0.228-0.01,0.57-0.028,1.035
				c-0.021,0.452-0.03,0.799-0.03,1.024c0,0.049,0.03,0.077,0.068,0.077c0.039,0,0.088,0,0.168-0.01c0.068,0,0.119-0.01,0.157-0.01
				c0.04,0,0.089,0.01,0.167,0.01c0.069,0.01,0.118,0.01,0.158,0.01c0.06,0,0.079-0.02,0.079-0.059c0-0.236,0-0.582-0.02-1.045
				c-0.021-0.453-0.029-0.808-0.029-1.033c0-0.365,0.009-0.858,0.029-1.471c0.63,0.021,0.977,0.03,1.034,0.03
				C-24.865,122.16-24.846,122.14-24.846,122.091z"/>
			<path fill="#181878" d="M-13.54,125.679c0-0.14,0-0.336,0-0.603c-0.009-0.267-0.009-0.474-0.009-0.603
				c0-0.067,0-0.156,0.009-0.285c0-0.129,0-0.227,0-0.285c0-0.364-0.049-0.621-0.147-0.779c-0.139-0.227-0.385-0.334-0.749-0.334
				c-0.188,0-0.395,0.066-0.591,0.195c-0.168,0.119-0.306,0.229-0.403,0.308c-0.03-0.13-0.062-0.257-0.07-0.375
				c0-0.03-0.01-0.051-0.021-0.051c-0.009,0-0.117,0.021-0.324,0.051c-0.207,0.039-0.326,0.06-0.335,0.06
				c-0.03,0.01-0.04,0.02-0.04,0.039c0,0.01,0,0.021,0.009,0.039c0.089,0.364,0.128,0.76,0.128,1.184c0,0.156,0,0.404-0.009,0.72
				c0,0.315,0,0.552,0,0.71c0,0.049,0.02,0.068,0.06,0.068c0.061,0,0.158,0,0.276,0c0.128,0.01,0.216,0.01,0.287,0.01
				c0.04,0,0.049-0.029,0.049-0.078v-1.805c0-0.09,0.098-0.197,0.274-0.314c0.178-0.119,0.307-0.168,0.404-0.168
				c0.217,0,0.354,0.049,0.433,0.168c0.069,0.088,0.1,0.256,0.1,0.481c0,0.079,0,0.198,0,0.354c0,0.168,0.01,0.285,0.01,0.365
				c0,0.098-0.01,0.246-0.01,0.453c-0.01,0.197-0.01,0.346-0.01,0.443c0,0.06,0.02,0.088,0.049,0.088c0.067,0,0.157,0,0.286,0
				c0.128,0.011,0.227,0.011,0.284,0.011C-13.56,125.747-13.54,125.718-13.54,125.679z"/>
			<path fill="#181878" d="M-0.076,122.905c-0.069,0-0.158,0.01-0.286,0.021c-0.129,0.01-0.217,0.01-0.286,0.01
				c-0.029,0-0.04,0.029-0.04,0.08c0,0.059,0,0.137,0.021,0.256c0.009,0.107,0.009,0.195,0.009,0.256
				c0,0.266-0.009,0.443-0.019,0.543c-0.011,0.068-0.108,0.256-0.286,0.552c-0.179,0.295-0.276,0.454-0.315,0.454
				c-0.04,0-0.168-0.159-0.365-0.454c-0.207-0.306-0.306-0.493-0.325-0.571c-0.01-0.119-0.02-0.307-0.02-0.553
				c0-0.049,0-0.139,0.009-0.247c0-0.116,0.01-0.196,0.01-0.255c0-0.04-0.02-0.061-0.05-0.061c-0.059,0-0.156-0.01-0.275-0.021
				c-0.118,0-0.217-0.01-0.276-0.01c-0.049,0-0.069,0.021-0.069,0.067c0,0.08,0,0.198,0,0.348c-0.01,0.156-0.01,0.267-0.01,0.345
				c0,0.315,0.021,0.513,0.049,0.593c0.03,0.098,0.198,0.354,0.493,0.737c0.287,0.375,0.424,0.581,0.424,0.64
				c0,0.041-0.04,0.119-0.108,0.229c-0.068,0.119-0.118,0.188-0.158,0.217c-0.098,0.061-0.267,0.089-0.482,0.089
				c-0.099,0-0.147,0.029-0.147,0.069c0,0.029,0.019,0.107,0.067,0.236c0.062,0.139,0.09,0.207,0.11,0.227
				c0.01,0.01,0.04,0.01,0.088,0.01c0.425,0,0.681-0.027,0.759-0.107s0.354-0.475,0.809-1.162c0.463-0.701,0.7-1.096,0.729-1.184
				c0.01-0.068,0.02-0.275,0.02-0.611C0.002,123.152-0.017,122.905-0.076,122.905z"/>
			<path fill="#181878" d="M-16.665,125.63c0-0.119-0.01-0.316-0.01-0.572c0-0.248,0-0.444,0-0.572c0-0.059,0-0.157,0-0.285
				c0-0.129,0-0.229,0-0.286c0-0.354-0.049-0.621-0.149-0.789c-0.137-0.217-0.383-0.334-0.748-0.334
				c-0.217,0-0.415,0.06-0.612,0.188c-0.156,0.117-0.284,0.226-0.384,0.314c-0.011-0.011-0.021-0.029-0.021-0.078
				c0-0.189,0.01-0.476,0.021-0.85c0.021-0.374,0.021-0.661,0.021-0.848c0-0.039-0.009-0.06-0.041-0.06
				c-0.029,0-0.088,0.011-0.177,0.021c-0.079,0.02-0.14,0.029-0.179,0.029c-0.187,0-0.295,0-0.334,0.01
				c-0.021,0.01-0.029,0.029-0.029,0.068c0,0.01,0,0.02,0,0.049c0.029,0.465,0.049,0.818,0.049,1.055
				c0.029,0.77,0.04,1.273,0.04,1.51v1.458c0,0.05,0.029,0.079,0.069,0.079c0.06,0,0.147,0,0.275,0
				c0.118,0.01,0.207,0.01,0.266,0.01c0.04,0,0.061-0.029,0.061-0.089v-1.783c0-0.101,0.098-0.208,0.274-0.325
				c0.179-0.119,0.316-0.168,0.426-0.168c0.334,0,0.492,0.178,0.492,0.543c0,0.088,0.011,0.236,0.011,0.424
				c0.009,0.188,0.009,0.324,0.009,0.414c0,0.098,0,0.246-0.009,0.442c0,0.188-0.011,0.335-0.011,0.435
				c0,0.068,0.029,0.099,0.078,0.099c0.061,0,0.148,0,0.276,0c0.118,0.01,0.207,0.01,0.267,0.01
				C-16.687,125.747-16.665,125.708-16.665,125.63z"/>
			<path fill="#181878" d="M-19.642,122.947c-0.228-0.148-0.473-0.217-0.738-0.217c-0.415,0-0.75,0.156-1.026,0.463
				c-0.267,0.296-0.394,0.648-0.394,1.074c0,0.424,0.137,0.777,0.402,1.084c0.276,0.306,0.611,0.463,1.018,0.463
				c0.088,0,0.236-0.028,0.423-0.077c0.227-0.06,0.345-0.119,0.345-0.188c0-0.049-0.021-0.156-0.049-0.314
				c-0.03-0.168-0.06-0.246-0.079-0.246c0.01,0-0.04,0.029-0.168,0.1c-0.128,0.068-0.256,0.098-0.383,0.098
				c-0.238,0-0.435-0.088-0.603-0.275c-0.155-0.178-0.235-0.395-0.235-0.641s0.08-0.463,0.235-0.641
				c0.159-0.188,0.355-0.277,0.603-0.277c0.098,0,0.197,0.021,0.286,0.062c0.088,0.039,0.178,0.078,0.266,0.117
				c0.02,0,0.049-0.067,0.088-0.228c0.049-0.146,0.069-0.246,0.069-0.295C-19.582,122.986-19.603,122.966-19.642,122.947z"/>
			<path fill="#181878" d="M-10.74,123.204c-0.276-0.295-0.61-0.442-1.014-0.442c-0.396,0-0.74,0.147-1.017,0.442
				c-0.267,0.296-0.394,0.66-0.394,1.075c0,0.424,0.127,0.777,0.394,1.072c0.276,0.308,0.611,0.455,1.017,0.455
				c0.403,0,0.748-0.158,1.014-0.465c0.268-0.296,0.404-0.648,0.404-1.072C-10.336,123.855-10.474,123.5-10.74,123.204z
				 M-11.174,124.908c-0.148,0.179-0.347,0.275-0.582,0.275c-0.228,0-0.415-0.098-0.572-0.275c-0.147-0.178-0.227-0.395-0.227-0.631
				c0-0.246,0.079-0.453,0.227-0.631c0.148-0.178,0.345-0.266,0.572-0.266c0.235,0,0.434,0.088,0.582,0.274
				c0.146,0.168,0.216,0.375,0.216,0.62C-10.957,124.515-11.026,124.73-11.174,124.908z"/>
			<path fill="#181878" d="M-6.374,123.204c-0.266-0.295-0.602-0.442-1.004-0.442c-0.405,0-0.74,0.147-1.018,0.442
				c-0.266,0.296-0.402,0.66-0.402,1.075c0,0.424,0.137,0.777,0.402,1.072c0.276,0.308,0.612,0.455,1.018,0.455
				c0.404,0,0.738-0.158,1.014-0.465c0.267-0.296,0.395-0.648,0.395-1.072C-5.971,123.855-6.099,123.5-6.374,123.204z
				 M-6.797,124.908c-0.159,0.179-0.356,0.275-0.582,0.275c-0.228,0-0.424-0.098-0.582-0.275c-0.148-0.178-0.217-0.395-0.217-0.631
				c0-0.246,0.068-0.453,0.217-0.631c0.158-0.178,0.345-0.266,0.582-0.266c0.235,0,0.423,0.088,0.582,0.274
				c0.137,0.168,0.216,0.375,0.216,0.62C-6.581,124.515-6.66,124.73-6.797,124.908z"/>
			<g>
				<path fill="#181878" d="M-5.428,126.193L-5.428,126.193C-5.429,126.193-5.428,126.193-5.428,126.193z"/>
				<path fill="#181878" d="M-3.023,122.861c-0.021-0.01-0.128-0.03-0.314-0.069c-0.188-0.04-0.296-0.06-0.315-0.06
					s-0.039,0.06-0.039,0.178c0,0.029,0.01,0.079,0.01,0.128c0,0.06,0.01,0.099,0.01,0.129c0,0.039-0.01,0.06-0.029,0.06
					c-0.011,0-0.03-0.03-0.069-0.068c-0.188-0.258-0.443-0.387-0.759-0.387c-0.365,0-0.661,0.148-0.888,0.436
					c-0.216,0.268-0.325,0.592-0.325,0.965c0,0.374,0.118,0.69,0.335,0.946c0.236,0.276,0.532,0.405,0.886,0.405
					c0.336,0,0.612-0.139,0.829-0.405c0,0.147,0.011,0.235,0.011,0.287c0,0.188-0.079,0.334-0.219,0.435
					c-0.127,0.088-0.285,0.127-0.481,0.127c-0.295,0-0.591-0.089-0.877-0.258c-0.021-0.009-0.029-0.02-0.041-0.02
					c-0.02,0-0.039,0.02-0.039,0.06c-0.057,0.302-0.086,0.45-0.088,0.444c0.001,0.021,0.021,0.039,0.068,0.068
					c0.268,0.178,0.621,0.256,1.064,0.256c0.463,0,0.79-0.117,0.996-0.354c0.207-0.228,0.305-0.581,0.305-1.056
					c0-0.245,0-0.6,0-1.082c0.011-0.483,0.011-0.85,0.011-1.086C-2.983,122.89-3.004,122.87-3.023,122.861z M-3.871,124.743
					c-0.128,0.167-0.306,0.256-0.503,0.256c-0.216,0-0.384-0.089-0.512-0.256c-0.118-0.157-0.179-0.345-0.179-0.572
					c0-0.217,0.061-0.403,0.179-0.562c0.128-0.178,0.296-0.266,0.512-0.266c0.207,0,0.375,0.088,0.513,0.256
					c0.118,0.158,0.179,0.354,0.179,0.571C-3.685,124.398-3.743,124.585-3.871,124.743z"/>
			</g>
			<path fill="#181878" d="M-22.264,124.849c0-0.008-0.01-0.008-0.03-0.008c-0.029,0.027-0.059,0.049-0.098,0.076
				c-0.257,0.208-0.532,0.307-0.839,0.307c-0.188,0-0.354-0.06-0.503-0.178c-0.167-0.117-0.256-0.277-0.285-0.453
				c1.123-0.078,1.725-0.139,1.804-0.179c0.128-0.049,0.188-0.146,0.188-0.295c0-0.386-0.118-0.71-0.354-0.976
				c-0.246-0.276-0.553-0.414-0.916-0.414c-0.396,0-0.73,0.156-0.996,0.473c-0.257,0.307-0.385,0.67-0.385,1.084
				c0,0.464,0.128,0.829,0.403,1.105c0.268,0.285,0.621,0.422,1.075,0.422c0.453,0,0.818-0.157,1.104-0.473
				c0.028-0.029,0.049-0.061,0.049-0.07c0-0.008-0.04-0.078-0.11-0.217C-22.224,124.917-22.254,124.849-22.264,124.849z
				 M-23.819,123.53c0.138-0.147,0.307-0.228,0.483-0.228c0.157,0,0.295,0.068,0.424,0.196c0.128,0.128,0.196,0.276,0.196,0.444
				c0,0.02-0.06,0.039-0.167,0.059c-0.404,0.061-0.75,0.09-1.035,0.09c-0.069,0-0.108-0.021-0.108-0.068
				C-24.026,123.845-23.957,123.677-23.819,123.53z"/>
			<path fill="#181878" d="M-9.242,121.519c-0.03,0-0.088,0-0.158,0.011c-0.067,0-0.129,0.01-0.157,0.01
				c-0.04,0-0.089-0.01-0.158-0.01c-0.079-0.011-0.129-0.011-0.158-0.011c-0.049,0-0.069,0.021-0.069,0.06
				c0,0.218,0.01,0.542,0.03,0.976c0.03,0.435,0.039,0.76,0.039,0.978c0,0.235-0.009,0.591-0.009,1.073
				c0,0.475-0.011,0.828-0.011,1.064c0,0.049,0.02,0.068,0.06,0.068h0.552c0.03,0,0.049-0.02,0.049-0.068
				c0-0.236,0-0.591-0.01-1.064c-0.01-0.482-0.01-0.838-0.01-1.073c0-0.543,0.02-1.183,0.06-1.923v-0.039
				C-9.183,121.539-9.203,121.519-9.242,121.519z"/>
		</g>
	</g>
</g>
</svg>
