<?xml version="1.0" encoding="utf-8"?>
<!-- Generator: Adobe Illustrator 16.0.0, SVG Export Plug-In . SVG Version: 6.00 Build 0)  -->
<!DOCTYPE svg PUBLIC "-//W3C//DTD SVG 1.1//EN" "http://www.w3.org/Graphics/SVG/1.1/DTD/svg11.dtd">
<svg version="1.1" id="Layer_1" xmlns="http://www.w3.org/2000/svg" xmlns:xlink="http://www.w3.org/1999/xlink" x="0px" y="0px"
	 width="85.057px" height="78.875px" viewBox="0 0 85.057 78.875" enable-background="new 0 0 85.057 78.875" xml:space="preserve">
<path fill="#B16F0C" d="M85.052,32.596c-0.124,0.514-0.177,1.042-0.316,1.555c-0.685,2.514-1.952,4.625-4.171,6.086
	c-0.225,0.147-0.47,0.267-0.694,0.415c-0.145,0.096-0.224,0.053-0.322-0.068c-0.792-0.968-1.396-2.042-1.819-3.217
	c-0.396-1.102-0.585-2.239-0.538-3.413c0.021-0.552,0.121-1.09,0.227-1.629c0.05-0.252,0.165-0.123,0.26-0.044
	c1.244,1.033,2.22,2.26,2.747,3.81c0.013,0.04,0.029,0.079,0.057,0.154c0.312-0.366,0.6-0.72,0.903-1.059
	c0.968-1.075,2.02-2.047,3.348-2.67c0.104-0.048,0.202-0.107,0.322-0.075C85.052,32.491,85.052,32.543,85.052,32.596z"/>
<path fill="#B16F0C" d="M0.052,32.438c0.334,0.021,0.597,0.214,0.869,0.374c1.368,0.801,2.439,1.928,3.432,3.141
	c0.062,0.074,0.12,0.149,0.18,0.225c0.016,0.021,0.028,0.043,0.062,0.094c0.194-0.561,0.406-1.073,0.691-1.551
	c0.558-0.938,1.271-1.74,2.109-2.438c0.184-0.152,0.238-0.123,0.288,0.096c0.33,1.451,0.287,2.892-0.117,4.321
	c-0.4,1.419-1.081,2.695-1.999,3.848c-0.125,0.158-0.214,0.186-0.403,0.08c-2.313-1.271-3.752-3.243-4.582-5.703
	c-0.229-0.677-0.399-1.37-0.488-2.081c-0.004-0.032-0.027-0.061-0.042-0.091C0.052,32.648,0.052,32.543,0.052,32.438z"/>
<path fill="#B16F0C" d="M47.479,78.869c-0.132-0.445-0.38-0.836-0.578-1.25c-0.645-1.345-1.305-2.682-2.025-3.984
	c-0.121-0.221-0.29-0.413-0.432-0.622c-0.092-0.138-0.189-0.272-0.258-0.423c-0.233-0.514-0.043-0.799,0.528-0.807
	c1.008-0.013,1.961,0.176,2.797,0.776c0.497,0.356,0.831,0.862,1.173,1.354c0.915,1.319,1.699,2.719,2.466,4.127
	c0.042,0.076,0.108,0.172,0.031,0.236c-0.069,0.059-0.138-0.039-0.196-0.083c-0.591-0.446-1.186-0.888-1.827-1.26
	c-0.234-0.136-0.477-0.255-0.733-0.337c-0.313-0.102-0.466-0.027-0.608,0.266c-0.198,0.411-0.22,0.858-0.268,1.299
	c-0.025,0.233-0.013,0.471-0.017,0.707C47.513,78.869,47.496,78.869,47.479,78.869z"/>
<path fill="#0960A7" d="M46.168,0.052c0.414,0.131,0.85,0.136,1.273,0.206c0.919,0.151,1.83,0.333,2.73,0.551
	c0.026,0.092-0.042,0.122-0.081,0.16c-0.663,0.638-1.39,1.19-2.189,1.648c-0.101,0.058-0.172,0.092-0.258-0.033
	c-0.596-0.871-1.258-1.692-1.896-2.532C45.889,0.052,46.029,0.052,46.168,0.052z"/>
<path fill="#FC0101" d="M52.398,14.93c0.648,0.043,1.297,0.032,1.945,0.006c0.486,0.003,0.973,0.015,1.458,0.004
	c0.176-0.004,0.226,0.052,0.221,0.218c-0.007,0.269,0.002,0.538,0.004,0.807c0.001,0.584,0.001,1.169,0.002,1.754
	c-0.001,0.815-0.002,1.629-0.003,2.444c-0.001,3.06-0.003,6.119-0.005,9.179c0,1.229-0.007,2.458,0.007,3.687
	c0.002,0.256-0.01,0.445-0.324,0.441c-0.062-0.002-0.121-0.007-0.183-0.007c-3.967-0.001-7.934-0.001-11.898-0.001
	c-0.062,0-0.122,0.009-0.184,0.014c-0.744-0.078-1.487-0.052-2.231-0.012c-0.006,0-0.013,0.012-0.018,0.019
	c-0.104-0.007-0.208-0.019-0.312-0.019c-3.798-0.001-7.595-0.001-11.394,0c-0.183,0-0.365,0.01-0.549,0.015
	c-0.064-0.068-0.067-0.152-0.067-0.241c0.001-2.694,0.001-5.389,0.001-8.083c0-0.017,0.006-0.034,0.01-0.051
	c4.404,0,8.809,0,13.213-0.001c0.199,0,0.401,0.031,0.597-0.035c0.006-0.269,0.018-0.537,0.018-0.806
	c0-3.093-0.001-6.186-0.003-9.279c0.237-0.074,0.487,0.012,0.726-0.051c0.113,0.004,0.227,0.012,0.339,0.012
	c2.688,0.001,5.372,0.001,8.059,0C52.014,14.943,52.207,14.935,52.398,14.93z"/>
<path fill="#0960A7" d="M56.025,20.164c0.001-0.815,0.002-1.629,0.003-2.444c4.75,0,9.501,0.013,14.252-0.016
	c0.567-0.003,0.823,0.164,1.049,0.675c1.125,2.559,1.938,5.205,2.39,7.962c0.203,1.25,0.32,2.509,0.387,3.773
	c0.013,0.225-0.04,0.288-0.278,0.288c-5.346-0.008-10.689-0.006-16.033-0.001c-0.177,0-0.254-0.021-0.261-0.235
	c-0.084-2.876-0.468-5.715-1.118-8.518C56.297,21.15,56.208,20.645,56.025,20.164z"/>
<path fill="#0960A7" d="M28.868,19.305c-0.179,0.278-0.214,0.604-0.292,0.912c-0.716,2.756-1.208,5.549-1.388,8.395
	c-0.032,0.522-0.067,1.045-0.083,1.568c-0.005,0.191-0.076,0.223-0.248,0.221c-0.769-0.009-1.537-0.004-2.305-0.004
	c-4.374,0-8.748,0-13.121,0c-0.405,0-0.402,0-0.386-0.397c0.136-3.354,0.81-6.598,1.992-9.738c0.297-0.791,0.632-1.566,0.987-2.333
	c0.073-0.156,0.156-0.214,0.334-0.213c4.705,0.006,9.411,0.005,14.116,0.004c0.13,0,0.261-0.012,0.392-0.019
	C28.868,18.236,28.868,18.771,28.868,19.305z"/>
<path fill="#0960A7" d="M56.129,42.179c0.183-0.814,0.378-1.627,0.544-2.443c0.37-1.831,0.639-3.676,0.765-5.541
	c0.042-0.618,0.072-1.237,0.097-1.856c0.005-0.141,0.051-0.187,0.183-0.171c0.052,0.006,0.104,0,0.157,0c5.302,0,10.603,0,15.903,0
	c0.341,0,0.342,0.001,0.329,0.337c-0.146,4.472-1.198,8.721-3.144,12.75c-0.056,0.115-0.108,0.193-0.264,0.193
	c-2.943-0.006-5.888-0.005-8.83-0.006c-0.025,0-0.052-0.011-0.076-0.018c-0.004-0.85-0.006-1.7-0.014-2.551
	c-0.001-0.086,0.056-0.195-0.063-0.254c-0.137-0.268-0.351-0.352-0.651-0.35c-1.523,0.014-3.049,0.007-4.573,0.004
	c-0.093,0-0.191,0.036-0.275-0.035c1.696,0,3.394,0,5.091,0c-0.094-0.051-0.188-0.051-0.282-0.051
	C59.392,42.186,57.761,42.182,56.129,42.179z"/>
<path fill="#0960A7" d="M22.467,45.442c-2.655,0.001-5.31-0.002-7.965,0.007c-0.191,0-0.277-0.072-0.354-0.229
	c-1.107-2.295-1.929-4.688-2.459-7.178c-0.386-1.813-0.594-3.648-0.676-5.499c-0.017-0.376-0.02-0.376,0.37-0.376
	c5.127,0,10.253,0.002,15.38-0.007c0.273,0,0.336,0.07,0.345,0.342c0.066,1.929,0.267,3.846,0.586,5.75
	c0.23,1.368,0.538,2.716,0.864,4.063c-0.081,0.125-0.207,0.063-0.31,0.063c-1.71,0.01-3.42,0.012-5.13,0.017
	c-0.407,0.002-0.637,0.235-0.639,0.642C22.477,43.837,22.472,44.64,22.467,45.442z"/>
<path fill="#B16F0C" d="M22.467,45.442c0.004-0.802,0.009-1.604,0.014-2.405c0.002-0.404,0.231-0.64,0.639-0.642
	c1.71-0.005,3.42-0.007,5.13-0.017c0.103,0,0.229,0.062,0.31-0.063c0.619,0.033,1.237,0.067,1.854-0.022
	c0.53,0.004,1.062,0.006,1.594,0.01c0.097,0,0.17-0.025,0.247-0.104c0.343-0.355,0.703-0.699,1.121-0.966
	c0.439-0.282,0.877-0.547,1.449-0.526c0.958,0.037,1.917,0.012,2.876,0.01c0.1,0,0.19,0,0.294-0.061
	c0.622-0.359,1.252-0.705,1.883-1.049c0.466-0.254,0.9-0.553,1.321-0.875c0.328-0.182,0.671-0.264,1.056-0.23
	c0.386,0.034,0.777,0.004,1.166,0.002c1.709-0.015,3.415,0.097,5.123,0.122c0.116,0.002,0.227,0.002,0.349,0.061
	c0.755,0.363,1.371,0.924,2.01,1.439c0.766,0.615,1.46,1.318,2.179,1.992c0.123,0.114,0.241,0.164,0.411,0.162
	c0.862-0.014,1.728-0.015,2.591-0.02c0.044-0.008,0.089-0.016,0.133-0.021c0.084,0.072,0.184,0.036,0.275,0.036
	c1.524,0.003,3.05,0.009,4.573-0.004c0.302-0.002,0.516,0.082,0.651,0.349c0.005,0.817,0.009,1.635,0.015,2.453
	c0.001,0.12-0.015,0.243,0.037,0.359c-0.061,0.598-0.044,1.193-0.011,1.792c-0.009,0.103-0.023,0.206-0.024,0.31
	c-0.007,0.866-0.012,1.732-0.017,2.6c-0.068,0.179-0.208,0.283-0.372,0.365c-0.121,0.008-0.243,0.021-0.364,0.021
	c-1.914,0.001-3.828,0-5.742,0.003c-0.116,0-0.244-0.039-0.351,0.051c-0.331,0.2-0.649,0.422-1.023,0.541
	c-0.056,0.016-0.112,0.088-0.133,0.145c-0.201,0.591-0.639,0.973-1.117,1.334c-0.213,0.162-0.464,0.228-0.677,0.371
	c-0.328,0.02-0.651,0.109-0.984,0.049c-0.128-0.023-0.149,0.094-0.192,0.175c-0.353,0.674-0.907,1.062-1.657,1.172
	c-0.271-0.006-0.541-0.014-0.811-0.017c-0.075,0-0.161-0.021-0.213,0.062c-0.309,0.488-0.729,0.782-1.308,0.926
	c-0.436,0.106-0.825,0.041-1.205-0.099c-0.239-0.088-0.376-0.096-0.553,0.103c-0.421,0.476-0.933,0.795-1.597,0.801
	c-0.544,0.02-0.947-0.291-1.347-0.594c-0.173-0.133-0.294-0.155-0.449,0.021c-0.125,0.14-0.287,0.248-0.433,0.37
	c-0.105,0.092-0.216,0.178-0.32,0.27c-0.517,0.457-1.053,0.891-1.592,1.318c-0.275,0.219-0.596,0.35-0.957,0.26
	c-0.257-0.062-0.506-0.156-0.759-0.236c-0.264-0.273-0.571-0.51-0.767-0.846c-0.06-0.101-0.133-0.113-0.239-0.098
	c-0.979,0.146-1.878-0.536-2.015-1.547c-0.023-0.174-0.071-0.236-0.249-0.244c-0.245-0.012-0.473-0.109-0.695-0.211
	c-0.382-0.364-0.787-0.71-0.757-1.316c0.01-0.205-0.086-0.322-0.335-0.3c-0.271,0.024-0.551,0.062-0.818-0.06
	c-0.427-0.188-0.703-0.53-0.905-0.928c-0.209-0.414-0.155-0.859-0.076-1.312c-0.075-0.004-0.153-0.013-0.23-0.013
	c-2.268,0-4.535,0-6.802,0c-0.192,0-0.384,0.006-0.576-0.002c-0.384-0.017-0.611-0.25-0.613-0.627
	c-0.005-0.942-0.008-1.885-0.012-2.826C22.47,46.625,22.469,46.035,22.467,45.442z M36.029,41.884
	c-0.008-0.02-0.016-0.039-0.023-0.059c-0.331,0-0.662,0.018-0.991-0.007c-0.325-0.022-0.596,0.087-0.861,0.251
	c-0.494,0.307-0.908,0.705-1.289,1.141c-0.142,0.162-0.31,0.24-0.526,0.24c-0.646,0.004-1.291,0.012-1.938,0.021
	c-1.519,0.025-3.039,0.01-4.558,0.025c-0.654,0.008-1.308-0.021-1.963,0.023c-0.213,0.014-0.254,0.085-0.253,0.279
	c0.006,1.808,0.01,3.615-0.003,5.423c-0.002,0.267,0.083,0.31,0.325,0.31c3.807-0.009,7.614-0.006,11.422-0.008
	c0.168,0,0.334,0.002,0.476,0.105c0.107,0.078,0.182,0.035,0.277-0.032c0.237-0.171,0.441-0.396,0.757-0.445
	c0.658-0.104,1.94,0.37,2.095,1.318c0.023,0.146,0.092,0.17,0.214,0.146c0.163-0.031,0.325-0.061,0.493-0.029
	c0.698,0.127,1.191,0.742,1.195,1.506c0,0.154-0.082,0.352-0.015,0.455c0.065,0.099,0.277,0.099,0.425,0.145
	c0.042,0.014,0.084,0.025,0.121,0.049c0.125,0.079,0.199,0.047,0.3-0.068c0.346-0.397,1.229-0.506,1.646-0.219
	c0.453,0.312,0.9,0.629,1.357,0.937c0.34,0.229,0.648,0.503,1.017,0.688c0.356,0.18,0.728,0.264,1.098,0.039
	c0.362-0.222,0.363-0.322,0.031-0.568c-0.021-0.016-0.043-0.028-0.063-0.045c-1.311-0.943-2.619-1.887-3.928-2.832
	c-0.293-0.213-0.375-0.57-0.192-0.82c0.201-0.273,0.551-0.316,0.855-0.102c0.336,0.238,0.665,0.479,0.997,0.721
	c1.195,0.863,2.387,1.734,3.589,2.588c0.382,0.271,1.146,0.295,1.534-0.23c0.188-0.254,0.188-0.293-0.067-0.474
	c-1.357-0.95-2.716-1.899-4.074-2.849c-0.465-0.325-0.934-0.646-1.396-0.977c-0.309-0.221-0.374-0.537-0.182-0.816
	c0.181-0.264,0.503-0.312,0.811-0.121c0.082,0.051,0.159,0.105,0.238,0.16c1.902,1.33,3.805,2.66,5.707,3.988
	c0.214,0.149,0.451,0.203,0.72,0.158c0.534-0.09,0.868-0.445,1.182-0.843c0.142-0.181,0.134-0.284-0.077-0.425
	c-2.976-1.984-5.944-3.979-8.914-5.975c-0.678-0.453-0.672-0.451-1.346,0.041c-0.668,0.487-1.315,1.014-2.18,1.135
	c-0.336,0.047-0.669,0.113-1.008,0.145c-1.113,0.098-2.175-0.057-3.146-0.648c-0.843-0.514-1.233-1.427-1.021-2.353
	c0.073-0.317,0.232-0.552,0.523-0.708C35.63,42.158,35.826,42.014,36.029,41.884z M57.492,49.38c0.941,0,1.886-0.008,2.827,0.004
	c0.221,0.003,0.28-0.067,0.279-0.282c-0.008-1.815-0.008-3.632,0.001-5.446c0-0.224-0.068-0.275-0.282-0.273
	c-2.306,0.007-4.609-0.008-6.915,0.014c-0.447,0.004-0.771-0.137-1.089-0.438c-1.068-1.016-2.165-2-3.328-2.91
	c-0.267-0.208-0.551-0.312-0.886-0.318c-1.972-0.032-3.942-0.068-5.916-0.104c-0.124-0.002-0.234,0.012-0.346,0.084
	c-1.839,1.206-3.826,2.165-5.64,3.413c-0.22,0.148-0.273,0.311-0.214,0.547c0.11,0.433,0.433,0.662,0.798,0.85
	c0.736,0.378,1.53,0.395,2.326,0.324c0.783-0.065,1.516-0.275,2.139-0.809c0.382-0.326,0.81-0.607,1.26-0.843
	c0.333-0.175,0.646-0.2,0.979,0.026c0.887,0.605,1.785,1.189,2.677,1.787c2.39,1.605,4.776,3.213,7.167,4.82
	c0.292,0.195,0.595,0.152,0.789-0.146c0.147-0.228,0.345-0.302,0.596-0.302C55.64,49.38,56.566,49.38,57.492,49.38z M39.733,52.167
	c0.001-0.418-0.145-0.522-0.521-0.389c-0.24,0.088-0.466,0.206-0.662,0.367c-0.917,0.752-1.829,1.512-2.74,2.271
	c-0.173,0.145-0.207,0.334-0.129,0.545c0.208,0.572,0.617,0.69,1.098,0.318c0.056-0.043,0.11-0.087,0.161-0.134
	c0.82-0.771,1.645-1.538,2.458-2.313C39.587,52.652,39.744,52.438,39.733,52.167z M37.888,50.912
	c0.01-0.268-0.146-0.418-0.365-0.521c-0.189-0.092-0.365-0.168-0.576-0.002c-0.858,0.684-1.729,1.354-2.595,2.027
	c-0.178,0.14-0.294,0.324-0.366,0.531c-0.135,0.387,0.131,0.76,0.539,0.76c0.203,0,0.406-0.039,0.566-0.172
	c0.86-0.711,1.716-1.426,2.569-2.143C37.805,51.27,37.88,51.103,37.888,50.912z M41.195,54.199
	c-0.007-0.213-0.107-0.377-0.305-0.445c-0.257-0.088-0.519-0.084-0.74,0.106c-0.771,0.666-1.543,1.335-2.314,2.001
	c-0.091,0.079-0.141,0.161-0.06,0.27c0.164,0.222,0.36,0.404,0.62,0.506c0.095,0.037,0.183,0.021,0.268-0.051
	c0.776-0.66,1.557-1.318,2.335-1.979C41.123,54.5,41.205,54.373,41.195,54.199z M42.45,54.024c-0.044,0.353,0.186,0.567,0.496,0.759
	c0.483,0.295,0.771,0.27,1.172-0.13c0.13-0.129,0.146-0.204-0.023-0.313c-0.365-0.234-0.719-0.489-1.078-0.735
	c-0.388-0.267-0.527-0.199-0.565,0.271C42.447,53.908,42.45,53.943,42.45,54.024z M32.248,51.893
	c0.092-0.002,0.174-0.033,0.244-0.088c0.24-0.187,0.479-0.374,0.719-0.562c0.136-0.107,0.274-0.213,0.405-0.328
	c0.049-0.045,0.094-0.117,0.071-0.188c-0.026-0.091-0.117-0.056-0.18-0.056c-0.252-0.006-0.509,0.027-0.756-0.01
	c-0.397-0.06-0.655,0.121-0.895,0.4c-0.125,0.146-0.12,0.279-0.039,0.43C31.917,51.671,31.991,51.882,32.248,51.893z"/>
<path fill="#B16F0C" d="M68.189,65.257c-0.059-0.123,0.06-0.168,0.113-0.231c1.023-1.188,2.038-2.386,2.951-3.664
	c0.258-0.36,0.53-0.718,0.632-1.163c0.097-0.416-0.063-0.753-0.398-0.854c-0.224-0.067-0.422-0.018-0.556,0.18
	c-1.224,1.799-2.74,3.331-4.326,4.803c-0.876,0.812-1.798,1.57-2.777,2.256c-0.063,0.045-0.121,0.1-0.197,0.164
	c0.174,0.109,0.368,0.111,0.541,0.172c0.395,0.136,0.792,0.265,1.188,0.396c1.08,0.356,1.252,1.664,0.859,2.414
	c-0.424,0.81-1.121,1.267-1.934,1.592c-2.007,0.804-4.095,1.306-6.216,1.688c-0.601,0.107-1.2,0.217-1.814,0.221
	c-0.077,0.001-0.154,0.02-0.252-0.05c0.619-0.272,1.218-0.539,1.817-0.802c1.134-0.496,2.269-0.988,3.375-1.537
	c0.501-0.248,0.979-0.537,1.418-0.885c0.089-0.069,0.177-0.146,0.252-0.229c0.216-0.24,0.171-0.428-0.11-0.575
	c-0.604-0.319-1.195-0.276-1.811-0.017c-1.51,0.64-3.057,1.171-4.661,1.52c-0.966,0.209-1.937,0.362-2.928,0.358
	c-0.191-0.001-0.241-0.06-0.211-0.239c0.039-0.23,0.069-0.466,0.085-0.701c0.01-0.154,0.083-0.195,0.224-0.229
	c1.695-0.396,3.384-0.824,4.974-1.559c0.46-0.213,0.906-0.451,1.24-0.85c0.027-0.033,0.058-0.064,0.083-0.102
	c0.318-0.443,0.202-0.717-0.342-0.768c-0.476-0.045-0.937,0.061-1.397,0.155c-1.36,0.278-2.731,0.47-4.121,0.521
	c-0.092,0.004-0.184-0.008-0.283-0.051c0.525-0.197,1.054-0.391,1.576-0.592c1.171-0.45,2.351-0.885,3.46-1.473
	c0.321-0.17,0.607-0.404,0.921-0.592c0.355-0.213,0.736-0.347,1.161-0.354c0.465-0.011,0.831,0.161,1.103,0.532
	c0.074,0.104,0.134,0.143,0.253,0.07c1.633-0.988,3.306-1.914,4.791-3.127c0.43-0.35,0.775-0.777,0.899-1.342
	c0.106-0.479-0.15-0.742-0.64-0.654c-0.524,0.094-0.982,0.352-1.444,0.594c-1.033,0.543-2.035,1.14-3.012,1.779
	c-0.057,0.037-0.119,0.064-0.177,0.096c-0.046-0.039-0.02-0.069,0.001-0.096c1.283-1.615,2.728-3.053,4.54-4.078
	c0.538-0.304,1.096-0.578,1.704-0.723c0.143-0.033,0.292-0.057,0.438-0.062c0.479-0.014,0.705,0.158,0.836,0.619
	c0.021,0.074,0.041,0.148,0.072,0.269c0.322-0.394,0.628-0.759,0.927-1.131c0.774-0.966,1.538-1.938,2.212-2.978
	c0.104-0.162,0.199-0.326,0.266-0.508c0.234-0.658-0.109-1.113-0.812-1.066c-0.268,0.017-0.507,0.096-0.719,0.271
	c-0.776,0.646-1.56,1.287-2.341,1.928c-0.107,0.088-0.229,0.16-0.343,0.24l0.005-0.003c0.079-0.271,0.301-0.442,0.465-0.651
	c1.229-1.572,2.467-3.137,3.635-4.756c0.218-0.303,0.362-0.654,0.638-0.92c0.567-0.545,1.328-0.43,1.704,0.266
	c0.394,0.725,0.641,1.506,0.893,2.283c0.089,0.276,0.089,0.273,0.298,0.069c1.15-1.128,2.308-2.254,3.638-3.177
	c0.618-0.428,1.272-0.782,2.059-0.818c0.769-0.035,1.441,0.963,1.258,1.596c-0.253,0.869-0.627,1.68-1.038,2.479
	c-0.781,1.518-1.645,2.988-2.567,4.425c-0.088,0.136-0.162,0.28-0.287,0.397c0.133-0.616,0.271-1.231,0.398-1.852
	c0.16-0.768,0.285-1.542,0.365-2.322c0.019-0.174,0.004-0.348-0.027-0.521c-0.134-0.755-0.593-0.84-1.188-0.521
	c-0.375,0.201-0.688,0.502-1.004,0.789c-0.315,0.285-0.62,0.586-0.944,0.86c-0.138,0.115-0.121,0.192-0.036,0.323
	c0.311,0.474,0.575,0.972,0.818,1.482c0.241,0.504,0.279,1.021,0.182,1.555c-0.062,0.326-0.147,0.646-0.225,0.968
	c-0.112,0.478-0.431,0.832-0.731,1.19c-1.853,2.201-3.734,4.373-5.62,6.545c-0.051,0.058-0.112,0.106-0.168,0.16l0.003,0.002
	c0.075-0.283,0.272-0.498,0.425-0.735c1.27-1.988,2.558-3.964,3.766-5.99c0.351-0.589,0.254-1.146-0.077-1.673
	c-0.337-0.536-1.169-0.488-1.527,0.062c-0.222,0.34-0.316,0.733-0.443,1.112c-0.013,0.039-0.015,0.089-0.004,0.129
	c0.28,1.071-0.128,1.988-0.664,2.866c-0.806,1.318-1.928,2.352-3.102,3.329c-0.635,0.528-1.289,1.036-1.986,1.483L68.189,65.257z"/>
<path fill="#B16F0C" d="M15.826,54.815c-0.453-0.25-0.819-0.614-1.217-0.937c-0.514-0.418-1.021-0.84-1.536-1.256
	c-0.344-0.276-0.732-0.306-1.137-0.17c-0.319,0.105-0.462,0.356-0.422,0.692c0.042,0.351,0.226,0.642,0.412,0.922
	c0.89,1.336,1.908,2.575,2.918,3.82c0.037,0.046,0.089,0.079,0.136,0.12c0.09-0.049,0.062-0.141,0.081-0.207
	c0.137-0.469,0.366-0.647,0.858-0.627c0.543,0.022,1.03,0.244,1.513,0.471c1.359,0.639,2.511,1.559,3.568,2.609
	c0.444,0.443,0.871,0.902,1.268,1.389c0.087,0.105,0.254,0.252,0.165,0.355c-0.09,0.104-0.201-0.092-0.302-0.152
	c-1.18-0.709-2.339-1.453-3.606-2.006c-0.176-0.076-0.355-0.139-0.547-0.17c-0.528-0.092-0.791,0.185-0.653,0.707
	c0.11,0.424,0.36,0.771,0.667,1.076c0.581,0.573,1.271,1.004,1.947,1.45c0.976,0.646,1.981,1.238,2.986,1.834
	c0.159,0.095,0.246,0.119,0.377-0.062c0.358-0.492,0.876-0.557,1.432-0.45c0.373,0.069,0.725,0.217,1.021,0.448
	c0.696,0.549,1.51,0.861,2.312,1.197c1.116,0.471,2.25,0.896,3.39,1.307c0.013,0.005,0.021,0.021,0.053,0.055
	c-0.469,0.025-0.915-0.002-1.361-0.053c-1.065-0.12-2.131-0.239-3.18-0.475c-0.47-0.104-0.939-0.203-1.422-0.111
	c-0.394,0.074-0.487,0.298-0.276,0.638c0.319,0.515,0.827,0.793,1.35,1.036c1.348,0.629,2.771,1.033,4.212,1.383
	c0.287,0.068,0.573,0.143,0.862,0.203c0.119,0.025,0.154,0.092,0.164,0.199c0.023,0.261,0.041,0.521,0.081,0.779
	c0.024,0.156-0.039,0.174-0.167,0.176c-0.691,0.011-1.376-0.065-2.057-0.178c-1.999-0.328-3.896-0.994-5.758-1.765
	c-0.591-0.244-1.143-0.171-1.685,0.118c-0.236,0.127-0.255,0.236-0.103,0.462c0.114,0.169,0.272,0.293,0.434,0.413
	c0.775,0.576,1.649,0.975,2.524,1.365c1.281,0.57,2.565,1.133,3.849,1.699c0.037,0.016,0.069,0.041,0.1,0.086
	c-0.427,0.039-0.847-0.004-1.264-0.068c-2-0.311-3.966-0.766-5.888-1.403c-0.719-0.239-1.441-0.485-2.071-0.918
	c-0.672-0.461-1.175-1.063-1.181-1.925c-0.005-0.717,0.301-1.273,1.005-1.562c0.534-0.22,1.087-0.373,1.643-0.521
	c0.042-0.012,0.089-0.012,0.117-0.08c-0.326-0.246-0.659-0.493-0.986-0.748c-2.205-1.715-4.174-3.67-5.894-5.873
	c-0.112-0.145-0.215-0.297-0.314-0.449c-0.22-0.334-0.424-0.42-0.711-0.293c-0.27,0.117-0.426,0.453-0.354,0.77
	c0.07,0.312,0.222,0.585,0.396,0.848c0.693,1.049,1.509,2.002,2.3,2.977c0.333,0.41,0.719,0.777,1.004,1.229l-0.003,0.003
	c-0.357-0.131-0.632-0.394-0.927-0.612c-1.154-0.861-2.253-1.787-3.198-2.879c-0.719-0.83-1.347-1.717-1.609-2.808
	c-0.101-0.421-0.134-0.845,0.002-1.267c0.019-0.056,0.03-0.127,0.01-0.178c-0.147-0.381-0.226-0.789-0.462-1.134
	c-0.413-0.601-1.288-0.546-1.605,0.106c-0.26,0.531-0.284,1.049,0.043,1.59c1.238,2.041,2.536,4.044,3.822,6.056
	c0.114,0.179,0.251,0.349,0.288,0.575c-0.426-0.493-0.853-0.984-1.277-1.479c-1.592-1.85-3.2-3.684-4.751-5.565
	c-0.425-0.517-0.519-1.146-0.66-1.765c-0.224-0.979,0.229-1.766,0.678-2.559c0.062-0.105,0.122-0.212,0.186-0.316
	c0.23-0.388,0.236-0.393-0.098-0.701c-0.523-0.484-1.041-0.981-1.631-1.387c-0.286-0.197-0.611-0.361-0.952-0.18
	c-0.328,0.178-0.371,0.53-0.38,0.867C4.332,52.291,4.494,53,4.628,53.708c0.146,0.771,0.316,1.535,0.448,2.318
	c-0.177-0.279-0.354-0.559-0.528-0.841c-0.915-1.483-1.803-2.981-2.571-4.55c-0.269-0.549-0.503-1.108-0.694-1.689
	c-0.192-0.58-0.059-1.07,0.358-1.484c0.386-0.385,0.864-0.408,1.365-0.275c0.784,0.208,1.438,0.654,2.069,1.139
	c1.101,0.848,2.099,1.811,3.091,2.777c0.062,0.061,0.127,0.115,0.206,0.188c0.166-0.478,0.321-0.937,0.484-1.395
	c0.125-0.354,0.269-0.699,0.44-1.031c0.475-0.916,1.421-0.975,1.979-0.105c0.448,0.699,0.939,1.363,1.439,2.023
	c0.958,1.264,1.93,2.516,2.919,3.752C15.706,54.625,15.763,54.722,15.826,54.815L15.826,54.815z"/>
<path fill="#0960A7" d="M56.026,15.966c-0.002-0.269-0.011-0.539-0.004-0.807c0.005-0.166-0.045-0.222-0.221-0.218
	c-0.485,0.011-0.972-0.001-1.458-0.004c-1.432-3.696-3.256-7.19-5.432-10.5C48.778,4.233,48.768,4.146,49,4.011
	c1.122-0.659,2.106-1.488,2.968-2.463c0.133-0.15,0.234-0.167,0.418-0.106c4.842,1.6,9.052,4.217,12.64,7.837
	c1.927,1.943,3.565,4.106,4.929,6.479c0.028,0.052,0.054,0.106,0.104,0.208C65.358,15.966,60.692,15.966,56.026,15.966z"/>
<path fill="#0960A7" d="M28.868,15.988c-0.11-0.042-0.226-0.027-0.337-0.027c-4.401-0.001-8.803-0.002-13.204,0.002
	c-0.209,0-0.272-0.02-0.147-0.232c0.998-1.702,2.123-3.314,3.412-4.81c3.31-3.841,7.303-6.738,11.991-8.675
	C31.179,2,31.785,1.78,32.393,1.564c0.167-0.059,0.265-0.031,0.381,0.099c0.837,0.924,1.787,1.716,2.86,2.351
	c0.226,0.133,0.233,0.221,0.096,0.425c-1.089,1.634-2.073,3.33-2.979,5.072c-0.897,1.726-1.703,3.493-2.408,5.306
	c-0.016,0.04-0.036,0.079-0.055,0.119c-0.406,0-0.813,0.006-1.221,0c-0.145-0.002-0.2,0.048-0.197,0.195
	C28.877,15.417,28.87,15.703,28.868,15.988z"/>
<path fill="#0960A7" d="M51.937,52.962c0.213-0.145,0.464-0.209,0.677-0.371c0.479-0.361,0.916-0.743,1.117-1.334
	c0.021-0.059,0.077-0.129,0.133-0.146c0.374-0.118,0.692-0.34,1.023-0.54c2.051-0.001,4.102-0.001,6.152-0.006
	c0.102,0,0.228,0.062,0.305-0.066c0.164-0.082,0.304-0.188,0.372-0.367c0.121-0.067,0.062-0.186,0.063-0.277
	c0.009-0.875,0.009-1.751,0.011-2.626c0.146-0.004,0.296-0.013,0.442-0.013c2.479,0,4.959,0,7.438,0c0.061,0,0.122,0,0.182,0
	c0.047,0.086-0.019,0.136-0.051,0.189c-2.915,4.92-6.856,8.795-11.841,11.604c-1.874,1.057-3.842,1.894-5.887,2.556
	c-0.196,0.062-0.308,0.032-0.446-0.114c-0.895-0.945-1.916-1.729-3.061-2.348c-0.186-0.102-0.19-0.176-0.076-0.344
	C49.76,56.899,50.91,54.966,51.937,52.962z"/>
<path fill="#0960A7" d="M22.472,47.216c0.003,0.941,0.006,1.884,0.012,2.826c0.002,0.377,0.229,0.61,0.613,0.627
	c0.192,0.008,0.384,0.002,0.576,0.002c2.268,0,4.535,0,6.802,0c0.078,0,0.155,0.009,0.23,0.013
	c-0.079,0.452-0.134,0.897,0.077,1.312c0.201,0.396,0.478,0.738,0.904,0.928c0.269,0.119,0.547,0.084,0.818,0.06
	c0.25-0.022,0.346,0.095,0.335,0.3c-0.03,0.606,0.375,0.952,0.757,1.316c0.582,1.111,1.253,2.172,1.929,3.229
	c0.207,0.323,0.421,0.643,0.64,0.957c0.083,0.121,0.102,0.188-0.056,0.272c-1.138,0.612-2.147,1.396-3.043,2.323
	c-0.132,0.139-0.243,0.107-0.39,0.061c-2.452-0.812-4.772-1.902-6.952-3.287c-4.317-2.742-7.779-6.318-10.385-10.721
	c-0.034-0.059-0.063-0.118-0.115-0.215C17.664,47.216,20.067,47.216,22.472,47.216z"/>
<path fill="#121985" d="M28.868,15.988c0.002-0.285,0.009-0.571,0.003-0.856c-0.003-0.147,0.053-0.197,0.197-0.195
	c0.406,0.005,0.813,0,1.221,0c0.649,0.045,1.301,0.039,1.951,0.003c0.6,0,1.199,0,1.8,0c2.384-0.001,4.769-0.002,7.151-0.003
	c0.486,0.068,0.977-0.006,1.462,0.037c0,3.238-0.001,6.475,0.004,9.712c0,0.126-0.056,0.261,0.028,0.382
	c-0.195,0.066-0.397,0.034-0.597,0.035c-4.405,0.002-8.81,0.001-13.213,0.001c-0.004-1.689-0.008-3.378-0.011-5.067
	c0-0.244,0.002-0.487,0.003-0.731c0-0.535,0-1.069,0-1.604C28.868,17.13,28.868,16.56,28.868,15.988z M33.743,21.963
	c-0.216-0.354-0.496-0.672-0.593-1.13c-0.499,0.536-0.963,1.035-1.466,1.575c0.729-0.16,1.397-0.306,2.065-0.452
	c0.036,0.178-0.046,0.337-0.083,0.503c-0.11,0.503-0.229,1.004-0.361,1.583c0.553-0.516,1.047-0.975,1.554-1.447
	c-0.189-0.087-0.359-0.15-0.515-0.24C34.139,22.235,33.943,22.095,33.743,21.963z M37.53,20.194c0.003-1.091-0.898-2-1.991-2.009
	c-1.089-0.009-2.002,0.894-2.007,1.986c-0.006,1.117,0.881,2.028,1.984,2.039C36.607,22.221,37.527,21.3,37.53,20.194z
	 M34.896,17.807c0.912-0.205,1.682,0.015,2.374,0.628c0.16-0.697,0.311-1.355,0.479-2.088c-0.561,0.52-1.062,0.984-1.585,1.472
	c-0.213-0.689-0.414-1.339-0.639-2.064C35.302,16.48,35.104,17.125,34.896,17.807z M39.378,17.972
	c-0.729,0.169-1.396,0.323-2.088,0.483c0.289,0.328,0.498,0.671,0.622,1.091C38.395,19.027,38.862,18.526,39.378,17.972z
	 M37.908,20.84c-0.123,0.438-0.341,0.777-0.629,1.098c0.696,0.159,1.359,0.312,2.096,0.48C38.863,21.867,38.398,21.367,37.908,20.84
	z M37.752,24.048c-0.173-0.742-0.326-1.401-0.491-2.108c-0.325,0.334-0.686,0.498-1.076,0.652
	C36.703,23.073,37.199,23.533,37.752,24.048z M31.671,17.97c0.512,0.548,0.982,1.054,1.473,1.579
	c0.128-0.434,0.332-0.774,0.621-1.091C33.079,18.298,32.419,18.144,31.671,17.97z M35.524,24.645
	c0.225-0.73,0.423-1.382,0.629-2.053c-0.421,0.084-0.824,0.085-1.253,0C35.105,23.266,35.303,23.919,35.524,24.645z M33.785,18.433
	c0.328-0.296,0.681-0.488,1.085-0.631c-0.518-0.481-1.013-0.941-1.566-1.457C33.474,17.083,33.625,17.738,33.785,18.433z
	 M31.082,20.196c0.675,0.207,1.29,0.393,1.902,0.583c0.103,0.032,0.155,0.028,0.127-0.095c-0.08-0.361-0.047-0.723,0.014-1.115
	C32.443,19.778,31.791,19.978,31.082,20.196z M39.973,20.195c-0.716-0.218-1.364-0.416-2.06-0.628
	c0.106,0.442,0.103,0.836,0.004,1.257C38.613,20.611,39.258,20.414,39.973,20.195z"/>
<path fill="#0960A7" d="M41.199,38.731c-0.421,0.322-0.855,0.621-1.321,0.875c-0.631,0.345-1.261,0.688-1.883,1.05
	c-0.104,0.059-0.194,0.059-0.294,0.059c-0.959,0.002-1.918,0.027-2.876-0.008c-0.572-0.021-1.01,0.244-1.449,0.525
	c-0.417,0.268-0.777,0.609-1.121,0.965c-0.077,0.079-0.15,0.104-0.247,0.104c-0.532-0.002-1.063-0.006-1.594-0.008
	c-0.619-2.227-1.058-4.487-1.317-6.784c-0.076-0.675-0.146-1.351-0.162-2.031c0.184-0.005,0.366-0.015,0.549-0.015
	c3.799,0,7.596,0,11.394,0c0.104,0,0.208,0.012,0.312,0.019c0.003,0.087,0.012,0.174,0.012,0.261
	C41.2,35.406,41.2,37.069,41.199,38.731z"/>
<path fill="#0960A7" d="M56.083,42.259c-0.863,0.006-1.729,0.007-2.591,0.021c-0.169,0.002-0.288-0.049-0.411-0.164
	c-0.719-0.673-1.413-1.375-2.179-1.992c-0.639-0.515-1.255-1.076-2.01-1.438c-0.122-0.059-0.231-0.059-0.349-0.061
	c-1.708-0.024-3.414-0.137-5.123-0.122c0-1.38,0-2.759,0.001-4.139c0.001-0.296,0.011-0.592,0.016-0.888
	c0.062-0.005,0.121-0.014,0.184-0.014c3.966,0,7.933,0,11.898,0.001c0.062,0,0.121,0.004,0.183,0.007
	c-0.025,1.021-0.152,2.034-0.286,3.045c-0.247,1.875-0.632,3.725-1.127,5.55c-0.051,0.185,0.013,0.198,0.166,0.196
	c0.541-0.008,1.082-0.002,1.623-0.002H56.083L56.083,42.259z"/>
<path fill="#0960A7" d="M52.398,14.93c-0.19,0.005-0.384,0.013-0.574,0.013c-2.687,0.001-5.371,0.001-8.059,0
	c-0.112,0-0.226-0.008-0.339-0.012c-0.001-2.968-0.002-5.936-0.007-8.904c0-0.134,0.021-0.201,0.179-0.215
	c1.134-0.105,2.232-0.364,3.294-0.774c0.16-0.062,0.237-0.034,0.332,0.11c1.773,2.682,3.313,5.491,4.606,8.434
	C52.027,14.029,52.209,14.481,52.398,14.93z"/>
<path fill="#0960A7" d="M41.192,14.936c-2.384,0.001-4.768,0.002-7.151,0.003c-0.601,0-1.2,0-1.8,0
	c1.367-3.388,3.087-6.59,5.072-9.653c0.163-0.252,0.283-0.301,0.568-0.19c1.003,0.389,2.051,0.614,3.122,0.715
	c0.162,0.015,0.2,0.073,0.2,0.225C41.196,9.002,41.195,11.969,41.192,14.936z"/>
<path fill="#B16F0C" d="M4.485,27.939c0.428-0.636,0.882-1.22,1.424-1.729c0.692-0.65,1.463-1.181,2.371-1.488
	c0.291-0.098,0.311-0.079,0.288,0.225c-0.104,1.479-0.395,2.919-0.979,4.287c-0.7,1.634-1.705,3.031-3.228,4.009
	c-0.197,0.128-0.318,0.125-0.502-0.053c-1.379-1.35-2.39-2.92-2.903-4.791c-0.352-1.277-0.428-2.578-0.257-3.891
	c0.044-0.343,0.053-0.342,0.356-0.188c1.051,0.532,1.863,1.334,2.567,2.261C3.944,27.002,4.212,27.458,4.485,27.939z"/>
<path fill="#B16F0C" d="M80.602,27.938c0.433-0.8,0.932-1.509,1.524-2.15c0.557-0.6,1.188-1.099,1.915-1.478
	c0.271-0.142,0.296-0.135,0.337,0.164c0.266,1.927-0.023,3.771-0.846,5.53c-0.579,1.238-1.395,2.307-2.381,3.25
	c-0.13,0.124-0.217,0.115-0.355,0.03c-1.193-0.726-2.072-1.749-2.756-2.945c-0.883-1.547-1.323-3.23-1.484-4.995
	c-0.014-0.146-0.023-0.296-0.048-0.442c-0.035-0.229,0.055-0.263,0.256-0.195c0.737,0.248,1.39,0.639,1.986,1.131
	C79.468,26.429,80.059,27.135,80.602,27.938z"/>
<path fill="#B16F0C" d="M74.054,18.098c0.226-0.025,0.429,0.063,0.634,0.12c1.505,0.419,2.854,1.146,4.081,2.105
	c0.267,0.208,0.257,0.208,0.315-0.124c0.189-1.091,0.444-2.166,0.948-3.162c0.199-0.396,0.434-0.776,0.792-1.059
	c0.122-0.098,0.19-0.104,0.254,0.069c0.736,2.055,1.185,4.155,0.984,6.354c-0.086,0.946-0.338,1.846-0.792,2.687
	c-0.095,0.176-0.188,0.227-0.386,0.162c-1.793-0.586-3.28-1.627-4.521-3.031c-1.011-1.143-1.73-2.457-2.259-3.882
	c-0.018-0.049-0.033-0.099-0.047-0.15C74.053,18.162,74.056,18.135,74.054,18.098z"/>
<path fill="#B16F0C" d="M6.054,20.519c1.502-1.196,3.117-2.067,5.011-2.461c-0.392,1.157-0.896,2.199-1.565,3.161
	c-1.267,1.817-2.913,3.157-4.996,3.924c-0.655,0.242-0.515,0.278-0.811-0.31c-0.601-1.19-0.75-2.472-0.712-3.786
	c0.051-1.717,0.445-3.363,1.012-4.976c0.091-0.259,0.19-0.18,0.319-0.059c0.529,0.498,0.831,1.134,1.079,1.8
	C5.711,18.671,5.896,19.565,6.054,20.519z"/>
<path fill="#B16F0C" d="M75.827,13.764c-0.083-0.498-0.141-1-0.15-1.504c-0.025-1.138,0.111-2.246,0.678-3.26
	c0.105-0.189,0.244-0.359,0.372-0.536c0.106-0.146,0.194-0.146,0.311,0.013c0.503,0.696,0.906,1.444,1.195,2.251
	c0.6,1.669,0.692,3.385,0.461,5.13c-0.094,0.709-0.257,1.402-0.455,2.089c-0.068,0.24-0.169,0.265-0.392,0.191
	c-2.003-0.669-3.666-1.864-5.164-3.318c-0.688-0.669-1.328-1.38-1.908-2.146c-0.134-0.176-0.124-0.226,0.103-0.269
	c1.094-0.206,2.107,0.089,3.106,0.474c0.578,0.223,1.129,0.503,1.658,0.824C75.692,13.737,75.741,13.779,75.827,13.764z"/>
<path fill="#B16F0C" d="M9.284,13.797c0.673-0.4,1.335-0.749,2.041-1.004c0.833-0.302,1.682-0.531,2.582-0.427
	c0.17,0.02,0.414-0.014,0.479,0.128c0.058,0.127-0.149,0.27-0.249,0.396c-1.362,1.725-2.941,3.208-4.846,4.324
	c-0.672,0.394-1.384,0.698-2.123,0.945c-0.179,0.06-0.246,0.009-0.298-0.158c-0.499-1.592-0.695-3.215-0.542-4.881
	c0.149-1.632,0.668-3.127,1.599-4.478c0.26-0.375,0.295-0.378,0.562-0.006c0.666,0.931,0.89,1.993,0.907,3.113
	c0.011,0.603,0.003,1.205-0.112,1.8C9.272,13.616,9.284,13.687,9.284,13.797z"/>
<path fill="#B16F0C" d="M1.69,41.373c1.743,0.291,3.138,1.154,4.455,2.235c0.068-0.351,0.119-0.681,0.198-1.004
	c0.323-1.315,0.956-2.442,2.049-3.279c0.239-0.184,0.257-0.18,0.319,0.112c0.322,1.534,0.371,3.079,0.179,4.633
	c-0.173,1.398-0.53,2.749-1.091,4.045c-0.083,0.19-0.16,0.254-0.381,0.18c-1.05-0.354-1.873-1.023-2.604-1.822
	c-1.309-1.43-2.24-3.102-3.045-4.85C1.74,41.56,1.727,41.492,1.69,41.373z"/>
<path fill="#B16F0C" d="M78.925,43.619c0.474-0.373,0.915-0.725,1.395-1.025c0.862-0.541,1.773-0.963,2.776-1.17
	c0.085-0.018,0.191-0.065,0.25-0.004c0.068,0.07-0.017,0.158-0.051,0.232c-0.794,1.754-1.738,3.414-3.051,4.842
	c-0.729,0.793-1.544,1.459-2.588,1.803c-0.211,0.068-0.282,0.014-0.363-0.174c-0.969-2.246-1.349-4.586-1.162-7.023
	c0.041-0.549,0.135-1.09,0.225-1.631c0.053-0.311,0.096-0.328,0.349-0.134c0.988,0.763,1.602,1.773,1.957,2.957
	C78.787,42.712,78.853,43.149,78.925,43.619z"/>
<path fill="#B16F0C" d="M38.681,70.699c-0.603-0.184-1.169,0.143-1.747,0.465c-0.562,0.313-1.151,0.576-1.759,0.799
	c-0.459,0.168-0.827,0.025-1.135-0.303c-0.507-0.541-0.744-1.182-0.691-1.935c0.056-0.808,0.191-1.591,0.533-2.329
	c0.286-0.618,0.569-0.816,1.455-0.645c0.085,0.018,0.171,0.043,0.249,0.08c0.994,0.48,2.085,0.535,3.146,0.715
	c0.396,0.066,0.794,0.113,1.191,0.164c0.135,0.019,0.166,0.059,0.12,0.203c-0.249,0.779-0.257,1.56,0.026,2.334
	c0.11,0.301,0.095,0.328-0.221,0.404C39.496,70.74,39.136,70.685,38.681,70.699z"/>
<path fill="#B16F0C" d="M51.73,69.917c0.074,0.681-0.244,1.273-0.738,1.787c-0.297,0.308-0.652,0.406-1.074,0.258
	c-0.826-0.291-1.599-0.694-2.361-1.115c-0.221-0.122-0.438-0.186-0.693-0.174c-0.436,0.021-0.871,0.018-1.309,0.021
	c-0.078,0.001-0.157-0.006-0.234-0.021c-0.401-0.08-0.426-0.108-0.287-0.482c0.269-0.734,0.258-1.473,0.032-2.209
	c-0.06-0.197-0.036-0.252,0.171-0.277c1.027-0.133,2.053-0.289,3.073-0.469c0.479-0.083,0.9-0.326,1.36-0.453
	c0.922-0.254,1.282,0.012,1.578,0.703C51.523,68.13,51.729,69.091,51.73,69.917z"/>
<path fill="#B16F0C" d="M74.966,12.022c-0.393-0.228-0.78-0.439-1.154-0.671c-1.314-0.815-2.587-1.694-3.587-2.894
	c-0.954-1.144-1.787-2.364-2.188-3.828c-0.043-0.159-0.078-0.321-0.123-0.48c-0.101-0.356-0.086-0.368,0.29-0.289
	c0.7,0.148,1.337,0.448,1.931,0.838c0.981,0.645,1.783,1.474,2.472,2.418c0.771,1.058,1.48,2.153,1.992,3.365
	c0.153,0.362,0.274,0.734,0.361,1.118C74.989,11.727,75.021,11.854,74.966,12.022z"/>
<path fill="#B16F0C" d="M17.09,3.819c0.194-0.022,0.134,0.089,0.112,0.195c-0.291,1.422-0.983,2.646-1.832,3.804
	c-1.155,1.575-2.695,2.681-4.335,3.675c-0.253,0.153-0.514,0.296-0.772,0.441c-0.049,0.027-0.101,0.092-0.162,0.038
	c-0.042-0.038-0.012-0.098-0.007-0.149c0.066-0.625,0.299-1.202,0.574-1.754c0.833-1.68,1.835-3.248,3.216-4.538
	c0.845-0.79,1.808-1.388,2.949-1.662C16.918,3.849,17.004,3.835,17.09,3.819z"/>
<path fill="#B16F0C" d="M37.614,78.775c-0.087-0.475-0.085-0.954-0.187-1.424c-0.18-0.838-0.389-0.955-1.16-0.588
	c-0.823,0.391-1.536,0.953-2.258,1.5c-0.076,0.058-0.151,0.115-0.271,0.148c0.193-0.354,0.386-0.707,0.579-1.061
	c0.709-1.29,1.472-2.545,2.302-3.764c0.919-1.352,2.22-1.832,3.777-1.803c0.572,0.01,0.743,0.307,0.497,0.825
	c-0.034,0.07-0.065,0.146-0.114,0.205c-0.877,1.121-1.401,2.438-2.049,3.688C38.342,77.253,37.984,78.018,37.614,78.775z"/>
<path fill="#B16F0C" d="M44.595,69.24c0.003,1.113-0.896,2.026-1.998,2.029c-1.154,0.003-2.047-0.867-2.064-2.016
	c-0.018-1.109,0.897-2.025,2.023-2.025C43.694,67.228,44.591,68.115,44.595,69.24z"/>
<path fill="#0960A7" d="M43.417,56.134c0.664-0.006,1.176-0.325,1.597-0.801c0.177-0.197,0.312-0.189,0.553-0.103
	c0.38,0.14,0.771,0.205,1.205,0.099c0.579-0.144,0.999-0.438,1.308-0.927c0.052-0.083,0.138-0.062,0.213-0.062
	c0.27,0.002,0.54,0.011,0.811,0.017c-0.707,1.293-1.516,2.522-2.33,3.748c-0.074,0.114-0.147,0.108-0.261,0.071
	c-0.95-0.324-1.922-0.555-2.924-0.639c-0.158-0.014-0.177-0.1-0.175-0.229C43.418,56.917,43.417,56.527,43.417,56.134z"/>
<path fill="#0960A7" d="M43.477,0.104c0.392,0.482,0.792,0.96,1.174,1.453c0.433,0.559,0.845,1.133,1.271,1.695
	c0.114,0.15,0.14,0.228-0.08,0.297c-0.716,0.226-1.444,0.394-2.19,0.485c-0.14,0.017-0.243,0.029-0.241-0.184
	c0.014-1.205,0.011-2.409,0.013-3.614C43.422,0.195,43.404,0.15,43.477,0.104z"/>
<path fill="#0960A7" d="M41.175,0.145c0.043,0.032,0.024,0.078,0.024,0.118c0,1.187-0.005,2.374,0.004,3.56
	c0.001,0.189-0.056,0.238-0.237,0.214c-0.762-0.1-1.508-0.266-2.237-0.507c-0.133-0.044-0.148-0.085-0.07-0.193
	c0.79-1.086,1.6-2.156,2.473-3.178C41.139,0.148,41.16,0.149,41.175,0.145z"/>
<path fill="#0960A7" d="M34.507,0.927c1.446-0.386,2.862-0.64,4.311-0.815c-0.046,0.152-0.151,0.247-0.235,0.353
	c-0.53,0.669-1.046,1.35-1.534,2.05c-0.111,0.16-0.195,0.19-0.373,0.083C35.906,2.132,35.189,1.599,34.507,0.927z"/>
<path fill="#0960A7" d="M49.848,62.167c-1.466,0.347-2.894,0.582-4.335,0.711c-0.041-0.071,0.012-0.104,0.043-0.143
	c0.575-0.699,1.123-1.421,1.659-2.15c0.064-0.088,0.108-0.166,0.243-0.094C48.306,60.944,49.095,61.479,49.848,62.167z"/>
<path fill="#0960A7" d="M34.88,62.074c0.724-0.654,1.483-1.17,2.303-1.604c0.067-0.035,0.122-0.055,0.178,0.025
	c0.566,0.78,1.158,1.543,1.801,2.342C37.694,62.682,36.305,62.427,34.88,62.074z"/>
<path fill="#0960A7" d="M43.417,62.438c0-0.571,0.001-1.146,0-1.72c0-0.407-0.002-0.817-0.003-1.227
	c0-0.095-0.025-0.201,0.137-0.185c0.691,0.073,1.369,0.21,2.057,0.433C44.916,60.69,44.208,61.587,43.417,62.438z"/>
<path fill="#0960A7" d="M41.199,62.5c-0.631-0.75-1.198-1.465-1.744-2.195c-0.059-0.076-0.114-0.154-0.172-0.23
	c-0.275-0.357-0.276-0.363,0.151-0.47c0.516-0.129,1.035-0.231,1.563-0.292c0.14-0.018,0.206-0.008,0.205,0.16
	C41.196,60.457,41.199,61.441,41.199,62.5z"/>
<path fill="#0960A7" d="M37.562,57.542c0.252,0.08,0.502,0.174,0.759,0.236c0.361,0.09,0.682-0.041,0.957-0.26
	c0.54-0.428,1.075-0.861,1.592-1.318c0.104-0.092,0.215-0.178,0.32-0.27c0.003,0.463,0.001,0.926,0.013,1.389
	c0.003,0.157-0.053,0.209-0.208,0.223c-0.968,0.084-1.91,0.289-2.827,0.607c-0.157,0.055-0.268,0.051-0.334-0.111
	C37.76,57.865,37.546,57.766,37.562,57.542z"/>
<path fill="#B16F0C" d="M42.687,25.067c-0.083-0.121-0.028-0.256-0.028-0.382c-0.005-3.237-0.004-6.475-0.004-9.712
	c0.018-0.005,0.032-0.002,0.047,0.01c0.001,3.093,0.002,6.186,0.003,9.279C42.703,24.53,42.692,24.798,42.687,25.067z"/>
<path fill="#121985" d="M56.083,42.259h-0.005c0.018-0.026,0.034-0.053,0.052-0.08c1.632,0.003,3.263,0.007,4.895,0.01
	c0.095,0,0.188,0,0.282,0.051c-1.697,0-3.395,0-5.091,0C56.171,42.246,56.126,42.253,56.083,42.259z"/>
<path fill="#121985" d="M61.791,47.228c-0.002,0.875-0.002,1.751-0.01,2.626c-0.002,0.093,0.057,0.21-0.064,0.278
	c0.005-0.866,0.01-1.732,0.017-2.6c0.001-0.104,0.017-0.207,0.024-0.31C61.769,47.22,61.781,47.221,61.791,47.228z"/>
<path fill="#121985" d="M61.768,45.432c-0.052-0.116-0.036-0.239-0.037-0.36c-0.006-0.816-0.01-1.635-0.015-2.451
	c0.119,0.059,0.062,0.168,0.063,0.254c0.008,0.851,0.01,1.701,0.014,2.551l-0.011,0.009L61.768,45.432z"/>
<path fill="#B16F0C" d="M71.68,64.762c0.04-0.03,0.08-0.062,0.119-0.093l-0.003-0.004c-0.044,0.023-0.049,0.097-0.115,0.092
	L71.68,64.762z"/>
<path fill="#B16F0C" d="M68.185,65.253c-0.027,0.016-0.057,0.031-0.085,0.047c0.003-0.01,0.002-0.024,0.009-0.032
	c0.022-0.024,0.049-0.047,0.08-0.011L68.185,65.253z"/>
<path fill="#B16F0C" d="M71.681,64.757c-0.002,0.013-0.004,0.025-0.006,0.037c0.004-0.004,0.012-0.008,0.012-0.012
	c0.001-0.007-0.004-0.014-0.007-0.021L71.681,64.757z"/>
<polygon fill="#B16F0C" points="69.281,54.821 69.274,54.822 69.285,54.818 "/>
<path fill="#B16F0C" d="M16.875,65.19c0.014,0.007,0.027,0.013,0.042,0.021c-0.008,0.008-0.018,0.017-0.025,0.023
	c-0.006-0.014-0.013-0.027-0.019-0.041L16.875,65.19z"/>
<path fill="#FDFDFC" d="M43.438,33.477c-0.005,0.296-0.015,0.592-0.016,0.888c-0.001,1.379-0.001,2.759-0.001,4.139
	c-0.389,0.002-0.78,0.032-1.166-0.002c-0.385-0.034-0.728,0.048-1.056,0.23c0-1.663,0-3.325,0-4.988
	c0-0.087-0.008-0.174-0.012-0.261c0.005-0.006,0.012-0.019,0.018-0.019C41.95,33.425,42.694,33.399,43.438,33.477z"/>
<path fill="#FDD898" d="M36.029,41.884c-0.202,0.13-0.397,0.273-0.609,0.386c-0.292,0.155-0.451,0.39-0.523,0.708
	c-0.212,0.926,0.179,1.839,1.021,2.354c0.971,0.592,2.032,0.746,3.146,0.647c0.339-0.03,0.672-0.099,1.008-0.146
	c0.864-0.119,1.512-0.646,2.18-1.135c0.674-0.492,0.668-0.494,1.346-0.039c2.97,1.993,5.938,3.988,8.914,5.973
	c0.211,0.142,0.219,0.244,0.077,0.426c-0.312,0.396-0.646,0.753-1.183,0.843c-0.268,0.045-0.505-0.009-0.719-0.157
	c-1.902-1.328-3.805-2.66-5.707-3.988c-0.079-0.057-0.157-0.11-0.238-0.162c-0.308-0.189-0.63-0.141-0.811,0.121
	c-0.192,0.281-0.127,0.598,0.182,0.818c0.462,0.329,0.931,0.649,1.396,0.975c1.358,0.949,2.717,1.898,4.074,2.85
	c0.257,0.18,0.257,0.219,0.067,0.475c-0.388,0.524-1.152,0.5-1.535,0.229c-1.201-0.854-2.393-1.724-3.588-2.588
	c-0.332-0.24-0.662-0.481-0.997-0.72c-0.306-0.217-0.654-0.174-0.855,0.101c-0.183,0.25-0.102,0.608,0.192,0.821
	c1.309,0.943,2.617,1.888,3.928,2.832c0.021,0.016,0.044,0.029,0.063,0.045c0.332,0.244,0.331,0.347-0.031,0.568
	c-0.37,0.225-0.74,0.141-1.098-0.041c-0.367-0.186-0.677-0.459-1.017-0.688c-0.457-0.307-0.904-0.625-1.357-0.936
	c-0.418-0.287-1.301-0.181-1.646,0.217c-0.102,0.115-0.175,0.148-0.3,0.07c-0.037-0.022-0.08-0.037-0.121-0.05
	c-0.146-0.046-0.358-0.046-0.425-0.146c-0.067-0.104,0.015-0.299,0.015-0.455c-0.004-0.764-0.497-1.379-1.195-1.506
	c-0.168-0.029-0.33-0.002-0.493,0.031c-0.122,0.023-0.189-0.002-0.214-0.146c-0.153-0.948-1.437-1.422-2.095-1.318
	c-0.315,0.051-0.52,0.273-0.757,0.445c-0.097,0.068-0.17,0.109-0.277,0.031c-0.142-0.104-0.308-0.104-0.476-0.104
	c-3.808,0.002-7.615-0.001-11.423,0.007c-0.241,0-0.326-0.043-0.324-0.309c0.013-1.809,0.009-3.615,0.003-5.424
	c0-0.193,0.04-0.266,0.253-0.278c0.655-0.044,1.309-0.017,1.963-0.022c1.52-0.018,3.039-0.002,4.558-0.026
	c0.646-0.011,1.292-0.019,1.938-0.021c0.217,0,0.385-0.08,0.526-0.242c0.381-0.435,0.795-0.832,1.289-1.14
	c0.266-0.163,0.536-0.272,0.861-0.251c0.329,0.023,0.661,0.006,0.991,0.006C36.013,41.845,36.021,41.865,36.029,41.884z"/>
<path fill="#FDD898" d="M57.492,49.38c-0.927,0-1.853,0-2.776-0.002c-0.251,0-0.447,0.074-0.596,0.302
	c-0.194,0.298-0.497,0.341-0.789,0.146c-2.391-1.607-4.777-3.215-7.167-4.82c-0.892-0.598-1.79-1.182-2.677-1.787
	c-0.334-0.227-0.646-0.201-0.979-0.026c-0.451,0.235-0.878,0.517-1.26,0.843c-0.623,0.532-1.354,0.742-2.139,0.809
	c-0.796,0.068-1.59,0.054-2.326-0.324c-0.365-0.188-0.688-0.417-0.798-0.85c-0.06-0.236-0.006-0.397,0.214-0.547
	c1.813-1.248,3.801-2.207,5.64-3.413c0.111-0.072,0.223-0.086,0.346-0.084c1.973,0.036,3.944,0.072,5.916,0.104
	c0.335,0.006,0.619,0.11,0.886,0.318c1.163,0.91,2.26,1.896,3.328,2.91c0.317,0.301,0.642,0.44,1.089,0.438
	c2.306-0.021,4.609-0.007,6.915-0.014c0.214-0.002,0.282,0.051,0.282,0.273c-0.009,1.814-0.009,3.631-0.001,5.446
	c0.001,0.215-0.06,0.285-0.279,0.282C59.377,49.375,58.434,49.38,57.492,49.38z"/>
<path fill="#FDD898" d="M39.733,52.167c0.012,0.271-0.146,0.484-0.336,0.666c-0.813,0.776-1.637,1.545-2.458,2.314
	c-0.051,0.047-0.105,0.092-0.161,0.135c-0.48,0.371-0.89,0.252-1.098-0.32c-0.077-0.211-0.043-0.399,0.129-0.545
	c0.911-0.76,1.823-1.52,2.74-2.271c0.196-0.161,0.422-0.28,0.662-0.366C39.588,51.644,39.735,51.75,39.733,52.167z"/>
<path fill="#FDD898" d="M37.888,50.912c-0.008,0.191-0.083,0.358-0.229,0.48c-0.854,0.717-1.709,1.432-2.569,2.143
	c-0.16,0.133-0.363,0.172-0.566,0.172c-0.407,0-0.674-0.373-0.539-0.76c0.072-0.207,0.188-0.393,0.366-0.531
	c0.866-0.674,1.736-1.345,2.595-2.027c0.209-0.166,0.386-0.09,0.576,0.002C37.741,50.494,37.898,50.644,37.888,50.912z"/>
<path fill="#FDD898" d="M41.195,54.199c0.01,0.174-0.071,0.303-0.197,0.408c-0.779,0.659-1.56,1.316-2.335,1.979
	c-0.084,0.072-0.174,0.088-0.268,0.051c-0.259-0.102-0.456-0.284-0.62-0.506c-0.081-0.107-0.031-0.189,0.06-0.27
	c0.771-0.666,1.543-1.335,2.314-2.001c0.223-0.19,0.483-0.194,0.74-0.106C41.087,53.822,41.188,53.986,41.195,54.199z"/>
<path fill="#FDD898" d="M42.45,54.024c0-0.081-0.002-0.116,0-0.151c0.037-0.469,0.178-0.535,0.565-0.27
	c0.359,0.246,0.713,0.501,1.078,0.736c0.171,0.109,0.153,0.185,0.023,0.312c-0.4,0.4-0.688,0.426-1.172,0.129
	C42.635,54.591,42.405,54.376,42.45,54.024z"/>
<path fill="#FDD898" d="M32.248,51.893c-0.257-0.011-0.331-0.222-0.43-0.401c-0.081-0.148-0.086-0.281,0.039-0.429
	c0.239-0.28,0.497-0.46,0.895-0.399c0.247,0.037,0.504,0.004,0.756,0.008c0.062,0.002,0.152-0.034,0.18,0.057
	c0.021,0.07-0.022,0.143-0.071,0.188c-0.13,0.115-0.27,0.222-0.405,0.328c-0.239,0.188-0.479,0.377-0.719,0.562
	C32.421,51.86,32.34,51.891,32.248,51.893z"/>
<path fill="#121985" d="M61.344,50.5c-0.077,0.131-0.203,0.066-0.305,0.066c-2.052,0.005-4.103,0.005-6.152,0.006
	c0.105-0.09,0.233-0.051,0.351-0.051c1.914-0.003,3.828-0.002,5.742-0.003C61.101,50.518,61.223,50.505,61.344,50.5z"/>
<path fill="#FDFDFC" d="M37.53,20.194c-0.002,1.106-0.922,2.027-2.015,2.016c-1.104-0.011-1.99-0.922-1.985-2.039
	c0.006-1.092,0.919-1.995,2.008-1.986C36.63,18.193,37.532,19.103,37.53,20.194z"/>
<path fill="#FDFDFC" d="M34.896,17.807c0.209-0.682,0.406-1.327,0.628-2.052c0.225,0.725,0.426,1.375,0.639,2.064
	c0.524-0.488,1.024-0.952,1.585-1.472c-0.168,0.733-0.318,1.392-0.479,2.088C36.576,17.822,35.807,17.602,34.896,17.807z"/>
<path fill="#FDFDFC" d="M33.743,21.963c0.199,0.132,0.396,0.271,0.603,0.392c0.155,0.09,0.325,0.153,0.515,0.24
	c-0.507,0.473-1.001,0.932-1.554,1.447c0.133-0.579,0.251-1.08,0.361-1.583c0.036-0.166,0.119-0.325,0.083-0.503L33.743,21.963z"/>
<path fill="#FDFDFC" d="M39.378,17.972c-0.517,0.554-0.983,1.055-1.466,1.575c-0.124-0.42-0.333-0.764-0.622-1.091
	C37.983,18.295,38.649,18.141,39.378,17.972z"/>
<path fill="#FDFDFC" d="M33.75,21.957c-0.668,0.146-1.337,0.292-2.065,0.452c0.503-0.54,0.968-1.04,1.466-1.575
	c0.097,0.458,0.377,0.775,0.593,1.13L33.75,21.957z"/>
<path fill="#FDFDFC" d="M37.908,20.84c0.489,0.527,0.954,1.026,1.467,1.578c-0.735-0.168-1.399-0.321-2.096-0.48
	C37.568,21.617,37.786,21.279,37.908,20.84z"/>
<path fill="#FDFDFC" d="M37.752,24.048c-0.553-0.515-1.049-0.975-1.567-1.457c0.392-0.154,0.751-0.318,1.076-0.652
	C37.426,22.646,37.579,23.306,37.752,24.048z"/>
<path fill="#FDFDFC" d="M31.671,17.97c0.748,0.174,1.408,0.328,2.094,0.488c-0.29,0.316-0.493,0.657-0.621,1.091
	C32.655,19.023,32.183,18.518,31.671,17.97z"/>
<path fill="#FDFDFC" d="M35.524,24.645c-0.221-0.726-0.419-1.378-0.625-2.053c0.43,0.085,0.833,0.084,1.253,0
	C35.947,23.263,35.748,23.915,35.524,24.645z"/>
<path fill="#FDFDFC" d="M33.785,18.433c-0.16-0.695-0.312-1.351-0.481-2.087c0.554,0.515,1.049,0.976,1.566,1.457
	C34.466,17.945,34.114,18.137,33.785,18.433z"/>
<path fill="#FDFDFC" d="M31.082,20.196c0.709-0.218,1.36-0.418,2.043-0.627c-0.061,0.392-0.093,0.754-0.014,1.115
	c0.028,0.123-0.025,0.127-0.127,0.095C32.372,20.588,31.757,20.402,31.082,20.196z"/>
<path fill="#FDFDFC" d="M39.973,20.195c-0.714,0.218-1.36,0.416-2.056,0.628c0.099-0.421,0.103-0.814-0.004-1.257
	C38.609,19.779,39.256,19.977,39.973,20.195z"/>
</svg>
