<?xml version="1.0" encoding="utf-8"?>
<!-- Generator: Adobe Illustrator 16.0.0, SVG Export Plug-In . SVG Version: 6.00 Build 0)  -->
<!DOCTYPE svg PUBLIC "-//W3C//DTD SVG 1.1//EN" "http://www.w3.org/Graphics/SVG/1.1/DTD/svg11.dtd">
<svg version="1.1" id="svg2" xmlns:svg="http://www.w3.org/2000/svg"
	 xmlns="http://www.w3.org/2000/svg" xmlns:xlink="http://www.w3.org/1999/xlink" x="0px" y="0px" width="85px" height="70px"
	 viewBox="0 -29.148 85 70" enable-background="new 0 -29.148 85 70" xml:space="preserve">
<g id="layer1" transform="translate(-81.071429,-984.04451)">
	<g id="g3188" transform="translate(1.9021745,1.841155)">
		<path id="path2396" fill="#0165B0" d="M79.171,993.906h3.119v-3.365h5.904v-1.59H82.29v-2.02h6.425v-1.989h-6.638
			c-1.184,0-2.86,1.547-2.86,2.86L79.171,993.906z"/>
		<path id="path2398" fill="#0165B0" d="M92.723,985.041c-1.027,0-2.751,1.646-2.751,2.569v3.701c0,0.985,1.729,2.596,2.563,2.596
			h6.172c0.686,0,2.5-1.454,2.5-2.596v-3.535c0-1.106-1.57-2.735-2.645-2.735H92.723L92.723,985.041z M93.06,987.002h5.166
			c0,0,0.04,4.832,0,4.982c-0.041,0.149-5.166,0-5.166,0V987.002z"/>
		<path id="path2402" fill="#0165B0" d="M102.083,984.914h3.548l1.958,2.354l2.172-2.354h3.701l-3.977,4.525l3.854,4.467h-3.518
			l-2.233-2.479l-2.05,2.479h-3.67l3.945-4.467L102.083,984.914z"/>
		<path id="path2404" fill="#0165B0" d="M123.587,987.055h-6.485v4.955h6.485v1.896h-6.485c-0.658,0-2.967-1.488-2.967-2.631v-3.702
			c0-0.789,1.855-2.568,2.967-2.568h6.516L123.587,987.055z"/>
		<path id="path2406" fill="#0165B0" d="M137.568,993.906h3.149v-6.883h5.047v6.883h3.047v-5.965c0.021-1.186-1.5-3.004-2.938-2.982
			h-8.243L137.568,993.906z"/>
		<path id="text2408" fill="#0165B0" d="M162.663,982.203c0.254,0,0.5,0.065,0.742,0.195c0.24,0.13,0.43,0.314,0.562,0.557
			c0.135,0.242,0.2,0.494,0.2,0.758c0,0.26-0.065,0.509-0.198,0.748c-0.131,0.24-0.316,0.427-0.558,0.56
			c-0.237,0.133-0.489,0.199-0.75,0.199c-0.262,0-0.512-0.066-0.75-0.199c-0.239-0.132-0.426-0.319-0.562-0.56
			c-0.133-0.239-0.198-0.488-0.198-0.748c0-0.264,0.065-0.516,0.202-0.758c0.136-0.242,0.322-0.427,0.564-0.557
			C162.161,982.269,162.411,982.203,162.663,982.203L162.663,982.203z M162.663,982.453c-0.211,0-0.418,0.055-0.617,0.163
			c-0.201,0.108-0.357,0.265-0.471,0.466c-0.113,0.201-0.17,0.412-0.17,0.631c0,0.217,0.055,0.425,0.166,0.623
			c0.111,0.199,0.268,0.354,0.467,0.467c0.199,0.111,0.408,0.167,0.625,0.167s0.426-0.056,0.627-0.167
			c0.199-0.111,0.354-0.268,0.465-0.467c0.111-0.198,0.166-0.406,0.166-0.623c0-0.219-0.057-0.43-0.17-0.631
			c-0.111-0.203-0.27-0.357-0.471-0.466C163.079,982.507,162.874,982.453,162.663,982.453L162.663,982.453z M162.003,984.545v-1.623
			h0.557c0.191,0,0.328,0.016,0.414,0.045c0.086,0.031,0.152,0.082,0.203,0.158c0.051,0.074,0.076,0.153,0.076,0.237
			c0,0.119-0.043,0.222-0.127,0.31s-0.197,0.138-0.336,0.147c0.057,0.024,0.104,0.053,0.137,0.086
			c0.066,0.063,0.146,0.171,0.24,0.322l0.197,0.317h-0.318l-0.145-0.256c-0.113-0.201-0.205-0.326-0.273-0.377
			c-0.049-0.037-0.119-0.056-0.211-0.056h-0.152v0.688h-0.262V984.545z M162.264,983.633h0.316c0.152,0,0.256-0.023,0.311-0.068
			c0.058-0.045,0.084-0.105,0.084-0.18c0-0.049-0.014-0.092-0.041-0.129c-0.024-0.039-0.062-0.066-0.108-0.086
			c-0.047-0.019-0.135-0.027-0.265-0.027h-0.297V983.633z"/>
		<path id="path2413" fill="#0165B0" d="M127.742,985.041c-1.026,0-2.752,1.646-2.752,2.569v3.701c0,0.985,1.729,2.596,2.562,2.596
			h6.172c0.688,0,2.5-1.454,2.5-2.596v-3.535c0-1.106-1.569-2.735-2.645-2.735H127.742L127.742,985.041z M128.077,987.002h5.166
			c0,0,0.041,4.832,0,4.982c-0.039,0.149-5.166,0-5.166,0V987.002z"/>
		<path id="path2415" fill="#0165B0" d="M150.033,993.906h3.149v-6.883h5.047v6.883h3.048v-5.965
			c0.021-1.186-1.498-3.004-2.938-2.982h-8.242L150.033,993.906z"/>
	</g>
</g>
</svg>
