<?xml version="1.0" encoding="utf-8"?>
<!-- Generator: Adobe Illustrator 16.0.0, SVG Export Plug-In . SVG Version: 6.00 Build 0)  -->
<!DOCTYPE svg PUBLIC "-//W3C//DTD SVG 1.1//EN" "http://www.w3.org/Graphics/SVG/1.1/DTD/svg11.dtd">
<svg version="1.1" id="Layer_1" xmlns="http://www.w3.org/2000/svg" xmlns:xlink="http://www.w3.org/1999/xlink" x="0px" y="0px"
	 width="85px" height="70px" viewBox="0 -19.114 85 70" enable-background="new 0 -19.114 85 70" xml:space="preserve">
<g>
	<path d="M49.134,0.013c1.901,0.175,3.815,0.237,5.705,0.492c2.604,0.351,5.201,0.797,7.785,1.281
		c1.776,0.333,3.553,0.717,5.286,1.226c1.918,0.562,3.807,1.241,5.675,1.958c3.222,1.233,6.244,2.83,8.767,5.235
		c1.246,1.188,2.191,2.594,2.521,4.311c0.46,2.396-0.372,4.423-1.969,6.173c-2.09,2.292-4.747,3.78-7.504,5.074
		c-3.393,1.592-6.945,2.799-10.606,3.563c-3.849,0.804-7.737,1.422-11.63,1.98c-2.076,0.299-4.193,0.294-6.291,0.454
		c-0.277,0.021-9.225,0.014-9.53-0.049c-0.3-0.062-0.626,0.018-0.938-0.009c-2.359-0.198-4.734-0.298-7.073-0.64
		c-3.343-0.486-6.69-1.021-9.977-1.785c-2.573-0.598-5.077-1.52-7.575-2.399c-3.37-1.188-6.512-2.821-9.163-5.265
		c-1.164-1.072-2.111-2.318-2.571-3.88c-0.067-0.227-0.06-3.513-0.002-3.697c0.442-1.417,1.222-2.625,2.279-3.644
		C5.297,7.532,8.977,5.86,12.776,4.488c2.603-0.938,5.292-1.685,7.993-2.296c2.845-0.645,5.741-1.087,8.63-1.505
		c2.149-0.311,4.325-0.431,6.486-0.66C36.142,0.001,48.876-0.01,49.134,0.013z M78.119,21.75c0.429-0.23,0.668-0.303,0.831-0.456
		c0.979-0.924,2.038-1.786,2.888-2.819c1.398-1.701,1.451-3.592,0.092-5.317c-0.886-1.124-1.935-2.185-3.094-3.017
		C75.283,7.59,71.221,6.101,67.033,5c-3.055-0.803-6.145-1.557-9.268-1.982c-4.09-0.561-8.221-0.978-12.345-1.101
		C37.179,1.67,29.006,2.389,20.954,4.301c-3.441,0.818-6.805,1.832-10.058,3.211c-2.71,1.149-5.228,2.604-7.303,4.74
		c-0.866,0.894-1.513,1.94-1.697,3.142c-0.208,1.354,0.401,2.552,1.262,3.581c2.369,2.833,5.564,4.438,8.89,5.78
		c2.977,1.202,6.041,2.164,9.207,2.77c2.25,0.431,4.481,0.993,6.747,1.312c4.405,0.619,8.841,0.899,13.293,0.952
		c6.137,0.071,12.217-0.485,18.264-1.475c0.905-0.147,1.816-0.293,2.701-0.526c2.4-0.64,4.826-1.214,7.17-2.022
		c2.342-0.808,4.604-1.851,6.883-2.831c0.528-0.229,0.987-0.62,1.479-0.936c-0.02-0.073-0.039-0.146-0.057-0.219
		c-0.219-0.044-0.438-0.124-0.656-0.124c-2.562,0.003-5.127-0.005-7.689,0.044c-0.648,0.013-0.791-0.25-0.789-0.812
		c0.012-3.435,0.002-6.87,0.012-10.305c0.006-2.056-0.098-1.86,1.838-1.842c0.912,0.009,1.025,0.116,1.023,1.055
		c-0.004,2.83-0.015,5.66-0.007,8.49c0.003,0.896,0.187,1.05,1.076,1.051c1.597,0.001,3.192,0.023,4.789-0.002
		c0.579-0.01,0.792,0.241,0.79,0.771C78.118,20.58,78.119,21.053,78.119,21.75z"/>
	<path fill="#FFFFFF" d="M78.119,21.75c0-0.697-0.001-1.17,0-1.644c0.002-0.529-0.211-0.78-0.79-0.771
		c-1.597,0.025-3.192,0.003-4.789,0.002c-0.89-0.001-1.073-0.154-1.076-1.051c-0.008-2.83,0.002-5.66,0.007-8.49
		c0.002-0.938-0.111-1.046-1.023-1.055c-1.936-0.02-1.832-0.214-1.838,1.842c-0.008,3.435,0,6.87-0.012,10.305
		c-0.002,0.562,0.141,0.823,0.789,0.812c2.562-0.049,5.127-0.041,7.689-0.044c0.219,0,0.438,0.08,0.656,0.124
		c0.019,0.071,0.037,0.146,0.057,0.219c-0.491,0.314-0.95,0.707-1.479,0.936c-2.279,0.98-4.541,2.023-6.883,2.831
		c-2.344,0.81-4.77,1.384-7.17,2.022c-0.885,0.233-1.795,0.379-2.701,0.526c-6.047,0.988-12.127,1.546-18.264,1.475
		c-4.452-0.053-8.888-0.333-13.293-0.952c-2.266-0.318-4.496-0.882-6.747-1.312c-3.166-0.604-6.23-1.566-9.207-2.77
		c-3.325-1.343-6.521-2.947-8.89-5.78c-0.861-1.029-1.47-2.228-1.262-3.581c0.184-1.2,0.831-2.248,1.697-3.142
		c2.075-2.138,4.592-3.591,7.303-4.74c3.252-1.379,6.617-2.393,10.058-3.211C29.005,2.389,37.177,1.67,45.42,1.917
		c4.124,0.123,8.255,0.54,12.344,1.101C60.887,3.445,63.979,4.198,67.032,5c4.187,1.101,8.25,2.59,11.802,5.141
		c1.16,0.832,2.208,1.893,3.094,3.017c1.359,1.727,1.307,3.616-0.092,5.317c-0.85,1.033-1.908,1.896-2.888,2.819
		C78.787,21.448,78.548,21.52,78.119,21.75z M49.301,14.477c-0.015,2.483,0.312,4.094,1.381,5.37
		c2.012,2.401,5.377,2.782,8.155,1.551c1.668-0.738,2.646-2.065,3.136-3.836c0.512-1.852,0.409-3.687-0.238-5.414
		c-0.729-1.948-2.284-3.132-4.357-3.508c-1.768-0.32-3.508-0.219-5.111,0.694C49.945,10.653,49.359,12.851,49.301,14.477z
		 M12.132,8.514c-1.267-0.072-2.476,0.247-3.57,0.912c-1.844,1.121-2.668,2.844-2.777,4.954c-0.118,2.286,0.125,4.456,1.952,6.118
		c1.146,1.044,2.549,1.491,4.048,1.53c2.411,0.065,4.518-0.578,5.916-2.774c0.822-1.292,1.004-2.743,0.976-4.165
		c-0.028-1.451-0.237-2.944-1.204-4.181C16.116,9.174,14.327,8.434,12.132,8.514z M39.35,15.347
		c-0.051-1.602,0.293-2.938,1.564-3.937c1.268-0.994,3.798-0.491,4.25,0.898c0.186,0.572,0.607,0.837,1.234,0.771
		c0.334-0.035,0.677,0.003,1.016,0.006c0.768,0.006,1.1-0.396,0.752-1.1c-0.357-0.721-0.792-1.447-1.354-2.015
		c-1.479-1.488-3.389-1.671-5.331-1.391c-0.854,0.124-1.745,0.436-2.476,0.892c-1.732,1.082-2.332,2.865-2.618,4.784
		c-0.229,1.525,0.01,3.008,0.609,4.394c1.299,3.006,4.428,3.925,7.364,3.179c1.961-0.499,3.117-1.839,3.798-3.658
		c0.237-0.637-0.046-0.974-0.724-0.935c-0.312,0.019-0.629,0.051-0.936,0.015c-0.646-0.076-1.041,0.189-1.322,0.768
		c-0.869,1.78-3.244,2.168-4.655,0.771C39.538,17.815,39.275,16.592,39.35,15.347z M20.383,15.184c0.002,0,0.005,0,0.008,0
		c0,0.942,0.002,1.884,0,2.826c-0.003,0.941,0,1.884-0.021,2.825c-0.013,0.608,0.248,0.894,0.869,0.857
		c0.409-0.021,0.822-0.023,1.231,0.001c0.568,0.037,0.782-0.211,0.771-0.769c-0.021-1.038,0.008-2.077-0.008-3.115
		c-0.009-0.549,0.221-0.8,0.771-0.796c0.869,0.006,1.743-0.064,2.607-0.003c2.207,0.156,3.834-1.503,4.004-3.686
		c0.17-2.195-0.806-4.168-3.179-4.397c-2.154-0.208-4.335-0.146-6.505-0.174c-0.474-0.006-0.55,0.382-0.549,0.779
		C20.385,11.417,20.383,13.301,20.383,15.184z M66.6,15.303c-0.006,0-0.01,0-0.015,0c0-1.62-0.013-3.241,0.004-4.861
		c0.017-1.712,0.029-1.712-1.641-1.725c-1.087-0.009-1.208,0.102-1.21,1.195c-0.004,3.217,0,6.436,0,9.651
		c0,2.155,0.002,2.145,2.152,2.132c0.532-0.004,0.725-0.195,0.717-0.731C66.585,19.077,66.6,17.19,66.6,15.303z M32.057,15.18
		c0.007,0,0.014,0,0.02,0c0,1.521,0,3.041,0,4.562c0,2.026,0,2.022,2.026,1.958c0.525-0.019,0.765-0.194,0.762-0.785
		c-0.021-3.451-0.017-6.902,0.011-10.354c0.015-1.851,0.043-1.851-1.78-1.842c-0.936,0.005-1.04,0.109-1.039,1.029
		C32.058,11.56,32.057,13.37,32.057,15.18z"/>
	<path d="M49.301,14.477c0.059-1.626,0.645-3.823,2.965-5.143c1.604-0.913,3.344-1.016,5.111-0.694
		c2.073,0.376,3.628,1.56,4.357,3.508c0.647,1.729,0.75,3.562,0.238,5.414c-0.49,1.771-1.468,3.098-3.136,3.836
		c-2.778,1.231-6.144,0.852-8.155-1.551C49.613,18.57,49.286,16.96,49.301,14.477z M55.945,19.76
		c0.072,0.008,0.145,0.011,0.216,0.023c1.202,0.206,2.171-0.449,2.67-1.305c0.344-0.588,0.167-1.672-0.118-2.399
		c-0.671-1.714-1.539-3.354-2.348-5.012c-0.118-0.24-0.354-0.425-0.535-0.635c-0.219,0.212-0.499,0.388-0.643,0.643
		c-0.65,1.146-1.334,2.285-1.864,3.488c-0.353,0.797-0.644,1.698-0.648,2.556C52.669,18.487,54.227,19.644,55.945,19.76z"/>
	<path d="M12.132,8.514c2.194-0.08,3.984,0.66,5.34,2.396c0.967,1.235,1.176,2.729,1.204,4.181c0.028,1.422-0.154,2.873-0.976,4.165
		c-1.398,2.196-3.504,2.841-5.916,2.775c-1.5-0.04-2.903-0.487-4.048-1.531c-1.827-1.662-2.07-3.832-1.952-6.118
		c0.109-2.11,0.933-3.833,2.777-4.954C9.656,8.761,10.865,8.441,12.132,8.514z M15.927,15.304c-0.193-0.766-0.35-1.542-0.588-2.293
		c-0.375-1.184-1.605-2.062-2.787-2.206c-1.414-0.17-2.943,0.847-3.362,1.828c-0.848,1.985-0.892,3.929,0.392,5.776
		c1.144,1.646,4.145,1.648,5.286-0.008C15.5,17.483,15.783,16.448,15.927,15.304z"/>
	<path d="M39.35,15.347c-0.075,1.245,0.188,2.469,1.173,3.443c1.411,1.396,3.786,1.009,4.655-0.771
		c0.282-0.577,0.676-0.844,1.322-0.768c0.307,0.036,0.624,0.004,0.936-0.015c0.678-0.039,0.961,0.298,0.724,0.935
		c-0.681,1.819-1.836,3.159-3.798,3.658c-2.937,0.746-6.065-0.173-7.364-3.179c-0.599-1.386-0.837-2.867-0.609-4.394
		c0.287-1.919,0.886-3.702,2.618-4.784c0.73-0.456,1.621-0.768,2.476-0.892c1.942-0.28,3.852-0.099,5.331,1.391
		c0.562,0.566,0.996,1.294,1.354,2.015c0.348,0.702,0.016,1.104-0.752,1.1c-0.338-0.003-0.682-0.041-1.016-0.006
		c-0.627,0.065-1.049-0.198-1.234-0.771c-0.452-1.391-2.983-1.894-4.25-0.898C39.644,12.407,39.299,13.745,39.35,15.347z"/>
	<path d="M20.383,15.184c0-1.883,0.001-3.767-0.002-5.648c0-0.397,0.076-0.785,0.549-0.779c2.17,0.028,4.351-0.034,6.505,0.174
		c2.373,0.229,3.349,2.202,3.179,4.397c-0.169,2.183-1.797,3.842-4.004,3.686c-0.864-0.062-1.738,0.009-2.607,0.003
		c-0.55-0.004-0.781,0.247-0.771,0.796c0.016,1.038-0.014,2.077,0.008,3.115c0.011,0.558-0.203,0.806-0.771,0.769
		c-0.409-0.024-0.822-0.022-1.231-0.001c-0.622,0.035-0.882-0.249-0.869-0.857c0.021-0.941,0.018-1.884,0.021-2.825
		c0.003-0.942,0-1.884,0-2.826C20.389,15.184,20.386,15.184,20.383,15.184z M23.256,12.914c0,0.434-0.049,0.875,0.021,1.297
		c0.034,0.2,0.291,0.511,0.455,0.517c0.91,0.03,1.839,0.08,2.73-0.065c0.935-0.154,1.419-1.027,1.326-2.032
		c-0.073-0.781-0.731-1.371-1.635-1.457c-0.312-0.029-0.625-0.043-0.936-0.073C23.305,10.912,23.191,11.016,23.256,12.914z"/>
	<path d="M66.6,15.303c0,1.888-0.015,3.774,0.008,5.661c0.007,0.536-0.186,0.729-0.719,0.731c-2.15,0.013-2.15,0.023-2.15-2.132
		c-0.002-3.217-0.004-6.436,0-9.651c0-1.095,0.121-1.204,1.209-1.195c1.67,0.013,1.658,0.013,1.641,1.725
		c-0.018,1.62-0.004,3.241-0.004,4.861C66.59,15.303,66.594,15.303,66.6,15.303z"/>
	<path d="M32.057,15.18c0-1.81,0.001-3.62,0-5.43c-0.001-0.92,0.103-1.024,1.039-1.029c1.823-0.009,1.795-0.009,1.78,1.842
		c-0.027,3.45-0.031,6.901-0.011,10.354c0.003,0.591-0.236,0.768-0.762,0.785c-2.026,0.064-2.026,0.068-2.026-1.958
		c0-1.521,0-3.042,0-4.562C32.071,15.18,32.064,15.18,32.057,15.18z"/>
	<path fill="#7BCA77" d="M55.945,19.761c-1.719-0.117-3.276-1.273-3.271-2.642c0.005-0.856,0.296-1.759,0.648-2.556
		c0.53-1.203,1.213-2.342,1.864-3.488c0.144-0.255,0.424-0.431,0.643-0.643c0.182,0.21,0.417,0.395,0.535,0.635
		c0.81,1.658,1.677,3.298,2.348,5.012c0.285,0.729,0.462,1.812,0.118,2.399c-0.499,0.854-1.468,1.511-2.67,1.305
		C56.09,19.771,56.018,19.768,55.945,19.761z"/>
	<path fill="#FFFFFF" d="M15.927,15.304c-0.144,1.145-0.427,2.18-1.06,3.099c-1.141,1.656-4.142,1.653-5.286,0.008
		c-1.283-1.849-1.239-3.791-0.392-5.776c0.419-0.981,1.948-1.998,3.362-1.828c1.182,0.144,2.411,1.022,2.787,2.206
		C15.578,13.762,15.734,14.538,15.927,15.304z"/>
	<path fill="#FFFFFF" d="M23.256,12.914c-0.065-1.898,0.049-2.002,1.962-1.815c0.312,0.03,0.625,0.044,0.936,0.073
		c0.903,0.086,1.562,0.676,1.635,1.457c0.093,1.005-0.391,1.878-1.326,2.032c-0.892,0.146-1.821,0.097-2.73,0.065
		c-0.165-0.006-0.421-0.315-0.455-0.517C23.207,13.789,23.256,13.348,23.256,12.914z"/>
</g>
</svg>
