<?xml version="1.0" encoding="utf-8"?>
<!-- Generator: Adobe Illustrator 16.0.0, SVG Export Plug-In . SVG Version: 6.00 Build 0)  -->
<!DOCTYPE svg PUBLIC "-//W3C//DTD SVG 1.1//EN" "http://www.w3.org/Graphics/SVG/1.1/DTD/svg11.dtd">
<svg version="1.1" id="Layer_1" xmlns="http://www.w3.org/2000/svg" xmlns:xlink="http://www.w3.org/1999/xlink" x="0px" y="0px"
	 width="85px" height="70px" viewBox="0 -14.937 85 70" enable-background="new 0 -14.937 85 70" xml:space="preserve">
<g>
	<path fill="#BD0272" d="M42.728,0c0.374,0.146,0.775,0.128,1.163,0.177c3.693,0.468,6.672,2.207,9.057,5.031
		c0.812,0.961,1.603,1.938,2.33,2.962c1.207,1.694,2.852,2.75,4.785,3.407c1.412,0.48,2.867,0.752,4.359,0.785
		c0.309,0.006,0.479,0.066,0.453,0.422c-0.021,0.29,0.006,0.584,0.021,0.875c0.01,0.164-0.039,0.239-0.215,0.231
		c-3.453-0.166-6.685-0.944-9.332-3.351c-0.548-0.499-0.984-1.093-1.428-1.682c-1.062-1.411-2.131-2.818-3.422-4.035
		c-1.908-1.798-4.186-2.795-6.771-3.151c-2.936-0.405-5.689,0.118-8.26,1.574c-1.629,0.923-2.887,2.271-4.047,3.712
		c-0.517,0.641-1.041,1.279-1.509,1.955c-1.5,2.162-3.584,3.471-6.059,4.226c-1.52,0.464-3.077,0.704-4.666,0.745
		c-0.163,0.004-0.207-0.036-0.2-0.194c0.014-0.335,0.031-0.673,0.008-1.007c-0.018-0.258,0.096-0.315,0.315-0.315
		c1.067-0.003,2.116-0.16,3.15-0.406c2.024-0.482,3.884-1.287,5.339-2.836c0.772-0.822,1.381-1.778,2.084-2.658
		c0.969-1.212,1.982-2.379,3.184-3.373c1.975-1.634,4.262-2.525,6.775-2.902c0.42-0.062,0.853-0.041,1.259-0.19
		C41.644,0,42.186,0,42.728,0z"/>
	<path fill="#252122" d="M0,32.711c1.559,0.004,3.117,0.013,4.676,0.006c0.246-0.002,0.355,0.047,0.326,0.316
		c-0.025,0.225-0.02,0.455-0.001,0.68c0.018,0.211-0.068,0.25-0.259,0.25c-0.996-0.01-1.992,0-2.988-0.01
		C1.546,33.952,1.47,34,1.48,34.222c0.018,0.399,0.017,0.801,0,1.2c-0.008,0.203,0.058,0.254,0.254,0.252
		c0.833-0.012,1.667,0.004,2.5-0.01c0.228-0.004,0.311,0.06,0.289,0.289c-0.03,0.311,0.127,0.713-0.059,0.91
		c-0.187,0.201-0.592,0.057-0.901,0.061c-0.617,0.013-1.234,0.012-1.851,0c-0.188-0.004-0.233,0.059-0.231,0.238
		c0.008,0.854-0.005,1.709,0.009,2.564c0.003,0.23-0.066,0.295-0.291,0.283C0.801,39.993,0.4,40,0,39.997C0,37.568,0,35.14,0,32.711
		z"/>
	<path fill="#252122" d="M27.185,40.125c-0.036-0.094-0.129-0.067-0.195-0.086c-1.138-0.312-1.764-1.056-1.929-2.221
		c-0.168-1.188,0.346-2.355,1.292-2.861c1.08-0.578,2.432-0.451,3.296,0.357c0.863,0.809,1.038,1.83,0.721,2.922
		c-0.291,1-0.966,1.641-2.021,1.828c-0.022,0.004-0.04,0.04-0.059,0.061C27.921,40.125,27.553,40.125,27.185,40.125z M26.477,37.359
		c0.017,0.245,0.036,0.493,0.117,0.731c0.188,0.554,0.641,0.898,1.181,0.896c0.546-0.003,0.991-0.344,1.169-0.906
		c0.151-0.479,0.154-0.961-0.005-1.437c-0.151-0.452-0.457-0.765-0.933-0.858c-0.474-0.093-0.876,0.066-1.184,0.441
		C26.552,36.555,26.507,36.954,26.477,37.359z"/>
	<path fill="#252122" d="M38.11,40.125c-0.037-0.088-0.129-0.067-0.195-0.092c-0.675-0.242-1.039-0.744-1.041-1.445
		c-0.002-0.709,0.349-1.207,1.027-1.449c0.603-0.215,1.249-0.26,1.857-0.452c0.144-0.046,0.371,0.006,0.369-0.265
		c-0.002-0.277-0.068-0.519-0.347-0.639c-0.569-0.248-1.132-0.074-1.443,0.457c-0.064,0.108-0.126,0.127-0.23,0.105
		c-0.36-0.068-0.721-0.137-1.101-0.208c0.205-0.729,0.602-1.247,1.362-1.425c0.677-0.155,1.355-0.147,2.027,0.016
		c0.704,0.17,1.043,0.584,1.104,1.298c0.059,0.683,0.012,1.363,0.004,2.046c-0.007,0.648-0.01,1.299,0.327,1.934
		c-0.452,0-0.859-0.004-1.267,0.002c-0.121,0.002-0.173-0.049-0.201-0.158c-0.031-0.123-0.079-0.24-0.13-0.391
		c-0.327,0.352-0.74,0.504-1.147,0.666C38.76,40.125,38.436,40.125,38.11,40.125z M40.112,37.516
		c-0.357,0.084-0.702,0.162-1.046,0.244c-0.104,0.025-0.208,0.055-0.309,0.092c-0.284,0.105-0.484,0.279-0.462,0.617
		c0.021,0.33,0.201,0.535,0.509,0.632c0.557,0.173,1.23-0.249,1.303-0.832C40.138,38.027,40.112,37.778,40.112,37.516z"/>
	<path fill="#252122" d="M56.189,40.125c-0.058-0.1-0.172-0.078-0.256-0.111c-0.627-0.244-0.986-0.752-0.99-1.418
		c-0.004-0.688,0.322-1.17,0.965-1.428c0.617-0.246,1.285-0.278,1.914-0.479c0.146-0.046,0.38,0.003,0.381-0.254
		c0-0.242-0.039-0.479-0.279-0.617c-0.525-0.303-1.214-0.125-1.507,0.407c-0.067,0.124-0.136,0.142-0.252,0.118
		c-0.308-0.061-0.614-0.127-0.924-0.172c-0.162-0.023-0.152-0.08-0.109-0.211c0.229-0.697,0.691-1.135,1.417-1.273
		c0.635-0.122,1.271-0.115,1.9,0.036c0.734,0.177,1.072,0.599,1.133,1.347c0.064,0.801-0.018,1.6-0.003,2.398
		c0.009,0.523,0.08,1.029,0.313,1.537c-0.451,0-0.85-0.004-1.25,0.002c-0.121,0.004-0.174-0.045-0.203-0.152
		c-0.033-0.121-0.078-0.238-0.129-0.391c-0.33,0.34-0.74,0.494-1.144,0.66C56.84,40.125,56.516,40.125,56.189,40.125z
		 M58.205,37.929c0-0.099-0.003-0.195,0.001-0.292c0.005-0.107-0.045-0.129-0.138-0.104c-0.438,0.115-0.885,0.201-1.31,0.354
		c-0.459,0.164-0.541,0.674-0.198,1.023c0.207,0.213,0.463,0.266,0.744,0.211C57.912,39.002,58.189,38.631,58.205,37.929z"/>
	<path fill="#252122" d="M7.934,40.125c-0.084-0.117-0.223-0.105-0.34-0.146c-1.167-0.39-1.791-1.36-1.752-2.729
		c0.045-1.576,1.183-2.662,2.77-2.645c1.566,0.02,2.693,1.159,2.694,2.727c0.001,1.434-0.787,2.426-2.173,2.74
		c-0.012,0.004-0.019,0.033-0.028,0.053C8.715,40.125,8.324,40.125,7.934,40.125z M7.293,37.36c-0.01,0.285,0.029,0.566,0.14,0.826
		c0.203,0.475,0.558,0.771,1.087,0.797c0.515,0.023,0.916-0.214,1.13-0.671c0.294-0.627,0.307-1.286-0.018-1.907
		c-0.414-0.791-1.452-0.869-2.008-0.173C7.362,36.561,7.301,36.954,7.293,37.36z"/>
	<path fill="#252122" d="M62.238,40.125c-0.09-0.11-0.229-0.092-0.346-0.131c-0.654-0.219-1.127-0.623-1.375-1.279
		c-0.055-0.146-0.045-0.213,0.131-0.229c0.215-0.02,0.428-0.068,0.641-0.105c0.32-0.053,0.583-0.133,0.779,0.312
		c0.226,0.509,1.377,0.575,1.773,0.179c0.256-0.258,0.172-0.58-0.201-0.69c-0.56-0.167-1.14-0.257-1.689-0.453
		c-0.122-0.043-0.246-0.082-0.365-0.131c-0.585-0.241-0.926-0.662-0.941-1.31c-0.016-0.666,0.293-1.168,0.892-1.422
		c0.903-0.382,1.84-0.355,2.752-0.003c0.437,0.169,0.69,0.535,0.87,0.96c0.07,0.166,0.012,0.227-0.147,0.25
		c-0.171,0.024-0.341,0.057-0.511,0.088c-0.325,0.062-0.613,0.172-0.85-0.256c-0.194-0.354-1.264-0.361-1.569-0.091
		c-0.196,0.172-0.151,0.422,0.108,0.54c0.355,0.162,0.74,0.234,1.119,0.324c0.412,0.097,0.812,0.216,1.207,0.373
		c1.118,0.445,1.041,1.746,0.49,2.353c-0.336,0.368-0.75,0.575-1.232,0.662c-0.06,0.011-0.133-0.017-0.17,0.062
		C63.148,40.125,62.693,40.125,62.238,40.125z"/>
	<path fill="#252122" d="M32.842,40.125c-0.073-0.115-0.205-0.097-0.311-0.129c-0.733-0.234-1.225-0.701-1.445-1.476
		c0.428-0.069,0.842-0.134,1.255-0.206c0.119-0.021,0.159,0.021,0.208,0.129c0.293,0.643,1.212,0.893,1.819,0.506
		c0.16-0.102,0.246-0.238,0.233-0.433c-0.013-0.194-0.148-0.288-0.31-0.332c-0.479-0.131-0.964-0.243-1.444-0.372
		c-0.198-0.053-0.393-0.121-0.583-0.197c-0.682-0.271-1.003-0.729-0.995-1.402c0.007-0.631,0.389-1.19,1.014-1.407
		c0.834-0.29,1.686-0.274,2.518,0.005c0.5,0.169,0.806,0.561,0.993,1.051c0.049,0.129,0.028,0.172-0.101,0.192
		c-0.352,0.062-0.703,0.122-1.052,0.194c-0.139,0.029-0.156-0.062-0.205-0.147c-0.278-0.479-1.326-0.646-1.736-0.278
		c-0.199,0.178-0.155,0.408,0.118,0.534c0.356,0.163,0.741,0.233,1.12,0.322c0.421,0.099,0.838,0.206,1.233,0.39
		c0.833,0.387,1.112,1.348,0.612,2.124c-0.318,0.495-0.786,0.759-1.353,0.867c-0.058,0.011-0.135-0.024-0.159,0.065
		C33.796,40.125,33.319,40.125,32.842,40.125z"/>
	<path fill="#252122" d="M79.732,40.125C79.658,40.01,79.525,40.034,79.42,40c-0.634-0.199-1.1-0.586-1.365-1.201
		c-0.08-0.182-0.115-0.315,0.168-0.323c0.191-0.005,0.383-0.062,0.574-0.095c0.321-0.057,0.579-0.127,0.776,0.311
		c0.223,0.496,1.327,0.576,1.75,0.205c0.272-0.238,0.209-0.602-0.144-0.705c-0.57-0.169-1.148-0.305-1.722-0.463
		c-0.25-0.068-0.493-0.161-0.708-0.312c-0.927-0.649-0.782-2.086,0.291-2.549c0.898-0.39,1.838-0.361,2.75-0.005
		c0.448,0.175,0.708,0.548,0.882,0.987c0.058,0.146,0.019,0.188-0.116,0.211c-0.233,0.039-0.472,0.068-0.701,0.13
		c-0.277,0.074-0.498,0.104-0.64-0.235c-0.087-0.209-0.332-0.271-0.549-0.301c-0.235-0.031-0.476-0.037-0.71,0.018
		c-0.223,0.053-0.482,0.088-0.488,0.383c-0.005,0.279,0.25,0.328,0.453,0.387c0.529,0.148,1.062,0.284,1.596,0.428
		c0.113,0.031,0.224,0.078,0.334,0.116c0.601,0.212,1.012,0.589,1.049,1.259c0.037,0.653-0.262,1.139-0.787,1.508
		c-0.309,0.217-0.676,0.256-1.018,0.375C80.643,40.125,80.188,40.125,79.732,40.125z"/>
	<path fill="#252122" d="M74.464,40.125c-0.024-0.02-0.044-0.049-0.071-0.058c-1.178-0.335-1.812-1.122-1.881-2.337
		c-0.029-0.521-0.011-1.038,0.166-1.538c0.389-1.101,1.43-1.698,2.686-1.577c0.931,0.09,1.617,0.481,1.977,1.385
		c0.098,0.244,0.035,0.318-0.199,0.344c-0.14,0.014-0.277,0.049-0.416,0.072c-0.356,0.059-0.658,0.215-0.898-0.328
		c-0.264-0.596-1.344-0.484-1.651,0.139c-0.362,0.736-0.327,1.518,0.022,2.253c0.189,0.397,0.576,0.533,1.013,0.498
		c0.433-0.035,0.708-0.283,0.804-0.687c0.069-0.295,0.189-0.344,0.463-0.264c0.256,0.076,0.528,0.114,0.797,0.133
		c0.221,0.016,0.215,0.116,0.166,0.274c-0.268,0.858-0.783,1.456-1.705,1.628c-0.043,0.008-0.084,0.012-0.1,0.062
		C75.245,40.125,74.854,40.125,74.464,40.125z"/>
	<path fill="#252122" d="M67.505,40.125c-0.81-0.347-0.843-1.053-0.836-1.783c0.007-0.725-0.009-1.451,0.008-2.178
		c0.007-0.244-0.059-0.342-0.303-0.297c-0.272,0.049-0.375-0.066-0.334-0.336c0.015-0.096,0.002-0.193,0.002-0.291
		c0-0.464,0-0.471,0.472-0.51c0.133-0.012,0.184-0.061,0.155-0.175c-0.183-0.755,0.245-1.119,0.862-1.376
		c0.176-0.073,0.336-0.188,0.561-0.314c0,0.534,0.016,1.024-0.006,1.514c-0.013,0.272,0.044,0.371,0.344,0.356
		c0.606-0.028,0.607-0.008,0.606,0.597c0,0.535-0.001,0.559-0.554,0.525c-0.336-0.02-0.409,0.086-0.398,0.406
		c0.025,0.725,0.006,1.451,0.009,2.177c0.003,0.464,0.192,0.618,0.638,0.462c0.291-0.104,0.326,0.025,0.33,0.249
		c0.002,0.044,0.006,0.087,0.01,0.13c0.05,0.639,0.051,0.639-0.522,0.844C68.199,40.125,67.854,40.125,67.505,40.125z"/>
	<path fill="#252122" d="M85,34.143c-0.232,0.324-0.453,0.652-0.895,0.736c-0.563,0.107-1.119-0.188-1.317-0.734
		c-0.199-0.548,0.054-1.161,0.584-1.418c0.513-0.249,1.138-0.068,1.457,0.406c0.052,0.076,0.037,0.213,0.172,0.229
		C85,33.624,85,33.881,85,34.143z M83.205,34.525c0.46,0.373,0.967,0.356,1.361-0.063c-0.354,0.078-0.441-0.203-0.604-0.391
		c-0.076-0.088-0.109-0.296-0.256-0.224c-0.1,0.048-0.021,0.239-0.04,0.364c-0.019,0.119,0.131,0.131,0.142,0.238
		c-0.186,0-0.367,0-0.55,0c0.208-0.236,0.245-1.043,0.054-1.418c0.277,0.023,0.547-0.033,0.812,0.051
		c0.134,0.041,0.233,0.117,0.253,0.264c0.02,0.137-0.021,0.254-0.139,0.342c-0.053,0.041-0.145,0.037-0.168,0.128
		c0.103,0.146,0.191,0.295,0.299,0.431c0.197,0.248,0.294,0.231,0.428-0.062c0.214-0.473,0.038-1.033-0.408-1.303
		c-0.455-0.273-1.039-0.153-1.354,0.277C82.721,33.59,82.788,34.131,83.205,34.525z M83.662,33.417
		c0.059,0.082-0.104,0.279,0.137,0.278c0.17-0.001,0.297-0.079,0.297-0.271c0-0.182-0.115-0.277-0.289-0.281
		C83.609,33.138,83.688,33.303,83.662,33.417z"/>
	<path fill="#BD0272" d="M41.945,15.293c3.13,0,6.261,0.003,9.392-0.006c0.276-0.001,0.38,0.053,0.362,0.352
		c-0.028,0.464-0.016,0.932-0.004,1.397c0.007,0.199-0.057,0.251-0.256,0.258c-3.391,0.114-6.209,2.402-7.039,5.697
		c-0.123,0.485-0.2,0.977-0.202,1.477c0,0.242-0.067,0.332-0.332,0.328c-1.289-0.019-2.578-0.021-3.867-0.012
		c-0.25,0.002-0.324-0.062-0.334-0.314c-0.127-3.133-2.169-5.843-5.135-6.82c-0.66-0.218-1.338-0.36-2.038-0.355
		c-0.23,0.001-0.329-0.054-0.318-0.308c0.021-0.465,0.021-0.932,0-1.397c-0.012-0.254,0.079-0.301,0.313-0.3
		C35.64,15.296,38.792,15.293,41.945,15.293z M41.926,21.963c0.144-1.055,0.491-1.949,1.107-2.737
		c0.611-0.782,1.394-1.369,2.25-1.958c-2.285,0-4.501,0-6.747,0C41.075,19.292,41.075,19.292,41.926,21.963z"/>
	<path fill="#BD0272" d="M41.917,14.383c-3.11,0-6.221-0.007-9.331,0.009c-0.354,0.002-0.434-0.105-0.412-0.43
		c0.028-0.41,0.021-0.824,0.001-1.234c-0.011-0.232,0.046-0.306,0.292-0.321c2.84-0.176,4.961-1.513,6.345-3.997
		c0.545-0.979,0.824-2.044,0.852-3.167c0.006-0.263,0.075-0.348,0.349-0.344c1.246,0.015,2.493,0.019,3.739-0.001
		c0.33-0.005,0.434,0.079,0.45,0.417c0.082,1.763,0.726,3.307,1.909,4.613c1.414,1.56,3.188,2.38,5.291,2.479
		c0.216,0.01,0.305,0.055,0.293,0.291c-0.019,0.455-0.02,0.911,0,1.365c0.012,0.25-0.055,0.33-0.317,0.328
		c-1.387-0.014-2.774-0.006-4.162-0.006C45.451,14.383,43.684,14.383,41.917,14.383z M38.647,12.437c2.2,0,4.399,0,6.699,0
		c-1.809-1.167-3.2-2.54-3.414-4.748C41.703,9.89,40.342,11.263,38.647,12.437z"/>
	<path fill="#BD0272" d="M42.274,29.601c-4.801-0.095-8.505-1.759-11.374-5.205c-0.749-0.899-1.502-1.798-2.167-2.759
		c-1.347-1.946-3.225-3.094-5.449-3.752c-1.315-0.39-2.661-0.589-4.03-0.635c-0.188-0.006-0.248-0.07-0.248-0.241
		c-0.001-0.314,0.004-0.629-0.021-0.942c-0.02-0.251,0.054-0.335,0.317-0.323c2.183,0.096,4.295,0.498,6.295,1.407
		c1.69,0.769,3.09,1.885,4.19,3.394c1.084,1.489,2.205,2.952,3.546,4.228c1.963,1.866,4.318,2.865,6.987,3.202
		c2.659,0.337,5.174-0.124,7.56-1.309c1.568-0.778,2.826-1.951,3.961-3.263c0.752-0.868,1.478-1.762,2.134-2.702
		c1.521-2.181,3.631-3.485,6.129-4.238c1.457-0.44,2.953-0.661,4.476-0.721c0.265-0.01,0.34,0.075,0.319,0.327
		c-0.024,0.291-0.033,0.585-0.019,0.876c0.013,0.249-0.084,0.296-0.319,0.305c-1.875,0.072-3.692,0.423-5.429,1.158
		c-1.759,0.745-3.106,1.957-4.202,3.509c-1.031,1.461-2.172,2.84-3.49,4.062c-2.059,1.908-4.498,2.998-7.256,3.417
		C43.434,29.51,42.681,29.596,42.274,29.601z"/>
	<path fill="#252122" d="M17.57,35.323c1.426-0.992,2.195-0.975,3.104,0.088c0.367-0.396,0.785-0.711,1.341-0.779
		c0.892-0.111,1.961,0.261,1.98,1.627c0.017,1.17,0.004,2.34,0.019,3.509c0.003,0.212-0.069,0.254-0.259,0.245
		c-0.303-0.016-0.607-0.018-0.91,0c-0.206,0.012-0.252-0.062-0.252-0.258c0.002-1.051-0.002-2.101-0.02-3.149
		c-0.009-0.578-0.207-0.853-0.601-0.897c-0.477-0.056-0.895,0.24-1.039,0.742c-0.098,0.348-0.106,0.707-0.11,1.062
		c-0.008,0.736-0.011,1.474,0.002,2.21c0.004,0.217-0.037,0.312-0.277,0.292c-0.291-0.021-0.585-0.021-0.876,0
		c-0.227,0.018-0.268-0.074-0.266-0.276c0.009-0.932,0.005-1.862,0.003-2.795c0-0.151-0.008-0.303-0.02-0.452
		c-0.039-0.484-0.183-0.705-0.502-0.773c-0.403-0.088-0.859,0.113-1.052,0.479c-0.2,0.377-0.189,0.797-0.197,1.205
		c-0.015,0.779-0.011,1.561,0,2.34c0.003,0.2-0.036,0.291-0.261,0.274c-0.302-0.021-0.607-0.019-0.909,0
		c-0.211,0.013-0.249-0.071-0.248-0.263c0.007-1.592,0.007-3.185-0.001-4.775c-0.001-0.203,0.057-0.266,0.256-0.25
		c0.237,0.018,0.478,0.021,0.714-0.001c0.26-0.024,0.386,0.042,0.343,0.327C17.52,35.135,17.495,35.241,17.57,35.323z"/>
	<path fill="#252122" d="M45.719,36.352c0-1.115,0.006-2.23-0.005-3.346c-0.002-0.221,0.048-0.297,0.281-0.289
		c1.103,0.031,2.206-0.002,3.31,0.033c0.986,0.031,1.867,0.744,1.985,1.895c0.163,1.586-0.826,2.504-1.974,2.583
		c-0.594,0.04-1.188,0.054-1.782,0.042c-0.245-0.005-0.333,0.046-0.326,0.312c0.021,0.726,0,1.451,0.013,2.176
		c0.002,0.197-0.044,0.265-0.25,0.254c-0.334-0.02-0.671-0.018-1.006,0c-0.199,0.01-0.253-0.049-0.251-0.25
		C45.725,38.625,45.719,37.489,45.719,36.352z M47.215,35c0,0.283,0.006,0.563-0.003,0.846c-0.004,0.14,0.036,0.189,0.181,0.186
		c0.508-0.015,1.019,0.021,1.523-0.064c0.542-0.09,0.855-0.463,0.846-1.012c-0.011-0.512-0.357-0.888-0.888-0.942
		c-0.278-0.029-0.562-0.046-0.842-0.052c-0.817-0.019-0.817-0.016-0.817,0.812C47.215,34.85,47.215,34.926,47.215,35z"/>
	<path fill="#252122" d="M52.473,36.375c0-1.094,0.014-2.188-0.01-3.281c-0.007-0.326,0.094-0.409,0.396-0.377
		c0.234,0.027,0.477,0.021,0.713,0.002c0.23-0.02,0.316,0.037,0.316,0.294c-0.012,2.241-0.01,4.483-0.002,6.724
		c0,0.204-0.041,0.292-0.267,0.276c-0.302-0.021-0.606-0.021-0.909,0c-0.215,0.015-0.245-0.072-0.244-0.261
		C52.477,38.627,52.473,37.5,52.473,36.375z"/>
	<path fill="#252122" d="M15.327,36.086c-0.95-0.414-1.445-0.117-1.535,0.916c-0.08,0.906-0.066,1.816-0.053,2.727
		c0.003,0.23-0.06,0.3-0.287,0.283c-0.28-0.021-0.564-0.02-0.845,0c-0.226,0.015-0.292-0.057-0.29-0.286
		c0.011-1.397,0.003-2.795,0.007-4.192c0.001-0.259-0.11-0.592,0.046-0.754c0.158-0.162,0.493-0.05,0.749-0.046
		c0.173,0.003,0.411-0.104,0.506,0.067c0.076,0.139,0.016,0.352,0.016,0.609c0.13-0.164,0.208-0.261,0.285-0.359
		c0.469-0.604,1.213-0.487,1.709-0.239c0.096,0.048,0.109,0.106,0.071,0.208C15.574,35.374,15.453,35.73,15.327,36.086z"/>
	<path fill="#252122" d="M69.977,37.37c0-0.779,0.014-1.56-0.006-2.338c-0.008-0.267,0.08-0.324,0.322-0.309
		c0.303,0.02,0.605,0.013,0.909,0.002c0.159-0.006,0.2,0.053,0.198,0.205c-0.004,1.623-0.004,3.244,0.002,4.867
		c0,0.183-0.071,0.217-0.229,0.213c-0.325-0.01-0.649-0.016-0.974,0c-0.196,0.011-0.227-0.067-0.227-0.24
		C69.98,38.969,69.977,38.168,69.977,37.37z"/>
	<path fill="#252122" d="M70.689,34.024c-0.713,0-0.713,0-0.713-0.715c0-0.587,0-0.594,0.586-0.584
		c0.267,0.004,0.609-0.117,0.779,0.051c0.17,0.169,0.034,0.512,0.055,0.778c0.004,0.054-0.008,0.108,0.002,0.161
		c0.047,0.265-0.075,0.342-0.32,0.312C70.951,34.01,70.82,34.024,70.689,34.024z"/>
</g>
</svg>
