<?xml version="1.0" encoding="utf-8"?>
<!-- Generator: Adobe Illustrator 16.0.0, SVG Export Plug-In . SVG Version: 6.00 Build 0)  -->
<!DOCTYPE svg PUBLIC "-//W3C//DTD SVG 1.1//EN" "http://www.w3.org/Graphics/SVG/1.1/DTD/svg11.dtd">
<svg version="1.1" id="Layer_1" xmlns="http://www.w3.org/2000/svg" xmlns:xlink="http://www.w3.org/1999/xlink" x="0px" y="0px"
	 width="82.195px" height="150px" viewBox="0 0 82.195 150" enable-background="new 0 0 82.195 150" xml:space="preserve">
<g>
	<path fill="#191919" d="M42.106,121.633c-0.345-0.385-0.626-0.641-0.841-0.943c-2.717-3.836-5.422-7.68-8.132-11.519
		C22.272,93.785,11.417,78.395,0.53,63.025c-0.643-0.908-0.735-1.554-0.086-2.53C10.658,45.136,20.832,29.75,31.011,14.368
		c2.964-4.479,5.912-8.969,8.876-13.448c0.814-1.232,0.961-1.221,1.797,0.004c10.57,15.502,21.144,31.004,31.719,46.504
		c2.808,4.115,5.609,8.235,8.454,12.325c0.462,0.663,0.438,1.118,0.003,1.779c-10.194,15.415-20.366,30.844-30.541,46.272
		c-2.841,4.305-5.674,8.616-8.516,12.922C42.619,121.008,42.394,121.261,42.106,121.633z M68.252,60.768
		c-0.193-8.669-3.169-16.621-9.994-22.911c-3.994-3.682-8.71-5.947-14.126-6.412c-9.239-0.794-16.626,2.849-22.277,10.022
		c-5.362,6.805-7.243,14.693-6.431,23.215c0.659,6.914,3.223,13.101,8.051,18.173c10.395,10.922,25.861,11.09,36.207,0.354
		C65.555,77.113,68.111,69.625,68.252,60.768z M40.611,4.276c-0.065-0.041-0.131-0.082-0.196-0.123
		c-0.184,0.235-0.386,0.459-0.551,0.708c-3.35,5.071-6.689,10.148-10.042,15.217C20.856,33.636,11.892,47.193,2.9,60.732
		c-0.495,0.746-0.479,1.231,0.05,1.954c2.21,3.023,4.35,6.098,6.508,9.158c10.223,14.494,20.442,28.99,30.658,43.489
		c0.133,0.188,0.203,0.421,0.303,0.633c0.12-0.082,0.241-0.166,0.361-0.25c-0.123-0.926-0.25-1.852-0.368-2.778
		c-0.779-6.127-1.565-12.254-2.318-18.385c-0.089-0.725-0.384-1.013-1.092-1.152c-8.299-1.646-14.595-6.235-19.078-13.311
		c-5.192-8.195-6.571-17.148-4.575-26.561c1.8-8.491,6.195-15.399,13.442-20.345c2.983-2.036,6.282-3.347,9.805-4.137
		c0.379-0.085,0.854-0.491,0.968-0.848c0.22-0.693,0.209-1.459,0.303-2.194c0.542-4.273,1.091-8.545,1.632-12.818
		C39.873,10.217,40.24,7.247,40.611,4.276z M41.921,5.141c-0.094,0.022-0.188,0.045-0.28,0.068c0.032,0.368,0.055,0.737,0.101,1.103
		c0.903,7.109,1.823,14.216,2.692,21.329c0.101,0.823,0.391,1.125,1.205,1.255c7.352,1.179,13.338,4.776,17.876,10.613
		c8.896,11.441,9.979,26.772,2.771,39.345C62.052,86.238,55.851,91.2,47.459,93.206c-2.347,0.562-2.28,0.567-2.593,3.274
		c-0.564,4.91-1.213,9.811-1.827,14.713c-0.243,1.938-0.487,3.875-0.729,5.812c0.408-0.141,0.604-0.359,0.767-0.604
		c11.98-18.172,23.95-36.352,35.965-54.501c0.646-0.974,0.576-1.6-0.047-2.509C68.308,43.798,57.654,28.181,46.992,12.57
		C45.301,10.094,43.611,7.617,41.921,5.141z"/>
	<path fill="#191919" d="M27.8,149.557c-1.298,0-2.454,0.047-3.603-0.039c-0.249-0.018-0.56-0.478-0.672-0.795
		c-0.393-1.096-0.734-2.212-1.043-3.334c-0.172-0.621-0.522-0.837-1.146-0.828c-1.906,0.023-3.815,0.031-5.723-0.004
		c-0.699-0.013-1.008,0.282-1.177,0.926c-0.285,1.093-0.661,2.16-0.947,3.254c-0.16,0.609-0.457,0.88-1.108,0.854
		c-1.015-0.042-2.032-0.012-3.214-0.012c0.648-2.077,1.243-3.989,1.843-5.901c1.618-5.153,3.259-10.301,4.837-15.466
		c0.281-0.924,0.673-1.298,1.69-1.271c2.85,0.076,2.857,0.023,3.767,2.767c2.053,6.2,4.1,12.403,6.146,18.604
		C27.567,148.669,27.655,149.038,27.8,149.557z M20.973,140.586c-0.849-2.691-1.652-5.246-2.456-7.801
		c-0.107,0.021-0.214,0.041-0.321,0.061c-0.749,2.541-1.498,5.084-2.282,7.74C17.664,140.586,19.222,140.586,20.973,140.586z"/>
	<path fill="#191919" d="M62.155,149.564c-1.274,0-2.4,0.047-3.517-0.034c-0.26-0.021-0.597-0.442-0.706-0.748
		c-0.408-1.127-0.68-2.306-1.126-3.415c-0.141-0.348-0.663-0.747-1.024-0.762c-1.94-0.074-3.884-0.021-5.826-0.043
		c-0.637-0.008-0.956,0.248-1.116,0.86c-0.285,1.093-0.668,2.158-0.942,3.253c-0.166,0.655-0.479,0.945-1.174,0.914
		c-0.98-0.046-1.966-0.012-3.081-0.012c0.089-0.423,0.126-0.721,0.215-1.003c2.158-6.868,4.337-13.729,6.467-20.606
		c0.247-0.802,0.629-1.029,1.428-1.02c3.037,0.037,3.029,0.015,3.979,2.891c1.977,6,3.965,11.997,5.941,17.996
		C61.842,148.359,61.968,148.895,62.155,149.564z M50.296,140.561c1.773,0,3.327,0,5.05,0c-0.847-2.691-1.644-5.23-2.439-7.77
		c-0.107,0.018-0.216,0.033-0.324,0.051C51.836,135.361,51.09,137.88,50.296,140.561z"/>
	<path fill="#191919" d="M62.662,138.206c0-3.429,0.012-6.854-0.011-10.283c-0.005-0.651,0.146-0.974,0.874-0.963
		c2.72,0.043,5.439,0.035,8.161,0.065c2.098,0.024,3.598,1.095,4.425,2.934c1.188,2.643,1.181,5.361-0.07,8
		c-0.797,1.684-2.179,2.689-4.048,2.868c-1.509,0.144-3.029,0.211-4.545,0.21c-0.841-0.001-1.118,0.29-1.104,1.105
		c0.034,2.155-0.013,4.312,0.021,6.469c0.012,0.724-0.213,0.975-0.963,0.984c-2.741,0.037-2.74,0.063-2.74-2.697
		C62.663,144,62.663,141.104,62.662,138.206z M66.392,130.898c0,1.961-0.015,3.887,0.024,5.812c0.003,0.164,0.366,0.462,0.558,0.458
		c1.336-0.028,2.689-0.004,4.001-0.224c1.399-0.235,2.122-1.529,2.06-3.258c-0.052-1.439-0.941-2.64-2.283-2.761
		C69.359,130.801,67.947,130.898,66.392,130.898z"/>
	<path fill="#191919" d="M27.599,139.195c0.021-3.723,0.454-6.446,1.974-8.912c1.904-3.09,4.758-4.125,8.184-3.608
		c3.242,0.488,4.979,2.688,5.867,5.702c0.173,0.588,0.026,0.87-0.532,1.012c-0.272,0.066-0.541,0.157-0.815,0.228
		c-0.646,0.163-1.379,0.573-1.915,0.396c-0.426-0.143-0.604-1.013-0.908-1.55c-1.313-2.301-4.287-2.723-6.118-0.788
		c-0.585,0.619-1.084,1.439-1.312,2.254c-0.824,2.95-0.785,5.94,0.05,8.891c0.415,1.465,1.327,2.572,2.824,3.076
		c2.023,0.681,3.911-0.444,4.817-2.846c0.654-1.727,0.654-1.727,2.392-1.076c1.896,0.713,1.909,0.717,1.226,2.614
		c-1.042,2.897-2.868,4.961-6.089,5.341c-3.527,0.417-6.197-0.955-7.953-4.062C27.96,143.516,27.566,140.958,27.599,139.195z"/>
	<path fill="#191919" d="M48.134,52.189c-0.751,0-1.504,0-2.256,0c-1.024,0-2.053-0.049-3.072,0.015
		c-0.967,0.061-1.221-0.368-1.197-1.254c0.021-0.831,0.062-1.449,1.17-1.409c1.784,0.063,3.572,0.017,5.358,0.017
		c0.012-0.105,0.023-0.209,0.035-0.315c-0.299-0.036-0.599-0.101-0.898-0.103c-1.52-0.011-3.04-0.045-4.56,0.006
		c-1.046,0.036-1.106-0.551-1.096-1.353c0.011-0.792,0.065-1.389,1.114-1.352c1.554,0.055,3.108,0.024,4.665,0.006
		c0.343-0.004,0.686-0.108,1.028-0.166c-0.001-0.111-0.001-0.223-0.002-0.335c-0.347-0.06-0.692-0.167-1.041-0.171
		c-1.626-0.02-3.253-0.045-4.877,0.002c-1.077,0.031-1.063-0.628-1.07-1.39c-0.006-0.774,0.016-1.434,1.081-1.372
		c0.846,0.049,1.695-0.007,2.544,0.027c0.623,0.025,0.919-0.187,0.888-0.848c-0.046-0.952-0.059-1.907-0.056-2.861
		c0.003-0.836-0.461-1.25-1.221-1.31c-0.733-0.058-1.479-0.009-2.221-0.002c-1.27,0.013-0.862-1.058-1.079-1.704
		c-0.22-0.655,0.199-0.967,0.769-0.95c1.362,0.041,2.752,0.019,4.079,0.283c1.317,0.263,2.125,1.257,2.263,2.629
		c0.126,1.263,0.161,2.536,0.204,3.805c0.019,0.549,0.06,0.979,0.786,0.956c0.806-0.025,0.659-0.557,0.628-1.045
		c-0.098-1.516-0.202-3.031-0.294-4.548c-0.022-0.369-0.003-0.741-0.003-1.111c0.098-0.059,0.193-0.118,0.292-0.177
		c3.93,3.039,7.859,6.078,11.789,9.117c-0.022,0.145-0.048,0.29-0.07,0.435c-3.51,0.146-7.04-0.031-10.551,0.096
		c-0.018,0.142-0.032,0.285-0.049,0.427c0.354,0.072,0.706,0.204,1.062,0.207c2.12,0.02,4.241,0.011,6.361,0.01
		c1.518,0,1.455,0.011,1.541,1.536c0.067,1.242-0.676,1.159-1.492,1.152c-2.015-0.016-4.028-0.009-6.043-0.004
		c-0.375,0-0.751,0.033-1.126,0.052c-0.009,0.089-0.018,0.179-0.024,0.269c0.271,0.038,0.539,0.11,0.807,0.108
		c3.039-0.013,6.079-0.014,9.118-0.073c0.934-0.019,1.36,0.239,1.317,1.255c-0.06,1.401-0.027,1.439-1.284,1.441
		c-2.934,0.003-5.867,0.001-8.8,0.001c-0.371,0-0.742,0-1.114,0c-0.011,0.104-0.021,0.208-0.032,0.312
		c0.269,0.03,0.535,0.085,0.805,0.086c3.393,0.009,6.786,0.036,10.178-0.004c0.877-0.01,1.213,0.276,1.198,1.146
		c-0.031,1.908-0.052,3.817,0.004,5.725c0.037,1.293-0.837,1.009-1.579,1.063c-0.802,0.059-1.271-0.114-1.198-1.082
		c0.078-1.054,0.002-2.12,0.021-3.18c0.013-0.643-0.174-0.984-0.907-0.945c-0.986,0.052-1.979,0.048-2.967,0
		c-0.728-0.035-0.927,0.304-0.914,0.95c0.02,1.095-0.036,2.193,0.02,3.286c0.04,0.765-0.271,1.027-0.982,0.967
		c-0.281-0.024-0.566-0.021-0.849,0c-0.688,0.05-0.955-0.29-0.947-0.946c0.013-1.131-0.021-2.262,0.012-3.392
		c0.018-0.641-0.224-0.884-0.867-0.865c-1.165,0.035-2.334,0.04-3.498,0c-0.701-0.024-0.946,0.265-0.934,0.935
		c0.021,1.095-0.043,2.192,0.006,3.286c0.032,0.737-0.223,0.988-0.962,0.993c-1.729,0.014-1.729,0.047-1.731-1.735
		c-0.001-0.883,0.055-1.773-0.036-2.647c-0.03-0.295-0.433-0.552-0.664-0.826c-0.192,0.275-0.533,0.541-0.55,0.826
		c-0.063,1.092-0.073,2.193-0.007,3.284c0.059,0.97-0.446,1.141-1.233,1.086c-0.7-0.049-1.552,0.234-1.521-1.007
		c0.049-1.943,0.036-3.888,0.001-5.831c-0.016-0.854,0.363-1.098,1.156-1.083c1.86,0.035,3.724,0.011,5.586,0.011
		C48.14,52.466,48.137,52.328,48.134,52.189z"/>
	<path fill="#191919" d="M23.431,74.848c-0.48,1.359-0.961,2.718-1.442,4.079c-0.122-0.014-0.245-0.026-0.367-0.042
		c-0.405-1.443-0.808-2.887-1.214-4.33c-0.603-2.141-1.193-4.285-1.819-6.419c-0.235-0.808-0.064-1.205,0.852-1.197
		c0.917,0.007,1.841-0.021,2.75-0.136c0.367-0.046,0.979-0.338,0.999-0.559c0.066-0.791-0.644-0.556-1.077-0.568
		c-1.165-0.034-2.334-0.055-3.498,0.003c-1.099,0.056-1.153-0.569-1.157-1.412c-0.004-0.86,0.086-1.411,1.178-1.375
		c2.083,0.068,4.171,0.044,6.255,0.007c0.82-0.015,1.131,0.27,1.103,1.106c-0.051,1.483-0.041,2.969,0.004,4.452
		c0.024,0.792-0.309,1.09-1.06,1.075c-0.671-0.014-1.344,0.003-2.015,0.027c-1.121,0.041-1.199,0.22-0.569,1.232
		c2.188-1.078,3.414-0.464,3.806,1.993c0.31,1.942,0.515,3.901,0.784,5.999c0.418-0.164,0.759-0.305,1.104-0.432
		c0.824-0.302,1.661-0.57,2.472-0.906c0.272-0.112,0.481-0.385,0.72-0.584c-0.271-0.197-0.517-0.459-0.819-0.574
		c-0.246-0.094-0.558-0.016-0.841-0.012c-1.491,0.015-2.068-0.794-1.521-2.213c0.084-0.221,0.439-0.434,0.696-0.471
		c0.521-0.074,1.06,0.002,1.586-0.038c0.293-0.022,0.579-0.156,0.868-0.24c-0.012-0.152-0.023-0.305-0.036-0.458
		c-0.6,0-1.203-0.033-1.8,0.008c-0.944,0.063-1.467-0.196-1.4-1.289c0.079-1.335,0.087-1.406,1.354-1.415
		c0.459-0.003,0.928,0.046,1.373-0.035c0.2-0.036,0.353-0.334,0.527-0.514c-0.168-0.148-0.325-0.404-0.509-0.425
		c-0.559-0.063-1.128-0.055-1.692-0.04c-0.905,0.024-0.915-0.589-0.89-1.221c0.026-0.638-0.204-1.44,0.852-1.488
		c0.388-0.018,0.778,0.001,1.166-0.015c0.33-0.014,0.659-0.053,1.049-0.332c-0.172-0.11-0.334-0.291-0.518-0.315
		c-0.383-0.051-0.775-0.022-1.164-0.022c-1.566-0.001-2.051-0.621-1.569-2.144c0.081-0.257,0.546-0.526,0.854-0.552
		c0.995-0.085,1.952,0.005,2.945-0.502c0.572-0.292,1.518,0.132,2.291,0.252c0.371,0.058,0.734,0.223,1.104,0.229
		c1.519,0.024,3.039,0.027,4.558-0.006c0.72-0.016,1.013,0.238,1.004,0.984c-0.032,2.648-0.032,5.297-0.011,7.946
		c0.006,0.714-0.217,1.018-0.977,0.982c-1.48-0.068-2.966-0.072-4.449-0.079c-0.396-0.002-0.791,0.082-1.188,0.126
		c-0.016,0.111-0.032,0.223-0.049,0.334c0.315,0.079,0.629,0.223,0.945,0.228c1.448,0.025,2.898,0.052,4.346-0.004
		c1.033-0.041,1.03,0.583,1.013,1.303c-0.02,0.709,0.111,1.463-1.015,1.428c-1.483-0.045-2.968-0.034-4.451,0.009
		c-0.272,0.008-0.538,0.28-0.807,0.433c0.286,0.104,0.57,0.299,0.856,0.301c1.447,0.011,2.896,0.008,4.341-0.063
		c0.98-0.05,1.367,0.437,1.38,1.312c0.021,1.694,0.009,3.391,0.007,5.086c0,0.246-0.033,0.494-0.039,0.74
		c-0.044,2.014-0.043,2.014-2.084,2.297c-3.332,0.461-7.576-1.764-9.075-4.806c-0.262-0.531-0.479-0.681-1.039-0.423
		c-0.504,0.232-1.061,0.416-1.61,0.473c-1.253,0.129-2.168-0.47-2.436-1.699c-0.255-1.166-0.316-2.375-0.467-3.563
		c-0.065-0.517-0.143-1.029-0.214-1.544C23.599,74.834,23.515,74.841,23.431,74.848z M37.933,81.639c0.02,0,0.039,0,0.059,0
		c0-0.315-0.026-0.635,0.004-0.949c0.089-0.908-0.334-1.187-1.192-1.084c-1.328,0.158-2.664,0.237-3.991,0.396
		c-0.854,0.102-1.069,0.559-0.436,1.068c1.167,0.938,2.386,1.867,3.715,2.533c1.25,0.627,1.803,0.15,1.841-1.227
		C37.938,82.132,37.933,81.885,37.933,81.639z M35.905,70.151c0-0.001,0.001-0.002,0.001-0.003c0.525,0,1.055,0.037,1.573-0.021
		c0.181-0.02,0.334-0.275,0.5-0.424c-0.168-0.181-0.329-0.509-0.506-0.518c-0.979-0.05-1.961-0.048-2.939,0.004
		c-0.172,0.009-0.327,0.342-0.489,0.525c0.165,0.146,0.316,0.392,0.497,0.416C34.989,70.192,35.45,70.151,35.905,70.151z
		 M37.938,66.302c-0.874-0.793-3.432-0.681-3.863,0C35.395,66.302,36.667,66.302,37.938,66.302z"/>
	<path fill="#191919" d="M40.367,48.442c0,3.92-0.021,7.842,0.015,11.762c0.011,0.949-0.28,1.308-1.272,1.293
		c-6.921-0.099-13.843-0.157-20.764-0.207c-0.775-0.005-1.143-0.146-1.058-1.074c0.57-6.151,2.543-11.723,6.746-16.349
		c4.08-4.492,9.183-7.183,15.131-8.316c0.886-0.168,1.217,0.102,1.21,1.022c-0.029,3.956-0.013,7.912-0.013,11.868
		C40.364,48.442,40.366,48.442,40.367,48.442z M22.237,52.119c0.169-0.282,0.301-0.596,0.515-0.839
		c1.175-1.342,2.213-2.869,3.599-3.946c1.706-1.327,3.703-0.165,3.743,1.994c0.018,0.916-0.11,1.835-0.084,2.75
		c0.023,0.838-0.319,1.137-1.13,1.1c-2.382-0.109-4.767-0.185-7.312-0.28c-0.393,1.579-0.791,3.219-1.208,4.854
		c-0.16,0.628,0.113,0.836,0.698,0.842c3.068,0.033,6.139,0.069,9.208,0.118c0.604,0.009,0.935-0.208,0.934-0.848
		c-0.005-3.847,0.01-7.694-0.039-11.541c-0.003-0.251-0.461-0.686-0.736-0.71c-0.909-0.08-1.841,0.074-2.748-0.018
		c-1.188-0.121-1.986,0.315-2.668,1.271C23.852,48.491,22.74,50.129,22.237,52.119z M33.368,55.925c0,0.281,0,0.562,0,0.843
		c0,1.914,0,1.916,1.87,1.957c0.492,0.011,0.986-0.02,1.476,0.018c0.705,0.055,0.93-0.275,0.911-0.936
		c-0.028-1.019-0.006-2.039-0.006-3.058c-0.001-1.541-0.001-1.541-1.554-1.542C33.368,53.204,33.368,53.204,33.368,55.925z
		 M37.606,38.585c-1.419,0.551-2.604,0.975-3.756,1.473c-0.511,0.22-0.726,2.766-0.299,3.127c0.12,0.101,0.324,0.145,0.489,0.144
		c0.989-0.003,1.981,0.006,2.966-0.069c0.212-0.016,0.564-0.353,0.572-0.554C37.632,41.441,37.606,40.173,37.606,38.585z
		 M35.492,47.264c0,0.002,0,0.005,0,0.008c0.424,0,0.851-0.029,1.271,0.006c0.667,0.057,0.854-0.266,0.863-0.878
		c0.012-0.624-0.188-0.914-0.853-0.878c-0.812,0.043-1.625,0.049-2.438,0.025c-0.622-0.019-0.994,0.098-0.986,0.857
		c0.007,0.73,0.325,0.922,0.975,0.866C34.712,47.237,35.104,47.264,35.492,47.264z M35.515,51.085c0.388,0,0.776-0.016,1.164,0.004
		c0.575,0.029,0.947-0.107,0.946-0.801c0-0.645-0.267-0.88-0.894-0.858c-0.845,0.03-1.693,0.026-2.539,0
		c-0.581-0.017-0.833,0.204-0.83,0.801c0.004,0.552,0.158,0.881,0.776,0.854C34.597,51.067,35.056,51.083,35.515,51.085z
		 M28.748,43.096c0.047,0.139,0.095,0.279,0.143,0.418c0.723-0.108,1.485-0.116,2.142-0.386c0.193-0.08,0.08-0.903,0.107-1.385
		c-0.102-0.04-0.201-0.08-0.303-0.119C30.14,42.115,29.444,42.605,28.748,43.096z"/>
	<path fill="#191919" d="M63.004,68.79c-0.25,0.574-0.391,0.925-0.554,1.267c-1.255,2.648-2.551,5.279-3.756,7.95
		c-0.432,0.961-0.951,0.707-1.579,0.351c-0.605-0.344-1.545-0.479-0.871-1.565c0.291-0.468,0.469-1.005,0.796-1.726
		c-1.805,0-3.439-0.013-5.074,0.02c-0.159,0.003-0.312,0.289-0.469,0.443c0.188,0.172,0.358,0.467,0.563,0.492
		c0.593,0.069,1.199,0.062,1.798,0.028c0.699-0.041,1.061,0.183,1.041,0.946c-0.032,1.199-0.032,2.402-0.003,3.604
		c0.024,1.062-0.721,0.941-1.382,0.953c-0.695,0.012-1.39,0.036-1.326-1.007c0.033-0.563-0.05-1.134-0.081-1.701
		c-0.128-0.015-0.255-0.028-0.384-0.042c-0.085,0.282-0.234,0.562-0.243,0.848c-0.031,0.955-0.054,1.91,0.001,2.861
		c0.048,0.853-0.318,1.16-1.121,1.086c-0.246-0.021-0.496-0.017-0.742,0c-0.698,0.045-0.928-0.304-0.906-0.966
		c0.031-1.024,0.051-2.052-0.021-3.071c-0.02-0.278-0.373-0.535-0.573-0.802c-0.251,0.259-0.7,0.507-0.717,0.778
		c-0.077,1.304-0.084,2.615-0.023,3.92c0.052,1.091-0.54,1.164-1.397,1.163c-0.824-0.002-1.359-0.09-1.338-1.114
		c0.044-2.119,0.031-4.24-0.002-6.359c-0.015-0.834,0.312-1.146,1.133-1.095c0.739,0.048,1.485,0.046,2.224-0.017
		c0.241-0.021,0.461-0.301,0.691-0.461c-0.244-0.174-0.48-0.484-0.732-0.498c-1.057-0.056-2.12,0.012-3.179-0.034
		c-0.759-0.033-0.979,0.292-0.974,1.002c0.016,2.685-0.059,5.371,0.007,8.056c0.026,1.16-0.671,1.01-1.377,1.021
		c-0.735,0.01-1.384,0.073-1.362-1.05c0.083-4.733,0.109-9.468,0.109-14.202c0-0.928,0.321-1.251,1.238-1.219
		c1.694,0.059,3.393,0.02,5.088,0.048c0.637,0.01,0.979-0.161,0.986-0.889c0.009-0.738-0.343-0.896-0.977-0.887
		c-1.308,0.02-2.613,0.019-3.92-0.004c-1.761-0.03-3.102-2.351-2.252-3.909c0.096-0.176,0.438-0.396,0.567-0.346
		c0.749,0.29,1.993-0.267,2.115,1.193c0.012,0.135,0.503,0.313,0.778,0.328c0.81,0.043,1.625,0.011,2.437,0.014
		c0.604,0.002,1.148,0.08,1.357-0.794c0.062-0.259,1.005-0.397,1.55-0.415c0.33-0.01,0.917,0.269,0.963,0.502
		c0.137,0.701,0.566,0.706,1.083,0.706c2.968-0.002,5.936-0.012,8.903,0.01c0.706,0.005,1.141-0.133,1.165-0.968
		c0.016-0.572,1.396-1.251,2.145-0.954c0.3,0.12,0.507,0.81,0.519,1.248c0.021,0.697-0.203,1.397-0.24,2.101
		c-0.053,0.979-0.48,1.306-1.481,1.293c-3.673-0.045-7.347,0.016-11.019,0.005c-0.697-0.002-1.031,0.156-1.017,0.941
		c0.017,0.772,0.414,0.833,1.02,0.832c3.146-0.006,6.289,0.012,9.435,0.026C62,68.729,62.377,68.761,63.004,68.79z M47.57,71.473
		c0.347,0.934,1.25,1.099,4.322,0.833c0.326-0.029,0.631-0.338,0.944-0.517c-0.049-0.106-0.1-0.211-0.147-0.316
		C51.017,71.473,49.345,71.473,47.57,71.473z M55.273,72.012c1.991,0.591,3.036,0.384,3.309-0.623
		C57.44,71.671,56.212,70.998,55.273,72.012z"/>
	<path fill="#191919" d="M25.582,57.028c-0.951,0-1.901-0.025-2.852,0.007c-0.896,0.032-0.783-0.572-0.806-1.14
		c-0.022-0.596,0.048-1.032,0.819-1.021c1.901,0.028,3.803,0.029,5.705,0.001c0.774-0.011,0.847,0.459,0.84,1.031
		c-0.008,0.58,0.008,1.159-0.854,1.129C27.484,57.003,26.533,57.028,25.582,57.028z"/>
</g>
</svg>
