<?xml version="1.0" encoding="utf-8"?>
<!-- Generator: Adobe Illustrator 16.0.0, SVG Export Plug-In . SVG Version: 6.00 Build 0)  -->
<!DOCTYPE svg PUBLIC "-//W3C//DTD SVG 1.1//EN" "http://www.w3.org/Graphics/SVG/1.1/DTD/svg11.dtd">
<svg version="1.1" id="圖層_1" xmlns="http://www.w3.org/2000/svg" xmlns:xlink="http://www.w3.org/1999/xlink" x="0px" y="0px"
	 width="2444.689px" height="268.23px" viewBox="0 0 2444.689 268.23" enable-background="new 0 0 2444.689 268.23"
	 xml:space="preserve">
<g>
	<g>
		<g>
			<path fill="#181878" d="M439.959,171.873c2.417-0.342,4.834-0.685,7.575-1.028c2.074-0.342,4.473-0.703,6.548-1.389
				c2.397-0.342,4.814-1.028,7.575-1.714l3.102-1.046c3.788-1.713,7.575-4.473,11.021-6.871c-2.741-1.39-5.843-2.074-8.604-2.416
				c-2.76-0.344-5.862-0.688-8.965-0.688l-1.731,0.344c-5.501,1.37-10.659,2.055-16.178,3.103l-2.075,0.342l-1.712,0.343
				l-1.39,0.344l-1.369-0.344h-1.029l-1.048-0.343l-0.684-0.685l-0.343-0.362l-0.686-1.027c-0.685-0.685-1.731-1.714-2.759-2.397
				l-1.371-2.418l-0.687-2.075v-2.055v-1.733l0.343-1.712c0.343-0.361,0.686-1.048,1.027-1.731l1.028-2.417l1.389-2.399l2.741-2.759
				c0.687-1.371,1.733-2.418,2.76-3.788l1.047-1.371l4.474,0.343l5.176-1.731l5.158-0.686l4.816-0.686c2.075,0,4.131,0,5.863,0
				c3.102,0.343,5.862,0.686,8.621,1.371l6.187,1.389l4.814,1.371l4.15,1.37l2.741,1.39l2.074,1.37
				c1.029,0.686,1.733,1.37,2.417,2.417l0.343,0.686h0.342h0.343c0.342-1.732,0.685-3.103,1.39-4.815
				c0.685-1.732,1.371-3.445,2.397-4.835c0-1.713,0-3.083,0-4.815c-3.102-1.027-6.204-1.37-9.307-1.731
				c-4.13-0.343-8.261-0.343-12.049-0.343c-3.444,0-6.546-0.343-9.65-0.343c-4.814,0-9.65,0.686-14.123,1.39
				c-1.712,0.343-3.444,0.685-5.158,1.027l-2.417,1.028c-1.027,0.704-2.056,1.047-3.102,1.731l-0.685,0.343h-1.371l-1.732-0.343
				c-0.685-0.342-1.37-0.685-2.075-1.027l-0.342-0.361c-0.685-1.028-1.713-2.056-2.417-3.103c-1.37-2.056-3.084-4.13-4.474-5.844
				l-0.342-3.464l0.342-2.741l1.047-2.417l0.687-2.056c1.027-1.389,1.712-3.102,3.102-4.13c1.029-2.075,2.398-3.807,3.446-5.862
				l1.712-0.686c3.445-0.704,7.251-1.046,10.696-1.389c3.426-0.343,6.872-0.686,10.316-1.028c0-2.417,0-4.834,0.343-7.575
				c-1.714,0.343-3.104,1.027-4.816,1.37c-2.075,0.343-4.473,1.371-6.548,2.056l-1.027,0.362c-1.37,0.686-2.418,1.37-3.445,2.398
				l-0.685,0.704l-2.759,0.685l-2.417,0.343l-2.057-0.343l-1.389-0.685l-1.371-0.704l-1.731-1.371l-0.343-0.685l-1.371-1.732
				l-0.343-2.741l-0.342-2.417l0.342-2.76c0-2.056,0.343-4.13,0.687-6.548l1.712-3.787l1.39-2.76l1.712-2.056l1.39-1.732l1.37-1.027
				l1.027-0.685l1.046-0.343c3.789-1.732,7.576-2.418,11.706-2.761c2.76-0.343,5.501-0.343,8.604-0.343
				c-0.342-3.444-0.342-6.547-0.342-9.991c0-2.418,0-4.816,0-7.233c-0.343-1.731-0.343-3.787-0.685-5.862
				c0-1.027,0-2.056-0.344-3.083c-0.342-3.788-0.685-7.595-1.027-11.04l0.342-2.398l0.685-2.074l1.029-1.39l0.685-1.712
				c0.703-0.686,1.389-1.714,2.417-2.418c0.686-1.37,1.39-2.397,2.074-4.13V7.559l2.075-2.74l1.714-1.39l1.731-1.028l2.056-0.685
				l1.389-0.343l1.714,0.343l1.712,0.342l0.705,0.343l1.712,1.371l1.37,1.731l2.418,2.741c0.686,0.704,1.369,1.732,1.732,2.759
				l1.371,2.418l1.027,2.398l0.705,2.417l0.342,2.074c0.343,1.371,0.343,3.104,0.343,4.815c-0.686,5.178-1.732,9.993-2.76,15.151
				l-0.686,4.834l-0.705,9.308l0.363,4.814l11.706,0.343l6.89,0.686l5.158,1.027c3.103,0.704,5.863,1.391,8.622,2.76l0.343,0.686
				l1.732,1.732l1.027,2.417l1.028,2.398l0.342,2.417c0.343,2.075,0.705,3.788,0.705,5.862l-0.705,3.103l-1.027,1.37l-1.712,0.686
				l-2.418,0.343l-2.074,0.342l-1.371,1.39l-0.705,0.686l-1.371,0.342c-0.685,0-1.37,0.343-2.417,0l-5.501-1.37l-5.158-0.704
				l-4.149-0.343c-2.741-0.342-5.501-0.342-8.26,0c-0.343,3.445-0.343,6.89-0.343,10.678l1.714,0.343
				c5.861,1.047,12.067,2.417,17.91,3.807c1.388,0.343,2.759,1.027,4.129,2.056l0.705,0.343l0.685-0.685l1.714-1.371l1.732-0.685
				l1.712-0.362l1.39,0.362l1.027,0.342l1.39,1.027l0.685,1.732l0.686,1.714l0.342,1.37l0.685,3.787v3.445
				c0.343,3.787,0,7.575-0.342,11.039l-0.343,2.056l-1.712,4.473l-1.732,4.492c-2.417,5.843-5.177,11.706-7.918,17.226
				c3.102,3.445,5.501,6.527,8.26,9.974c2.76,3.444,5.521,7.231,7.918,11.039c3.102,4.814,5.521,9.632,7.918,14.808
				c1.388,2.74,2.76,5.843,4.148,8.604c1.714,4.148,3.103,7.936,4.473,12.066l2.075,5.844c1.712,5.86,3.445,11.724,4.473,17.91
				l0.685,1.046l0.343,1.714v1.713v1.731l-0.343,3.445l-0.685,3.445l-2.417,7.231l-1.027,2.419l-0.685,2.073l-1.028,1.371
				c-1.047,1.37-2.075,2.74-3.446,3.102l-2.759,1.029l-2.418,0.685l-2.074,0.342l-1.712-0.342l-1.39-0.343l-1.029-0.686
				l-0.342-0.686c-2.417-1.731-4.473-4.129-6.548-6.546c-1.37-5.158-2.056-10.679-3.083-16.198
				c-1.048-6.186-2.075-12.733-3.104-19.28c-0.361-2.76-1.046-5.862-1.731-8.621l-1.371-4.475l-1.388-4.13l-1.371-3.788l-1.39-3.787
				l-1.713-3.464l-2.759-5.501l-2.76-4.814c-1.712-2.417-3.426-4.816-5.5-6.892l-1.029-1.73c-0.685,0.343-1.39,0.704-2.075,1.389
				v0.342l-4.815,3.788l-3.465,2.418l-3.788,2.399l-3.787,1.73l-3.768,1.37l-3.807,1.37l-3.445,1.047l-3.444,0.687l-3.102,0.684
				l-5.158,0.687c-2.075,0.342-4.131,0.342-5.863,0.342c-2.741,1.047-5.501,1.389-8.604,2.075
				c-5.519,0.343-11.02,0.685-16.883,0.685l-2.759-0.342l-2.399-0.686l-2.074-1.047l-1.733-1.027
				c-1.027-0.687-2.054-1.37-3.101-2.398l-1.371-1.047l0.342-2.741l0.686-1.731l1.046-1.37c1.027-1.371,2.056-2.761,3.444-4.131
				l1.713-1.731l1.732-1.713l1.714-1.39l1.731-1.027l1.371-1.028l1.732-0.705l1.371-0.342l1.028-0.342l1.389-0.343l2.056,0.343
				c0.685,0,1.37,0,2.075,0.684l1.029,0.344l0.342,0.703l3.102,1.37L439.959,171.873z"/>
			<path fill="#181878" d="M413.427,102.287l-4.129,2.76c-1.39,1.047-2.76,1.732-4.493,2.417c-0.684,0.686-1.371,1.371-2.055,2.075
				c0,2.76,0,8.261,0.342,11.02c2.761-2.074,5.178-4.473,7.577-6.547l1.046-0.685c1.371-1.391,2.759-2.761,4.471-4.131
				c0.687-0.361,1.39-0.704,2.075-1.047l1.372-0.343l2.074,0.686l0.686,1.731l0.342,1.028c0,0.685,0,1.39,0,2.075
				c0.343,2.074,0.687,3.787,0.687,5.861v1.713l-0.343,1.713l-0.685,2.76c-0.342,1.028-1.029,2.075-1.39,3.103l-1.027,1.714
				l-1.029,1.389l-1.37,1.714l-2.76,2.759l-3.101,2.418c-2.417,2.075-4.835,3.788-7.594,5.52c-0.687,0.686,0.684,0.344,0.684,1.37
				l-0.684,1.371l0.342,3.787v3.787l0.342,3.788l-0.342,6.224l-0.342,5.501c-0.687,3.444-1.371,6.89-2.399,10.335
				c-1.047,2.056-1.732,4.131-2.759,6.205c-1.714,3.104-3.447,5.862-5.158,8.945c-1.048,1.733-2.076,3.104-3.447,4.815
				c-1.389,1.732-3.101,3.446-4.491,5.52c-1.714,1.733-3.445,3.445-5.521,4.834c-2.054,2.057-4.471,4.131-7.212,5.845
				c-3.788,2.76-7.918,5.177-11.725,7.917l-2.397,1.39l-3.465,1.027l-3.083,0.343l-2.417,0.344h-2.057
				c-1.388-0.344-2.759-0.344-4.129-0.687c-0.705,0-1.388,0-2.075,0c-0.684,0-1.39,0.343-1.732,0.343c-1.371,0-2.056,0-3.445,0
				l-0.684-0.343l-0.687-0.685l-0.684-0.685l-1.046-1.39l-0.343-2.398l-0.343-2.417l0.343-2.398l0.685-2.419l0.705-2.073
				l1.027-2.073l1.371-1.714l1.731-1.027c2.418-0.706,4.473-2.075,6.89-3.123c4.816-2.741,9.974-5.842,14.81-8.603l2.417-2.056
				l2.76-2.075l2.397-2.397l2.074-2.76l2.417-2.761l1.714-3.101l2.056-3.104l3.102-5.861l2.417-5.158
				c1.027-2.057,2.075-3.788,2.76-6.205c0.343-2.759,0.686-5.178,0.686-8.261c0-1.732-0.342-3.104-0.342-5.177
				c0,0-1.028-0.686-1.028-1.371c-2.76-1.026-5.862-1.37-8.965-2.417l-8.26-3.787c-4.13-2.056-8.279-4.131-12.41-6.548l-2.759-2.76
				l-1.714-2.398l-1.027-2.417l-0.344-2.056v-1.732c0.344-1.027,0.344-1.713,0.686-2.76l1.028-1.713l1.027-1.37l1.046-1.39
				l1.027-1.027c0.687-0.686,1.371-1.39,2.057-1.732c1.046-1.371,2.76-2.056,4.491-2.056h0.687c1.027,0.343,2.074,0.685,3.101,1.027
				c0.343,0.343,1.029,0.686,1.733,1.028c1.027,0.685,2.397,1.39,3.787,1.732l1.371,1.712l0.686,0.343l0.685,1.047
				c0.361,1.028,0.703,1.714,0.703,2.76c1.714,1.028,3.084,2.056,4.474,3.084c1.027,0.685,2.397,1.389,3.788,1.731l3.102,1.713
				c-0.361-3.102-0.361-8.945-0.705-12.047c-1.027-0.343-2.397-0.686-3.788-1.028c-4.473-2.075-9.289-4.149-13.76-6.567l-2.76-0.685
				c-1.39-0.685-3.104-1.37-4.492-2.397l-2.76-2.075l-2.056-2.417l-1.027-2.741l-0.705-2.417l-0.342-2.056
				c0.342-1.39,0.342-2.417,0.703-3.807l0.685-2.741l1.029-2.417l1.027-2.074l1.39-2.075l1.371-1.37
				c0.685-0.685,1.39-1.37,2.074-2.056l2.057-1.39l2.074-1.027l2.417-0.342l1.714,0.684l1.39,0.686l0.684,1.048l0.343,0.342
				l1.371,1.028c2.76,2.056,5.861,4.13,8.965,5.861c-1.047-7.231-1.047-14.808-1.047-22.401v-1.714l-0.343-1.046l0.343-1.371v-1.027
				l0.684-1.39l1.046-0.685l1.029-0.343h0.342c3.789-1.028,7.938-2.074,11.383-3.445h0.342c1.713-1.37,3.445-2.397,4.816-3.788
				c1.731-1.37,3.102-2.74,4.816-4.13c1.732-1.713,3.101-3.787,4.834-5.52l3.444-3.788c1.028-1.027,2.075-2.074,3.104-3.444
				l0.684-0.686l1.39-3.444l0.343-1.028l1.37-1.37l1.371-0.705l1.39-0.343c0.684,0,1.713,0,2.398,0h0.685l1.732,1.048l1.027,1.37
				l1.029,1.371c1.046,1.731,2.075,3.444,2.759,5.519l1.029,3.445l0.705,3.103l0.343,2.398c0.342,2.417,0.684,4.834,0.342,7.252
				l-0.685,2.056l-0.705,2.056l-1.029,2.074l-1.027,1.713l-1.027,1.731l-2.417,3.103c-1.371,1.37-2.417,2.418-3.788,3.787
				c-1.371,1.029-2.418,2.075-3.788,3.104l-2.76,2.074c-1.37,1.027-2.76,1.713-4.13,2.741l-2.76,1.389
				c-2.417,1.028-5.177,2.398-7.918,3.104h-0.342l-0.342,1.37c-0.344,4.13,0,7.917,0,11.705c2.054-1.37,3.425-2.741,5.158-4.473
				l2.074-1.371l1.371-0.703c1.733-1.714,3.787-3.445,5.862-4.473l1.732-2.056c0.685-0.705,1.37-1.391,2.399-2.075l1.388-0.342
				h1.714l1.714,1.026l1.046,1.391l0.342,1.027c0,1.37,0,2.398,0,3.445c0,1.37-0.342,2.759-0.686,4.13l-2.76,7.232
				c-1.371,3.103-2.417,5.862-4.129,8.622l-2.76,2.056L413.427,102.287z"/>
		</g>
		<g>
			<path fill="#181878" d="M5.86,101.278l-1.389-1.047l-1.37-1.37l-0.686-1.047L1.73,96.443l-0.705-1.37l-0.343-1.389L0.34,92.656
				v-1.389l-0.343-1.028v-1.37l0.343-0.686v-1.047l0.342-1.028c0-1.027,0.343-1.713,0.343-2.74l0.705-2.075l0.343-1.713
				c0.685-1.731,1.028-3.102,1.712-4.834l0.686-0.685l1.047-0.686l1.37-0.705l1.389-0.685l3.788-2.075l2.055-1.027h1.732h1.371
				l1.37,0.686l0.704,0.703l0.686,0.686l0.342,0.687l1.371,0.342l1.731,0.342h1.713l1.732,0.343h1.712h1.732l1.713-0.343h1.389
				h1.371l2.417-0.684c1.028,0,1.713-0.344,2.76-0.344h0.685l0.343-0.343l0.685-13.095v-1.027v-0.343h-0.685l-1.028,0.685
				l-1.047,0.686l-1.37,1.047l-2.417,1.714l-1.371,0.685l-1.371,1.371l-1.389,0.703l-1.028,0.686l-1.047,0.343H27.9h-0.343h-0.685
				h-0.685h-1.047l-1.028-0.343c-0.686,0-1.732,0-2.417-0.343H21.01c-1.713-3.787-3.787-7.575-5.843-11.362l-0.343-0.704
				l-0.362-0.686v-0.343v-0.685v-0.343v-0.343l0.362-0.343l3.769-4.492v-0.343c0-0.685,0-1.027,0-1.731l0.342-0.343v-0.343
				l2.417-2.398l2.417-2.417l2.76-2.397l3.103-2.417l3.445-2.418l3.102-2.398l3.446-2.417l3.083-2.074l3.103-2.075l3.102-1.712
				c3.103-2.075,6.205-4.131,9.65-5.863l2.075-1.713l2.056-1.027l2.074-1.047l1.713-0.343h1.371h1.39h1.028h4.13l3.102,0.686
				l2.417,1.389l1.732,2.056l0.686,1.732l0.685,1.713v1.027v0.705l-0.343,1.027l-0.342,1.027l-0.343,1.048l-0.343,0.685v1.028
				c0,0.343-0.362,0.685-0.362,1.046l0.362,2.741l-0.362,2.417l-0.685,2.074l-0.686,1.714l-1.027,1.39l-0.705,1.027l-1.028,0.686
				l-0.343,1.027l-0.686,0.686l-1.046,0.343h-0.685h-1.713h-0.705h-0.342l-1.712,1.389l-0.686,0.343l-0.685,0.686l-2.075,2.417
				l-2.397,2.76c-0.343,2.056-0.343,3.788-0.343,5.501c-0.362,4.834-0.705,9.649-1.047,14.465c0,0.686,0,1.732,0,2.76l1.047-0.686
				l1.027-0.342l1.028-0.704c0.685-0.343,1.371-0.686,2.056-1.371l1.732-1.027l1.371-1.39l1.027-1.028l1.047-1.027l0.343-0.685
				c0.342-0.686,0.685-1.028,1.028-1.371l1.046-1.732l1.028-1.37l0.686-1.047l0.685-1.027l0.343-1.028c0-0.342,0-0.685,0.362-1.046
				l0.685-2.741c0.343-1.047,0.685-2.074,1.028-2.76l0.342-0.704l0.342-1.714c0-0.685,0.343-1.389,0.705-2.074l1.371-1.37
				l1.732-1.37l1.37-1.047l1.713-1.37l2.759-1.714c0.686-0.704,1.371-1.047,2.418-1.731h0.342h0.343v-0.343l0.343,0.343h0.343
				l0.342,0.342v0.686l0.342,1.047v1.028l0.343,1.37v1.731v3.445c0,2.398-0.343,4.474-0.343,6.891c0,1.37,0,3.102,0,4.473
				l-1.027,2.76l-1.028,2.417l-1.39,2.056l-1.028,2.417l-1.028,2.056l-1.389,1.732l-1.028,1.713l-1.37,1.731l-1.028,1.37
				l-1.047,1.391l-1.028,1.027l-1.028,1.028l-1.047,1.046l-0.686,0.686l-1.027,1.028l-2.418,1.046l-1.389,0.686l-1.371,0.686
				l-1.027,0.685l-1.047,0.686l-1.027,0.686l-0.342,0.704c-0.343,0.685-0.343,1.027-0.686,1.713c0,0.685-0.343,1.37-0.343,1.713
				l1.028,1.047l1.37,1.713l1.39,1.371l1.371,1.731l1.046,1.713l1.028,1.39l1.371,2.074l1.047,1.714l1.027,1.731l0.686,1.713
				l1.047,2.074l1.028,1.714l0.686,1.732l0.685,2.055l0.704,1.732l0.685,1.712l1.371,3.446l1.028,3.102
				c0.704,2.075,1.389,4.131,2.074,6.548c0.343,1.027,0.685,2.417,1.028,3.788v0.685l0.343,0.343c1.028-1.37,4.473-1.027,5.52-2.056
				l0.685-1.027l1.028-0.705l1.028-0.685l1.046-0.343l1.028-0.343c1.371,0,2.76-1.37,4.13-1.732h0.342l0.705-0.342l3.103-1.028
				l2.056-0.686l4.13-1.389c1.389-0.343,2.417-0.686,3.445-1.028l1.732-0.343l1.371-0.342l1.37-0.343h1.39h1.027
				c0.343,0,1.028,0.343,1.39,0.343l2.056,0.685c0.685,0.343,1.389,0.686,2.075,1.028c0.685,0,1.37,0,1.712,0
				c0.705,0,1.39,0,2.075,0l1.028-0.343h1.389c1.028,0,2.398,0,3.788,0c0.342,0,1.028,0,1.713,0h1.371l1.39-0.686l0.686-0.343
				l0.342-0.685l0.343-0.704l0.342-0.686v-0.343v-1.027l0.343-1.39c0-4.13,0-7.918,0-12.048c0-5.862,0-12.067,0-17.91
				c0-3.445,0-6.548,0-9.992c0-2.056,0-3.788,0.342-5.863c0-2.397,0-4.814,0-6.89c0-1.713,0-3.426,0-5.501
				c0-1.37,0-3.102-0.342-4.815c0-1.046,0-2.074,0-3.102c-0.343-5.178-0.343-10.336-0.343-15.513
				c-0.342-1.027-0.342-2.397-0.342-3.769v-2.074v-1.732l0.342-3.102c0-0.686,0-1.371,0.343-2.056L155.708,2.4l0.686-1.027
				l1.37-1.028l1.39-0.343h4.13l1.371,0.343l1.028,0.343l1.046,0.343l2.741,2.76l2.417,2.075l1.713,2.056l1.732,1.713l1.028,1.389
				l1.046,1.371l1.028,1.027l1.028,1.731l0.343,1.028v1.027v1.048l0.361,1.369v1.391v1.37v1.731v1.371l-0.361,1.731v1.713
				l-0.343,1.732v1.713l-0.343,1.713l-0.342,1.732v1.713l-0.343,1.39l-1.732,26.171c0,1.37-0.342,3.102-0.685,4.473l-0.342,3.102
				c0,1.391,0,2.761-0.343,4.492v1.371v2.759v1.371v1.389v1.028v1.027l0.343,1.028l-1.713,30.32l3.102,0.343l3.788,0.342
				l3.446,0.686l3.102,0.343l2.741,0.704l2.76,0.685l2.417,0.686l2.398,0.686l2.074,0.704l2.075,0.343l1.37,0.685l1.732,0.686
				l1.371,0.686l1.028,0.342l1.732,1.048l0.342,0.343h0.343v0.342l0.342,0.343v0.686v0.342l-0.342,0.362v0.343l-1.371,1.37
				l-1.389,1.713l-3.102,4.493c-1.028,1.369-2.418,3.081-3.445,4.814l-1.371,1.027l-1.047,1.028l-1.371,0.705l-1.028,0.684
				l-1.389,0.687l-1.371,0.342l-1.371,0.342l-1.028,0.344l-1.046,0.343l-1.028,0.36l-1.713,0.343c-0.705,0-1.39,0-1.732,0
				l-11.021-2.073c0,1.027,0,1.73,0,2.759c-0.362,13.781-0.362,27.903-0.362,41.683c0,10.335,0,20.671,0,31.006
				c0,2.397,0,4.815,0,7.575c0,0.685,0,1.37,0,2.074v1.027v1.028l-0.343,1.371l-0.685,2.417l-0.685,2.76
				c-0.686,2.397-1.371,4.473-2.075,6.548l-0.342,1.713l-1.028,3.787l-0.342,2.417l-0.686,2.075l-0.685,2.056l-0.685,1.731
				l-1.047,1.027l-2.398,1.028l-4.835,1.027l-1.713,0.705l-1.732,0.685l-1.028,0.344l-1.731,0.685l-0.686,0.343l-2.075-6.89
				l-0.342-2.056l-0.343-2.075l-0.342-2.397v-2.419l-0.343-2.073v-2.417l0.343-2.056v-2.075v-2.056l0.342-1.732l0.343-3.102
				c0-1.028,0.342-1.714,0.342-2.741v-1.028c-0.342-6.204-0.342-12.067-0.342-18.271c0-13.096,0.342-26.514,0-39.607v-6.548
				c0-2.761,0-5.862-0.343-8.604v-5.176l-0.342-2.076v-2.055l-0.343-1.733v-1.37h-0.342l-1.028-0.342h-1.39h-1.028h-1.371
				l-1.731,0.342h-1.371l-1.371,0.343c-1.389,0-2.759,0.344-4.149,0.686c-1.028,0-2.398,0.342-3.445,0.686l-2.056,0.703
				l-2.074,0.687l-2.417,0.684l-2.76,0.687l-2.398,0.685l-2.76,0.705l-2.741,0.685l-4.834,1.028
				c-3.103,0.686-8.622,1.047-11.725,1.731l0.362,1.714l0.685,3.101l0.685,6.206c0.686,3.445,1.028,6.89,1.371,10.678
				c0.704,6.204,1.732,12.732,2.417,18.938v3.102l0.343,2.417v2.075v2.056v1.732l-0.343,1.712v1.37v1.047l-0.343,1.028
				c-0.342,1.028-0.342,2.056-1.028,3.103v0.686l-0.343,0.685l-0.361,0.686l-0.343,0.686l-0.685,0.343l-0.686,0.361l-0.685,0.342
				l-2.418-0.342h-1.37l-1.028,0.342l-1.047,0.344l-1.028,0.343l-0.685,0.685l-0.685,0.343H88.54l-1.046-0.343l-0.685-0.685
				l-0.686-0.687l-0.342-0.703l-0.343-1.028l-0.343-0.686v-0.685c-0.342-1.389-0.704-2.417-0.704-3.446
				c-0.686-4.129-1.371-8.259-1.713-12.752c-1.732-11.019-3.103-22.041-4.492-33.403c0-1.046-0.343-2.073-0.343-3.102l-1.028-4.13
				l-0.686-3.787l-0.685-3.445l-1.046-3.446l-0.686-3.102l-0.685-2.759l-0.685-2.761l-1.047-2.397l-0.685-2.419l-0.685-1.713
				l-0.686-2.074l-0.685-1.713l-0.705-1.39l-0.685-1.37l-0.343-1.047l-0.685-1.028l-0.686-1.027l-0.342-0.704l-0.686-0.686
				l-0.342-0.343l-0.343-0.686c-0.362-0.342-1.047-0.685-1.39-1.027l1.028,83.365l-0.343,2.741l-0.342,2.417l-0.343,2.417
				l-0.685,2.399l-0.343,1.731l-0.685,1.714l-0.704,2.073l-6.205-5.177l-4.473-5.842l-1.371-2.075l-1.046-1.37l-1.028-0.686
				l-1.028-0.686l-0.685-0.704l-0.705-0.344l-0.685-0.684v-1.028l-0.342-2.759l-0.343-2.761v-3.104l-0.343-3.101v-3.104
				l-0.343-6.186l-0.342-6.548v-6.548v-6.204c0.342-4.814,0.342-9.65,0.342-14.808c0-4.492,0.343-8.965,0.686-13.78
				c0-1.713,0-3.103,0-4.815l-5.501,10.315l-0.686,1.391l-0.704,1.37l-0.343,1.027l-0.685,1.39l-0.343,1.027l-0.685,2.417
				l-0.686,2.417c-0.704,2.398-1.389,4.817-2.074,7.576l-0.685,2.417l-0.705,2.398l-0.686,2.76l-0.342,2.398l-0.343,2.417
				l-0.343,2.417l-0.342,2.417v2.397l-0.343,2.417v2.419v2.417v2.056v2.417v2.056v2.075l0.343,3.787l0.342,3.444l0.343,3.445
				c0.685,2.761,1.028,5.52,1.732,8.26l0.343,2.417l0.342,1.371v1.046v0.688v0.684l-0.685,0.687
				c-0.362,0.342-0.705,0.684-1.39,1.027l-0.343,0.343l-0.685,0.703l-1.047,0.344l-0.685,0.343l-1.028,0.685l-1.732,0.343
				l-1.713-0.685l-1.732-0.686l-1.712-1.39l-1.713-1.371l-1.39-1.714l-1.028-1.73l-0.685-1.713l-0.685-2.074l-0.686-2.398
				l-0.704-2.075l-0.342-2.417l-0.343-2.056l-0.343-2.417l-0.342-2.075l-0.343-2.074l-0.343-2.398v-2.075L7.935,186.7v-4.131v-3.787
				v-3.444v-3.446v-2.76c0.342-2.759,0.342-5.519,0.685-8.279l0.685-3.426l0.343-3.445l0.685-3.102l0.704-3.446l0.686-3.101
				l0.685-2.761l0.685-3.103l0.685-2.76l0.686-2.741l0.705-2.76l0.685-2.417l0.685-2.418l0.686-2.397l1.712-4.149l1.39-4.131
				l1.371-3.444c0.685-1.371,1.371-2.74,1.731-4.13c1.028-2.056,2.056-4.131,3.103-6.206h-0.704h-1.713l-2.417,0.362l-4.815,1.028
				c-1.028,0-2.417,0.343-3.445,0.343l-1.712,0.342h-1.39l-1.37-0.342l-1.028-0.343l-1.047-0.343l-0.685-0.343L5.86,101.278z"/>
			<path fill="#181878" d="M103.005,90.925l-1.046-0.343l-1.713-0.686l-1.731-1.027l-1.371-0.705l-1.39-1.027l-1.028-0.686
				l-1.027-0.685l-0.705-0.686l-1.028-1.732l-0.343-2.056l0.343-2.417l0.343-2.417l0.343-2.056l0.704-1.732l0.686-1.713
				c0.343-1.731,0.685-3.464,1.027-5.177v-1.732l0.343-1.027l0.343-1.371l0.705-0.685l5.843-2.76l2.074-0.343l2.075-0.343
				l2.056-0.685l1.712-0.686c1.732-0.343,3.103-0.704,4.473-1.39h3.121h1.371l1.732-0.342h1.37l1.37-0.343l1.047-0.343l1.028-0.343
				c1.389-1.047,2.417-1.731,3.788-2.76l2.074-1.389l1.028-0.343l0.343-0.343h3.788l2.76,0.343l2.056,0.343l1.389,0.704l0.685,0.342
				l0.685,0.686v0.686v0.343v1.389l-0.342,1.37l-0.343,1.39l-0.343,1.027c0,0.343-0.342,1.028-0.342,1.371v1.027l-0.343,1.39v1.371
				l-0.361,1.369l-0.343,1.391l-0.342,1.37l-0.686,1.37l-0.342,1.047l-0.686,2.417c-0.704,1.027-1.046,2.056-1.731,3.103
				l-0.343,1.714l-0.685,1.046l-0.686,0.686l-0.685,0.686l-0.705,0.342h-0.343h-0.685l-1.371-0.342h-1.371h-1.046h-0.685
				l-0.686,0.342h-0.685l-0.342,0.343l-0.343,0.343l-0.704,0.704l-0.685,0.686l-0.685,0.342c-0.686,0.343-1.028,0.686-1.732,1.028
				c-3.445,1.713-6.89,3.445-9.992,5.158c-1.713,0.685-3.445,1.39-5.158,2.417l-0.686,0.343l-0.685,0.343l-1.047,0.343h-0.685
				h-1.028h-0.685H103.005z"/>
			<path fill="#181878" d="M97.486,95.759l1.028-0.686l1.028-0.685l1.046-0.343h1.028h0.686l1.028,0.343h0.704l1.371,0.343
				c0.343,0,0.685,0,1.028,0h1.047h1.713l2.397-0.686l2.418-0.686l2.417-0.704c1.028-0.343,2.417-0.686,3.787-1.027l5.178-2.056
				l1.713-0.686h1.731l1.371-0.361h1.028l1.047,0.361h0.685l0.685-0.704l1.028-0.343l1.028-0.685l1.39-1.028
				c0.342-0.343,0.685-0.704,1.028-1.047l1.712,0.704l0.705,1.371l0.685,1.37v1.731l0.343,1.371v1.027l-0.343,1.39l-0.685,1.713
				l-0.362,1.027v1.39v1.028v1.027v0.685l0.362,0.705l0.342,1.028v1.027l-0.342,1.047v1.027l-0.705,0.686l-0.685,1.732l-0.686,1.37
				l-0.342,0.342l-0.343,0.705c-0.343,0.343-0.343,0.343-0.685,0.686l-1.047,0.685l-0.343,0.343l-0.685,0.343l-0.685,0.343
				c-1.028,0.361-1.713,0.704-2.76,1.046l-2.398-0.342h-1.028l-1.389,0.342l-1.713,0.686l-1.732,1.028l-1.732,0.685
				c-1.028,0.343-2.056,1.047-3.102,1.39l-1.028,0.343l-1.028,0.342l-1.389,0.343l-1.371,0.343l-2.417,1.028l-2.398,1.027
				c-2.075,1.047-3.788,1.732-5.862,2.76h-0.343l-3.102-0.686l-2.417-1.027l-1.713-1.047l-1.389-1.37l-0.685-1.371l-0.343-1.027
				l-0.342-0.704v-0.686l0.685-7.231v-1.029l0.342-1.046l0.343-1.028l0.362-0.685c0.342-0.686,0.684-1.028,1.027-1.732v-0.685
				l0.343-0.343v-0.686v-0.705v-0.685c0-0.685,0-1.37,0-2.056l0.342-1.047l0.343-0.686L97.486,95.759z"/>
		</g>
		<g>
			<path fill="#181878" d="M688.312,2.763c0,0,19.3-3.103,35.136-1.37c0,0,26.19,1.712,35.84,6.204c0,0,1.712,1.713,1.712,4.473
				c0,0,3.104,2.056,3.445,3.083c0,0,2.417,4.835-18.615,16.902c0,0-9.972,2.74-13.418,3.444c0,0-4.835-0.361-19.643-0.704
				c0,0-15.854,0-21.354,4.131c0,0-3.787,2.759-8.945,2.417c0,0-8.623,0.685-8.281-8.945c0,0,0.685-9.65,2.76-11.382
				c0,0,4.131-5.501,3.788-7.919l1.39-2.055l1.712-2.76l1.39-3.445L688.312,2.763z"/>
			<path fill="#181878" d="M881.196,249.396c0,0-0.344-1.37-2.399-1.713c0,0-1.39-2.074-2.759-6.566c0,0-1.028-1.713-5.158-3.788
				c-3.789-2.056-28.246-15.835-52.705-30.301c0,0-17.567-12.066-21.012-16.883c0,0-9.992-7.231-8.965-28.245
				c0,0,0.343-11.02,1.732-15.854c0,0,0.685-1.028,5.158-0.686c0,0,9.65,1.391,18.253-2.417c0,0,8.622-3.787,16.198-9.974
				c0,0,1.712-3.103,2.397-4.473c0,0,6.206-4.492,11.725-14.827c0,0,3.445-9.974,5.177-18.253c0,0-0.361-1.731,0.342-3.103
				c0,0,2.741-8.603-2.074-12.733c0,0-1.028-2.074-3.787,0.686c0,0-6.206,2.075-7.918,6.548c0,0-1.731,4.473-3.104,1.027
				c-1.046-4.13-3.786-7.575-13.094-9.288c0,0-3.445-0.361-0.343-2.074c0,0,13.781-3.103,25.848-19.301
				c0,0,8.945-12.047,9.289-26.855c0,0-0.344-4.13-0.686-5.52c0,0-3.788-0.686-6.205,5.862c0,0-1.372,2.056-3.787,2.76
				c0,0-1.371,0.343-3.446,4.815c0,0-1.731,1.027-2.76-2.417l0.686-6.186c0,0,0.705-1.732-3.103-5.178c0,0-4.473-4.473-28.245-6.891
				c0,0-8.26,0.687-14.104,2.056c0,0-6.206,0.705-9.308,1.048c0,0-2.075,0.686-6.548,7.232c0,0-1.027,1.732-5.158,1.39
				c0,0-3.807,0-5.862,5.5c0,0-2.417,5.501-4.491,8.261c0,0-1.028,1.732-6.891-0.343c0,0-22.383-3.103-33.06-3.445
				c0,0-14.808-1.027-32.719,2.76c0,0-7.936,2.398-12.409,3.446c0,0-4.131-1.733-5.843,1.37l-1.39,3.103
				c0,0-1.712,2.759-3.446,10.678c0,0-4.129,3.787-2.054,13.095c0,0,5.158,8.26,10.335,6.204c0,0,2.054-1.027,3.083,0
				c0,0,2.759-0.686,4.129-1.37c0,0,0.687-2.417,1.733,3.788l2.074,3.083c0,0,1.028,1.732-1.047,2.074
				c0,0-14.103,2.398-15.835,5.158c0,0,0,3.445-0.685,3.787c0-0.685-8.623,7.252-5.863,20.328c0,0,3.103,8.279,12.067,7.937
				c0,0,4.816,0.343,7.214-1.047c0,0-0.685,3.788-0.343,5.178c0,0-1.712,5.843,0.343,11.363l1.028,6.204
				c0,0,0.704,21.697-3.426,38.238c0,0-1.048,3.769,1.369,12.733l2.057,3.787c0,0,0,5.862,2.074,10.677
				c0,0,6.205,10.336,17.568,8.281c0,0,24.114,0,35.839-18.958c0,0,4.816-12.048,6.548-16.521c0,0,8.26-15.513,1.371-36.524
				l-1.029-6.548v-4.131c1.714-4.13,2.056-8.945,2.741-14.808c0,0-0.342-5.177-5.843-6.89c0,0-5.862-0.343-7.251,4.13
				c0,0-0.685,1.37-1.371,6.548l0.686,6.89l1.046,4.815c0,0,1.027,3.102-1.39,3.102c0,0-13.762-2.073-17.567-2.073l-12.734-1.714
				c-0.361,0.686,1.029-6.204-4.131-18.938c0,0-0.703-2.417,4.816-3.102c0,0,5.501-2.417,13.437-1.732c0,0,6.205,1.027,11.362,0
				c0,0,13.096-1.027,14.808,0.343c3.789,0,11.706,0.685,14.123,1.732c0,0,5.521-5.521,7.233-11.363l1.689-3.69
				c-0.063,0.214-0.125,0.863,0.386,2.662c0.685,2.398,1.712,3.788,1.712,3.788s-1.712,3.083,0.705,5.844l7.233,5.157
				c0,0-8.623,27.562-7.938,52.361c0.705,25.162,9.993,40.313,33.081,57.88c0,0,54.759,35.136,66.826,36.164l1.371-2.056l2.075-1.39
				l3.787-1.027l3.444-0.344l2.056-3.787C880.167,255.943,881.557,250.785,881.196,249.396z M807.499,53.048
				c0,0,11.362,0,15.15,3.788c0,0,1.714,0.342,0.343,1.37c0,0-6.89,5.158-11.706,6.205l-2.76,2.056c0,0-9.65-4.816-13.094-9.289
				C795.432,57.178,800.266,53.391,807.499,53.048z M795.088,111.956l2.418-1.027c5.176-1.732,14.464-0.686,14.464-0.686
				c5.863,0,4.131,3.787,4.131,3.787c-0.685,0.343-1.714,2.398-1.714,2.398c-2.417,3.445-8.602,4.834-8.602,4.834
				c-5.521,2.056-9.308,1.371-9.308,1.371c0-2.417-1.39-1.371-1.731-2.76C794.403,118.846,795.088,111.956,795.088,111.956z
				 M698.286,173.966c1.046-2.074,1.39-1.026,2.76-2.074l14.808-1.027c3.103,0.343,9.992-0.342,11.382-3.103l2.76-2.759
				c2.741-3.77,4.473-8.262,4.473-8.262l1.027-0.685c0.685,3.787,0.343,8.946,0.343,8.946c-0.343,8.621-3.102,14.141-3.102,14.141
				c-7.918,10.317-25.143,11.706-25.143,11.706c-9.65,1.37-11.706-1.047-11.706-1.047l-1.732-0.342l1.732-3.77
				c0.685-2.761,1.712-9.65,1.712-9.993L698.286,173.966z M727.577,73.737c-3.102,9.631-5.158,9.974-5.158,9.974
				c-3.444,0.685-10.696,0.342-10.696,0.342l-2.398-1.027v-2.074c0.342-2.056-1.046-5.844-1.046-5.844
				c-1.028-3.103-0.685-3.444-0.685-3.444c2.074-1.028,6.89,0.685,8.963-1.028c1.37-1.047,7.576-0.704,7.576-0.704
				c2.417-0.343,3.444,0.704,3.444,0.704C727.921,72.005,727.577,73.737,727.577,73.737z M776.836,79.923
				c-4.492,0-8.623,11.706-8.623,11.706s0.343,0.342-0.685-0.343c-1.371-0.686-4.814-0.343-4.814-0.343
				c-2.075-2.074-3.446-2.074-3.446-2.074c-9.992,0-12.409-4.131-12.409-4.131c1.732-6.89,7.575-17.567,7.575-17.567
				c5.177-1.028,6.89-5.158,6.89-5.158c0-4.815,2.76-4.473,2.76-4.473c1.371,0.343,2.759,3.445,3.444,6.528
				c2.399,3.445,4.816,6.89,4.816,6.89c5.177,4.835,8.622,6.548,8.622,6.548C779.938,78.553,778.207,79.58,776.836,79.923z"/>
		</g>
	</g>
	<g>
		<g>
			<path fill="#181878" d="M1857.059,249.806c0-2.476,0-5.996,0-10.755c-0.172-4.758-0.172-8.451-0.172-10.734
				c0-1.237,0-2.816,0.172-5.101c0-2.304,0-4.055,0-5.121c0-6.509-0.875-11.097-2.625-13.913c-2.475-4.054-7.063-5.977-13.742-5.977
				c-3.541,0-7.045,1.219-10.754,3.522c-2.971,2.112-5.443,4.053-7.387,5.462c-0.531-2.304-1.047-4.588-1.234-6.7
				c0-0.532-0.191-0.894-0.363-0.894s-2.094,0.361-5.977,0.894c-3.863,0.705-5.803,1.066-6.166,1.066
				c-0.344,0.172-0.703,0.342-0.703,0.704c0,0.171,0.168,0.342,0.168,0.686c1.582,6.528,2.477,13.57,2.477,21.146
				c0,2.797,0,7.213-0.191,12.848c0,5.634-0.17,9.858-0.17,12.695c0,0.875,0.551,1.218,1.254,1.218c1.047,0,2.801,0,5.104,0
				c2.283,0.172,3.861,0.172,5.1,0.172c0.703,0,1.066-0.515,1.066-1.39v-32.242c0-1.6,1.58-3.521,4.93-5.634
				c3.16-2.114,5.635-2.989,7.385-2.989c3.881,0,6.508,0.875,7.938,2.989c1.047,1.579,1.75,4.566,1.75,8.621c0,1.428,0,3.54,0,6.339
				c0,3.007,0,5.1,0,6.528c0,1.751,0,4.396-0.172,8.089c0,3.539-0.172,6.167-0.172,7.938c0,1.047,0.344,1.579,1.049,1.579
				c1.047,0,2.816,0,5.271,0c2.285,0.172,4.055,0.172,5.119,0.172C1856.715,251.023,1857.059,250.509,1857.059,249.806z"/>
			<path fill="#181878" d="M1917.109,217.372c0-4.567,0.191-11.439,0.703-20.766c0.363-9.154,0.535-16.026,0.535-20.784
				c0-0.704-0.363-1.065-0.879-1.065c-1.234,0-3.178,0.172-5.803,0.361c-2.666,0.172-4.588,0.361-5.824,0.361
				c-0.516,0-0.875,0.343-0.875,1.218c0,1.238,0,2.989,0.172,5.463c0.188,2.456,0.188,4.227,0.188,5.462v17.244
				c0,0.533-0.188,0.705-0.531,0.877c-1.428-1.39-3.006-2.798-4.396-4.035c-3.369-2.646-7.234-4.055-11.799-4.055
				c-7.406,0-13.4,2.816-17.969,8.279c-4.416,5.102-6.701,11.61-6.701,19.204c0,7.386,2.285,13.533,6.701,18.825
				c4.568,5.463,10.373,8.279,17.605,8.279c6.338,0,11.799-2.627,16.73-7.918c0.359-0.533,0.531-0.704,0.875-0.704
				c0.191,0,0.191,1.237,0.363,3.691c0,2.476,0.34,3.713,0.873,3.713s1.219,0,2.305-0.172c1.047,0,1.75-0.19,2.283-0.19
				c0,0,0.684,0.19,2.094,0.19c1.258,0.172,2.303,0.172,2.836,0c1.045,0,1.58-0.362,1.58-0.704l-0.191-0.723
				C1917.469,242.21,1917.109,231.456,1917.109,217.372z M1901.273,236.214c-2.836,3.351-6.338,5.102-10.563,5.102
				c-4.244,0-7.766-1.751-10.584-5.102c-2.816-3.178-4.225-6.87-4.225-11.267c0-4.416,1.236-8.279,4.053-11.63
				c2.818-3.35,6.34-5.101,10.756-5.101c4.225,0,7.557,1.751,10.391,5.292c2.627,3.159,4.037,7.022,4.037,11.267
				C1905.139,229.172,1903.729,233.036,1901.273,236.214z"/>
			<path fill="#181878" d="M1801.578,202.24c0-0.532-1.408-1.065-4.416-1.771c-2.627-0.532-4.379-0.703-5.273-0.703
				c-0.703,0-1.234,1.047-1.578,3.349c-0.363,2.284-0.705,3.332-0.895,3.332c-0.172,0-0.172,0-0.344-0.171
				c-1.236-1.41-2.111-2.456-2.818-3.161c-4.053-3.691-8.793-5.633-14.084-5.633c-7.766,0-13.912,2.626-18.67,8.089
				c-4.588,5.291-6.873,11.801-6.873,19.737c0,7.043,2.285,13.189,6.873,18.481c4.566,5.635,10.393,8.451,17.262,8.451
				c2.818,0,5.633-0.704,8.453-2.283c1.748-0.896,3.689-2.114,5.805-3.865c1.77-1.408,2.645-2.131,3.008-2.131
				c0.17,0,0.512,1.256,0.873,3.882c0.344,2.476,0.875,3.693,1.582,3.693c1.047,0,2.473-0.172,4.396-0.344
				c1.941-0.17,3.537-0.342,4.416-0.342c1.047,0,1.387-0.532,1.387-1.599v-0.705c-0.875-15.683-1.387-23.772-1.387-24.114
				c0-5.995,0.703-13.057,2.092-21.318C1801.578,202.773,1801.578,202.412,1801.578,202.24z M1784.143,235.872
				c-2.836,3.351-6.338,5.102-10.582,5.102c-4.225,0-7.746-1.751-10.563-4.93c-2.818-3.35-4.057-7.042-4.057-11.439
				c0-4.226,1.238-8.108,4.057-11.268c2.816-3.35,6.338-5.101,10.563-5.101c4.416,0,7.746,1.751,10.582,5.101
				c2.627,3.159,3.846,6.853,3.846,11.268C1787.988,229.002,1786.598,232.694,1784.143,235.872z"/>
		</g>
		<g>
			<path fill="#181878" d="M1375.594,182.008c0-0.189-0.172-1.77-0.875-4.586c-0.535-2.989-0.875-4.588-0.875-4.588
				c-0.191-0.342-0.363-0.514-0.707-0.514c-3.709,0-7.23,0.514-10.752,1.94c-3.863,1.581-6.701,3.693-8.621,6.339
				c-2.305,2.798-3.352,7.556-3.352,13.895c0,1.427,0,3.179,0.172,5.463c-4.588,0.36-6.871,0.894-6.871,1.599
				c0,0.704,0,1.923,0.172,3.502c0,1.599,0,2.665,0,3.54c0,1.218,0.191,1.923,0.191,1.923c0.17,0.171,1.389,0.361,3.689,0.361
				c2.285-0.19,3.33,0.362,3.33,1.409v36.981c0,1.064,0.363,1.579,1.43,1.579h9.668c0.725,0,1.066-0.515,1.066-1.39
				c0-2.493,0-6.337-0.172-11.458c-0.17-5.101-0.342-8.813-0.342-11.458v-16.025c1.219,0,2.988,0.171,5.635,0.171
				c2.455,0.19,4.377,0.19,5.635,0.19c0.703,0,1.047-0.361,1.047-1.066c0-0.875,0-2.284-0.172-4.396c0-1.94,0-3.33,0-4.396
				c0-0.705-0.535-1.065-1.41-1.065c-1.238,0-3.178,0-5.635,0c-2.475-0.172-4.396-0.172-5.461-0.172
				c0-7.747,0.875-12.505,2.455-14.428c1.066-1.065,2.646-1.96,4.76-2.132c1.578-0.17,3.35-0.342,5.119-0.532
				C1375.422,182.693,1375.594,182.351,1375.594,182.008z"/>
			<path fill="#181878" d="M1333.303,205.591c-4.932-5.273-11.096-7.899-18.313-7.899c-7.402,0-13.551,2.626-18.498,7.899
				c-4.932,5.291-7.385,11.801-7.385,19.204c0,7.575,2.453,13.914,7.385,19.186c4.947,5.481,11.096,8.108,18.498,8.108
				c7.217,0,13.381-2.816,18.484-8.279c4.756-5.292,7.23-11.611,7.23-19.187C1340.705,217.22,1338.23,210.882,1333.303,205.591z
				 M1325.592,236.044c-2.834,3.179-6.338,4.93-10.582,4.93c-4.225,0-7.746-1.751-10.561-4.93
				c-2.648-3.179-4.057-7.042-4.057-11.269c0-4.396,1.238-8.107,4.057-11.267c2.643-3.18,6.336-4.759,10.561-4.759
				c4.244,0,7.748,1.579,10.582,4.929c2.627,2.989,3.846,6.7,3.846,11.097C1329.438,229.002,1328.219,232.865,1325.592,236.044z"/>
		</g>
		<g>
			<path fill="#181878" d="M1621.066,249.806c0-2.476-0.172-5.996-0.172-10.755c0-4.758-0.172-8.451-0.172-10.734
				c0-1.237,0.172-2.816,0.172-5.101c0-2.304,0-4.055,0-5.121c0-6.509-0.875-11.097-2.646-13.913
				c-2.281-4.054-6.869-5.977-13.379-5.977c-3.35,0-6.871,1.219-10.564,3.522c-3.008,2.112-5.291,4.053-7.213,5.462
				c-0.533-2.304-0.895-4.588-1.084-6.7c-0.172-0.532-0.344-0.894-0.516-0.894s-2.113,0.361-5.807,0.894
				c-3.689,0.705-5.822,1.066-5.994,1.066c-0.342,0.172-0.703,0.342-0.703,0.704c0,0.171,0.17,0.342,0.17,0.686
				c1.58,6.528,2.283,13.57,2.283,21.146c0,2.797,0,7.213,0,12.848c-0.172,5.634-0.172,9.858-0.172,12.695
				c0,0.875,0.363,1.218,1.066,1.218c1.066,0,2.818,0,5.123,0c2.092,0.172,3.861,0.172,4.928,0.172c0.705,0,1.047-0.515,1.047-1.39
				v-32.242c0-1.6,1.58-3.521,4.758-5.634c3.16-2.114,5.635-2.989,7.385-2.989c3.713,0,6.34,0.875,7.578,2.989
				c1.234,1.579,1.768,4.566,1.768,8.621c0,1.428,0,3.54,0,6.339c0.172,3.007,0.172,5.1,0.172,6.528
				c0,1.751-0.172,4.396-0.172,8.089c-0.17,3.539-0.17,6.167-0.17,7.938c0,1.047,0.342,1.579,0.873,1.579c1.219,0,2.99,0,5.104,0
				c2.283,0.172,4.053,0.172,5.291,0.172C1620.723,251.023,1621.066,250.509,1621.066,249.806z"/>
			<path fill="#181878" d="M1448.662,180.238c-1.941-1.599-4.928-2.816-8.813-3.883c-3.693-0.876-6.852-1.409-9.688-1.409
				c-6.51,0-11.799,1.942-16.027,5.824c-4.225,4.036-6.338,9.308-6.338,16.027c0,6.147,2.285,11.077,6.51,14.769
				c0.191,0.172,4.244,2.646,12.162,7.233c4.396,2.626,6.529,5.634,6.529,9.154c0,7.214-5.291,10.755-16.025,10.755
				c-0.895,0-2.303,0-3.885-0.191c-1.75-0.189-3.006-0.361-3.881-0.361c-0.535,0-0.875,0.172-0.875,0.723
				c0,0.344,0.168,0.705,0.168,0.876c0.707,2.284,1.051,3.864,1.41,4.93c0.344,2.646,0.723,4.588,0.895,5.996
				c0.344,0.874,2.283,1.218,5.977,1.218c8.09,0,14.959-2.093,20.441-6.147c6.148-4.758,9.137-10.925,9.137-19.033
				c0-6.339-2.094-11.269-6.682-14.979c-0.703-0.514-4.928-2.798-12.502-6.853c-4.4-2.455-6.701-5.29-6.701-8.451
				c0-5.823,3.178-8.813,9.688-8.813c2.133,0,4.928,0.705,8.277,1.942c3.352,1.237,5.123,1.941,5.123,1.941
				c0.34,0,0.512-0.171,0.703-0.533c1.047-2.112,1.75-3.521,2.094-4.738c1.236-2.304,2.131-4.245,2.838-5.293
				C1449.006,180.58,1448.834,180.409,1448.662,180.238z"/>
			<path fill="#181878" d="M1666.326,201.003c-4.033-2.646-8.602-3.863-13.361-3.863c-7.402,0-13.398,2.798-18.328,8.26
				c-4.586,5.292-7.043,11.61-7.043,19.205c0,7.557,2.457,13.894,7.213,19.357c4.93,5.463,11.096,8.279,18.158,8.279
				c1.75,0,4.227-0.515,7.557-1.39c4.053-1.065,6.168-2.132,6.168-3.369c0-0.875-0.363-2.798-0.877-5.634
				c-0.531-2.987-1.066-4.396-1.406-4.396c0.168,0-0.707,0.532-3.01,1.771c-2.285,1.237-4.566,1.751-6.85,1.751
				c-4.248,0-7.746-1.58-10.756-4.93c-2.797-3.179-4.225-7.042-4.225-11.439c0-4.415,1.428-8.28,4.225-11.438
				c2.838-3.37,6.508-4.949,10.756-4.949c1.922,0,3.518,0.362,5.1,1.065c1.58,0.705,3.178,1.409,4.76,2.095
				c0.34,0,0.875-1.218,1.748-4.035c0.705-2.646,1.066-4.396,1.066-5.272C1667.221,201.708,1666.859,201.347,1666.326,201.003z"/>
			<path fill="#181878" d="M1492.494,201.003c-4.053-2.646-8.43-3.863-13.361-3.863c-7.23,0-13.225,2.798-18.156,8.26
				c-4.76,5.292-7.043,11.61-7.043,19.205c0,7.557,2.455,13.894,7.215,19.357c4.928,5.463,10.926,8.279,18.156,8.279
				c1.582,0,4.229-0.515,7.559-1.39c4.053-1.065,6.166-2.132,6.166-3.369c0-0.875-0.363-2.798-0.875-5.634
				c-0.535-2.987-1.066-4.396-1.41-4.396c0.172,0-0.875,0.532-3.006,1.771c-2.285,1.237-4.568,1.751-6.852,1.751
				c-4.244,0-7.92-1.58-10.754-4.93c-2.799-3.179-4.225-7.042-4.225-11.439c0-4.415,1.426-8.28,4.225-11.438
				c2.834-3.37,6.338-4.949,10.754-4.949c1.748,0,3.521,0.362,5.1,1.065c1.58,0.705,3.178,1.409,4.758,2.095
				c0.344,0,0.875-1.218,1.582-4.035c0.875-2.646,1.234-4.396,1.234-5.272C1493.561,201.708,1493.201,201.347,1492.494,201.003z"/>
			<path fill="#181878" d="M1713.701,234.997c0-0.171-0.172-0.171-0.533-0.171c-0.514,0.513-1.045,0.874-1.752,1.388
				c-4.588,3.713-9.516,5.464-14.979,5.464c-3.35,0-6.336-1.046-8.982-3.18c-2.988-2.093-4.568-4.93-5.104-8.088
				c20.08-1.408,30.816-2.476,32.225-3.179c2.303-0.876,3.35-2.627,3.35-5.272c0-6.87-2.113-12.677-6.338-17.435
				c-4.396-4.929-9.859-7.385-16.367-7.385c-7.063,0-13.037,2.798-17.797,8.432c-4.588,5.463-6.871,11.972-6.871,19.376
				c0,8.279,2.283,14.808,7.215,19.737c4.756,5.102,11.096,7.557,19.203,7.557c8.09,0,14.617-2.816,19.736-8.451
				c0.516-0.532,0.688-1.065,0.688-1.237s-0.516-1.407-1.773-3.883C1714.404,236.214,1713.873,234.997,1713.701,234.997z
				 M1685.893,211.414c2.455-2.646,5.271-4.055,8.621-4.055c2.818,0,5.275,1.238,7.578,3.522c2.281,2.284,3.502,4.929,3.502,7.938
				c0,0.342-1.049,0.703-2.971,1.046c-7.23,1.066-13.4,1.58-18.5,1.58c-1.236,0-1.939-0.342-1.939-1.219
				C1682.184,217.049,1683.418,214.06,1685.893,211.414z"/>
			<path fill="#181878" d="M1563.51,234.997c0-0.171-0.172-0.171-0.535-0.171c-0.512,0.513-1.047,0.874-1.578,1.388
				c-4.568,3.713-9.688,5.464-15.15,5.464c-3.178,0-6.148-1.046-8.982-3.18c-2.99-2.093-4.568-4.93-5.104-8.088
				c20.08-1.408,30.814-2.476,32.225-3.179c2.303-0.876,3.35-2.627,3.35-5.272c0-6.87-2.113-12.677-6.338-17.435
				c-4.396-4.929-9.859-7.385-16.367-7.385c-7.063,0-13.041,2.798-17.797,8.432c-4.588,5.463-6.871,11.972-6.871,19.376
				c0,8.279,2.455,14.808,7.215,19.737c4.756,5.102,11.266,7.557,19.203,7.557c8.09,0,14.617-2.816,19.736-8.451
				c0.516-0.532,0.875-1.065,0.875-1.237s-0.703-1.407-1.959-3.883C1564.213,236.214,1563.682,234.997,1563.51,234.997z
				 M1535.682,211.414c2.627-2.646,5.463-4.055,8.621-4.055c2.818,0,5.447,1.238,7.578,3.522c2.281,2.284,3.5,4.929,3.5,7.938
				c0,0.342-1.047,0.703-2.969,1.046c-7.23,1.066-13.4,1.58-18.5,1.58c-1.236,0-1.939-0.342-1.939-1.219
				C1531.973,217.049,1533.207,214.06,1535.682,211.414z"/>
			<g>
				<path fill="#181878" d="M1513.66,186.557c0-1.94-0.703-3.521-2.111-4.758c-1.41-1.408-2.988-1.94-4.947-1.94
					c-2.098,0-3.676,0.532-5.104,1.769c-1.406,1.409-2.283,2.989-2.283,4.93c0,4.396,2.455,6.681,7.387,6.681
					C1511.357,193.237,1513.66,190.953,1513.66,186.557z"/>
				<path fill="#181878" d="M1512.404,200.128c-0.703,0-1.578,0-2.988,0.189c-1.219,0.344-2.283,0.344-2.814,0.344
					c-0.707,0-1.754,0-2.99-0.344c-1.406-0.189-2.305-0.189-2.988-0.189c-0.703,0-1.066,0.361-1.066,0.875
					c0,2.817,0.172,7.044,0.703,12.676c0.363,5.463,0.535,9.689,0.535,12.506c0,2.475,0,6.167-0.172,11.286
					c-0.191,4.91-0.191,8.622-0.191,11.097c0,1.391,0.363,2.094,1.066,2.094h10.203c0.533,0,0.875-0.342,0.875-1.047
					c0-2.646,0-6.509-0.172-11.63c0-5.271-0.17-9.154-0.17-11.8c0-2.816,0.17-7.043,0.531-12.506
					c0.363-5.632,0.535-9.858,0.535-12.484C1513.301,200.489,1512.957,200.128,1512.404,200.128z"/>
			</g>
		</g>
		<g>
			<path fill="#181878" d="M999.306,249.442c0-3.882,0-9.688-0.343-17.625c-0.361-7.917-0.533-13.723-0.533-17.775
				c0-4.055,0.172-10.222,0.533-18.501c0.171-8.261,0.343-14.428,0.343-18.652c0-0.705-0.515-1.237-1.409-1.237
				c-1.066,0-2.816,0-5.291-0.172c-2.284-0.17-4.207-0.17-5.271-0.17c-0.706,0-1.237,0.703-1.772,2.112
				c-8.43,22.706-14.958,39.97-19.718,51.598c-1.066,2.798-1.75,4.397-2.112,4.397c-0.343,0-1.218-1.77-2.627-5.271
				c-6.014-14.979-13.227-32.053-21.659-51.085c-0.723-1.581-1.066-2.284-1.429-2.284c-2.455,0-5.975,0.361-10.734,1.065
				c-0.875,0-1.238,0.514-1.238,1.047c0,4.225,0.172,10.392,0.533,18.652c0.343,8.279,0.533,14.446,0.533,18.501
				c0,4.053-0.189,10.049-0.533,17.967c-0.361,7.918-0.533,13.913-0.533,17.797c0,0.703,0.533,1.046,1.409,1.046
				c0.532,0,1.427,0,2.646-0.171c1.236,0,2.283-0.172,2.817-0.172c0.704,0,1.599,0.172,2.816,0.172
				c1.238,0.171,2.114,0.171,2.647,0.171c0.875,0,1.237-0.532,1.237-1.771c0-4.568,0-11.629-0.171-20.765
				c-0.191-9.345-0.191-16.197-0.191-20.785c0-0.533,0.191-1.065,0.363-1.236c0.342,0.171,0.532,0.532,0.703,0.703
				c5.978,14.086,10.394,24.649,13.381,31.711c2.112,5.271,3.865,9.307,4.93,12.314c0.342,0.531,2.114,0.875,5.464,0.875
				c2.282,0,3.52-0.172,3.69-0.705c2.114-4.929,3.712-8.983,4.759-12.143c6.509-17.092,10.734-27.484,12.505-31.348
				c0.17-0.344,0.341-0.514,0.704-0.514c0.343,0,0.513,0.342,0.513,0.875c0,4.568-0.17,11.439-0.513,20.595
				c-0.191,8.983-0.363,15.854-0.363,20.422c0,1.238,0.363,1.771,1.237,1.771c0.706,0,1.601,0,2.819-0.171
				c1.408,0,2.284-0.172,2.987-0.172c0.533,0,1.599,0.172,2.817,0.172c1.236,0.171,2.112,0.171,2.836,0.171
				C998.963,250.852,999.306,250.319,999.306,249.442z"/>
			<path fill="#181878" d="M1079.759,249.806c0-2.476,0-5.996-0.171-10.755c0-4.758,0-8.451,0-10.734c0-1.237,0-2.816,0-5.101
				c0-2.304,0.171-4.055,0.171-5.121c0-6.509-0.875-11.097-2.835-13.913c-2.284-4.054-6.681-5.977-13.361-5.977
				c-3.35,0-6.872,1.219-10.583,3.522c-2.817,2.112-5.273,4.053-7.022,5.462c-0.706-2.304-1.085-4.588-1.257-6.7
				c0-0.532-0.172-0.894-0.343-0.894c-0.172,0-2.113,0.361-5.994,0.894c-3.674,0.705-5.634,1.066-5.978,1.066
				c-0.361,0.172-0.533,0.342-0.533,0.704c0,0.171,0,0.342,0,0.686c1.579,6.528,2.454,13.57,2.454,21.146
				c0,2.797,0,7.213-0.17,12.848c0,5.634-0.171,9.858-0.171,12.695c0,0.875,0.342,1.218,1.066,1.218c1.237,0,2.817,0,5.101,0
				c2.284,0.172,3.864,0.172,4.93,0.172c0.705,0,1.066-0.515,1.066-1.39v-32.242c0-1.6,1.579-3.521,4.929-5.634
				c2.987-2.114,5.462-2.989,7.214-2.989c3.711,0,6.338,0.875,7.747,2.989c1.066,1.579,1.771,4.566,1.771,8.621
				c0,1.428,0,3.54,0,6.339c0,3.007,0,5.1,0,6.528c0,1.751,0,4.396-0.172,8.089c0,3.539-0.191,6.167-0.191,7.938
				c0,1.047,0.363,1.579,1.066,1.579c1.046,0,2.799,0,5.103,0c2.284,0.172,3.881,0.172,5.1,0.172
				C1079.397,251.023,1079.759,250.509,1079.759,249.806z"/>
			<path fill="#181878" d="M1259.355,200.261c-1.063,0-2.814,0.172-4.928,0.344c-2.303,0.17-4.053,0.17-5.1,0.17
				c-0.535,0-0.877,0.533-0.877,1.428c0,1.048,0.172,2.455,0.342,4.568c0.172,1.941,0.344,3.521,0.344,4.587
				c0,4.74-0.172,7.919-0.344,9.688c-0.342,1.219-1.939,4.568-5.1,9.859c-3.178,5.272-5.121,8.109-5.633,8.109
				c-0.895,0-3.008-2.837-6.721-8.109c-3.502-5.463-5.441-8.813-5.633-10.221c-0.344-2.112-0.344-5.462-0.344-9.858
				c0-0.877,0-2.456,0.172-4.416c0-2.094,0-3.503,0-4.549c0-0.723-0.172-1.086-0.703-1.086c-1.219,0-2.8-0.17-4.931-0.342
				c-2.284,0-3.883-0.172-4.929-0.172c-0.876,0-1.238,0.344-1.238,1.219c0,1.427,0,3.539-0.172,6.185c0,2.8,0,4.76,0,6.167
				c0,5.635,0.172,9.156,0.705,10.564c0.705,1.751,3.711,6.338,8.983,13.19c4.932,6.698,7.576,10.392,7.576,11.438
				c0,0.723-0.703,2.132-1.941,4.055c-1.219,2.131-2.303,3.368-2.816,3.882c-1.943,1.065-4.759,1.581-8.623,1.581
				c-1.771,0-2.817,0.532-2.817,1.235c0,0.533,0.515,1.942,1.39,4.227c0.894,2.474,1.599,3.712,1.769,4.054
				c0.363,0.171,0.896,0.171,1.772,0.171c7.575,0,12.144-0.513,13.378-1.923c1.582-1.427,6.512-8.469,14.619-20.783
				c8.109-12.524,12.506-19.548,12.85-21.127c0.359-1.238,0.531-4.93,0.531-10.926
				C1260.938,204.657,1260.406,200.261,1259.355,200.261z"/>
			<path fill="#181878" d="M1173.44,239.945c-1.066,0-2.454,0.343-4.586,0.876c-2.114,0.342-3.692,0.704-4.758,0.704
				c-2.627,0-4.396-1.065-5.083-2.816c-0.723-1.238-0.895-3.351-0.895-6.528v-7.919c0-4.567,0-8.279,0.172-10.734
				c0.171-2.132,0.343-3.007,0.723-3.007c1.39,0,3.502,0,6.338,0.171c2.798,0.19,4.93,0.361,6.148,0.361
				c1.066,0,1.581-0.361,1.581-1.046c0-0.533,0-1.409-0.171-2.476c0-1.046,0-1.94,0-2.474c0-0.514,0.171-1.218,0.171-2.095
				c0.17-0.874,0.17-1.579,0.17-2.132c0-0.342-0.17-0.514-0.876-0.514h-12.485c-0.876,0-1.427-0.532-1.427-1.579
				c0-1.579,0.172-4.055,0.361-7.214c0.19-3.006,0.361-5.462,0.361-7.061c0-0.705-0.361-1.066-1.255-1.238
				c-6.148-1.046-9.498-1.579-9.669-1.579c-1.066,0-1.599,1.237-1.599,3.883c0,1.579,0.19,3.692,0.19,6.681
				c0.171,2.817,0.171,5.121,0.171,6.528c0,1.39-0.875,2.093-2.456,2.284c-0.875,0-1.578,0-2.472,0
				c-1.066,0.189-1.581,0.705-1.772,1.579c-0.17,1.066-0.17,2.113-0.17,3.161c0,2.835,0.361,4.244,1.066,4.414
				c1.218,0.172,2.646,0.172,3.864,0.172c1.409,0,2.112,0.876,2.112,2.304c0,2.987,0,7.556-0.172,13.723
				c-0.171,6.167-0.171,10.735-0.171,13.741c0,7.558,4.056,11.438,12.163,11.438c6.149,0,10.564-0.703,13.361-2.093
				c0.535-0.361,0.876-0.533,1.066-0.723c0-0.172,0.172-0.704,0.172-1.237c0-0.514,0.171-1.58,0.343-3.331
				c0-1.427,0.191-2.475,0.191-3.178C1174.146,240.288,1173.955,239.945,1173.44,239.945z"/>
			<path fill="#181878" d="M1207.245,199.252c-2.112,0-3.884,0.172-5.121,0.705c-1.751,0.343-3.332,1.065-4.929,2.112
				c-1.39,0.876-2.799,1.94-4.207,2.816h-0.17c-0.554,0-0.896-1.046-1.066-3.158c-0.191-2.132-0.534-3.18-1.066-3.18
				c0.36,0-1.409,0.343-5.103,1.237c-2.454,0.172-4.225,0.343-5.462,0.515c-0.531,0.189-0.703,0.551-0.703,0.895
				c0,0.17,0,0.361,0,0.703c1.751,5.462,2.456,12.506,2.456,21.318c0,2.969,0,7.384-0.172,13.189c0,5.805,0,10.222,0,13.037
				c0,0.877,0.361,1.409,1.066,1.409c1.237,0,2.815,0,4.929,0c2.283,0.172,3.864,0.172,4.93,0.172c0.895,0,1.238-0.515,1.238-1.581
				c0-1.94-0.172-4.93-0.172-8.982c-0.171-4.227-0.363-7.214-0.363-9.156v-5.995c0-4.93,0.363-8.089,1.066-9.688
				c1.218-2.455,4.055-3.674,8.433-3.674c0.723,0,1.96,0,3.368,0.172c1.58,0.172,2.646,0.342,3.35,0.342
				c0.514,0,0.876-0.514,1.048-1.217c0.532-3.352,0.703-6.891,0.703-10.944C1211.298,199.596,1210.061,199.252,1207.245,199.252z"/>
			<path fill="#181878" d="M1133.243,223.558c-1.046-1.047-3.693-2.817-7.918-5.271c-2.817-1.599-4.225-3.18-4.225-4.759
				c0-2.303,1.408-3.884,4.053-4.587c2.284-0.343,4.396-0.514,6.681-0.876c0.705-0.172,1.046-0.342,1.046-0.705
				c0-0.513-0.342-2.112-1.046-4.396c-0.703-2.474-1.046-4.053-1.218-4.415c-0.361-0.514-0.703-0.704-1.066-0.704
				c-5.462,0-10.03,1.238-13.57,4.054c-3.863,2.988-5.804,7.215-5.804,12.506c0,4.225,1.408,7.384,4.225,10.049
				c0.703,0.515,3.521,2.266,8.107,4.929c2.989,1.581,4.398,3.332,4.398,5.273c0,4.225-3.332,6.339-9.86,6.339
				c0,0-0.533,0-1.58-0.172c-0.875-0.172-1.409-0.172-1.94,0c-0.705,0.172-0.895,0.533-0.895,0.875c0,0.704,0,1.941,0.19,3.521
				c0.189,1.579,0.361,2.817,0.361,3.521c0,1.428,0.343,2.302,0.875,2.646c0.344,0.17,1.409,0.17,3.502,0.17
				c5.462,0,10.05-1.388,13.743-4.396c4.073-3.159,6.166-7.574,6.166-12.846C1137.468,229.896,1136.06,226.375,1133.243,223.558z"/>
			<g>
				<path fill="#181878" d="M1103.17,186.557c0-1.94-0.705-3.521-2.113-4.758c-1.409-1.408-2.989-1.94-4.949-1.94
					c-2.094,0-3.672,0.532-5.101,1.769c-1.409,1.409-2.284,2.989-2.284,4.93c0,4.396,2.456,6.681,7.385,6.681
					C1100.867,193.237,1103.17,190.953,1103.17,186.557z"/>
				<path fill="#181878" d="M1101.913,200.128c-0.703,0-1.579,0-2.987,0.189c-1.218,0.344-2.284,0.344-2.817,0.344
					c-0.705,0-1.751,0-2.989-0.344c-1.408-0.189-2.303-0.189-2.987-0.189c-0.705,0-1.066,0.361-1.066,0.875
					c0,2.817,0.172,7.044,0.703,12.676c0.363,5.463,0.535,9.689,0.535,12.506c0,2.475,0,6.167-0.172,11.286
					c-0.191,4.91-0.191,8.622-0.191,11.097c0,1.391,0.363,2.094,1.066,2.094h10.202c0.532,0,0.875-0.342,0.875-1.047
					c0-2.646,0-6.509-0.172-11.63c0-5.271-0.171-9.154-0.171-11.8c0-2.816,0.171-7.043,0.534-12.506
					c0.361-5.632,0.532-9.858,0.532-12.484C1102.808,200.489,1102.465,200.128,1101.913,200.128z"/>
			</g>
			<g>
				<path fill="#181878" d="M1023.916,186.557c0-1.94-0.705-3.521-2.112-4.758c-1.409-1.408-3.16-1.94-5.122-1.94
					c-1.921,0-3.672,0.532-4.928,1.769c-1.581,1.409-2.284,2.989-2.284,4.93c0,4.396,2.456,6.681,7.212,6.681
					C1021.441,193.237,1023.916,190.953,1023.916,186.557z"/>
				<path fill="#181878" d="M1022.488,200.128c-0.532,0-1.58,0-2.816,0.189c-1.39,0.344-2.284,0.344-2.99,0.344
					c-0.703,0-1.578,0-2.987-0.344c-1.237-0.189-2.303-0.189-2.817-0.189c-0.705,0-1.066,0.361-1.066,0.875
					c0,2.817,0.171,7.044,0.533,12.676c0.344,5.463,0.533,9.689,0.533,12.506c0,2.475,0,6.167-0.189,11.286
					c0,4.91-0.172,8.622-0.172,11.097c0,1.391,0.361,2.094,1.238,2.094h10.03c0.704,0,1.047-0.342,1.047-1.047
					c0-2.646-0.172-6.509-0.172-11.63c-0.171-5.271-0.171-9.154-0.171-11.8c0-2.816,0.171-7.043,0.534-12.506
					c0.36-5.632,0.36-9.858,0.36-12.484C1023.382,200.489,1023.211,200.128,1022.488,200.128z"/>
			</g>
		</g>
		<g>
			<path fill="#181878" d="M2000.74,185.701c0-0.514,0-1.409-0.172-2.304c0-1.047-0.17-1.751-0.17-2.093
				c0-3.883,0.17-5.635,0.17-5.292c-0.17-0.703-0.531-1.047-1.578-1.047c1.047,0-1.236,0.172-6.699,0.514
				c-7.918,0.704-13.553,0.896-17.074,0.896c-3.881,0-11.971-0.362-24.305-1.065l-0.512-0.172c-0.555,0-0.727,0.342-0.895,0.704
				c-0.535,2.283-0.707,4.054-0.879,5.271c0,0.361-0.188,1.237-0.531,2.817c-0.363,1.257-0.533,2.132-0.533,2.836
				c0,0.342,0.17,0.514,0.705,0.514c4.053,0,10.734-0.343,19.547-0.876c0.531,11.097,0.703,19.909,0.703,26.248
				c0,4.053-0.172,10.202-0.512,18.48c-0.363,8.108-0.535,14.276-0.535,18.329c0,0.875,0.535,1.39,1.219,1.39
				c0.705,0,1.58,0,3.006-0.171c1.238,0,2.115-0.172,2.818-0.172s1.578,0.172,2.988,0.172c1.236,0.171,2.111,0.171,2.818,0.171
				c1.047,0,1.406-0.343,1.406-1.046c0-4.227,0-10.394-0.359-18.673c-0.344-8.089-0.516-14.428-0.516-18.48
				c0-6.511,0.172-15.321,0.516-26.248c11.268,0.362,17.453,0.533,18.498,0.533C2000.398,186.938,2000.74,186.576,2000.74,185.701z"
				/>
			<path fill="#181878" d="M2202.74,249.806c0-2.476,0-5.996,0-10.755c-0.172-4.758-0.172-8.451-0.172-10.734
				c0-1.237,0-2.816,0.172-5.101c0-2.304,0-4.055,0-5.121c0-6.509-0.875-11.097-2.643-13.913c-2.477-4.054-6.873-5.977-13.381-5.977
				c-3.35,0-7.043,1.219-10.566,3.522c-3.006,2.112-5.461,4.053-7.211,5.462c-0.535-2.304-1.086-4.588-1.258-6.7
				c0-0.532-0.172-0.894-0.344-0.894c-0.168,0-2.111,0.361-5.803,0.894c-3.693,0.705-5.824,1.066-5.996,1.066
				c-0.535,0.172-0.703,0.342-0.703,0.704c0,0.171,0,0.342,0.168,0.686c1.582,6.528,2.285,13.57,2.285,21.146
				c0,2.797,0,7.213-0.17,12.848c0,5.634,0,9.858,0,12.695c0,0.875,0.361,1.218,1.066,1.218c1.066,0,2.816,0,4.928,0
				c2.285,0.172,3.865,0.172,5.119,0.172c0.707,0,0.879-0.515,0.879-1.39v-32.242c0-1.6,1.75-3.521,4.928-5.634
				c3.158-2.114,5.463-2.989,7.215-2.989c3.881,0,6.338,0.875,7.746,2.989c1.238,1.579,1.77,4.566,1.77,8.621
				c0,1.428,0,3.54,0,6.339c0,3.007,0.172,5.1,0.172,6.528c0,1.751-0.172,4.396-0.172,8.089c-0.172,3.539-0.172,6.167-0.172,7.938
				c0,1.047,0.344,1.579,0.875,1.579c1.219,0,2.799,0,5.104,0c2.283,0.172,4.053,0.172,5.1,0.172
				C2202.381,251.023,2202.74,250.509,2202.74,249.806z"/>
			<path fill="#181878" d="M2443.285,200.261c-1.236,0-2.818,0.172-5.102,0.344c-2.305,0.17-3.883,0.17-5.1,0.17
				c-0.535,0-0.707,0.533-0.707,1.428c0,1.048,0,2.455,0.344,4.568c0.172,1.941,0.172,3.521,0.172,4.587
				c0,4.74-0.172,7.919-0.344,9.688c-0.172,1.219-1.941,4.568-5.1,9.859c-3.178,5.272-4.932,8.109-5.635,8.109
				c-0.723,0-3.006-2.837-6.527-8.109c-3.693-5.463-5.463-8.813-5.826-10.221c-0.172-2.112-0.34-5.462-0.34-9.858
				c0-0.877,0-2.456,0.168-4.416c0-2.094,0.172-3.503,0.172-4.549c0-0.723-0.34-1.086-0.875-1.086c-1.045,0-2.799-0.17-4.93-0.342
				c-2.113,0-3.883-0.172-4.928-0.172c-0.875,0-1.238,0.344-1.238,1.219c0,1.427,0,3.539,0,6.185c-0.172,2.8-0.172,4.76-0.172,6.167
				c0,5.635,0.363,9.156,0.875,10.564c0.535,1.751,3.541,6.338,8.813,13.19c5.121,6.698,7.578,10.392,7.578,11.438
				c0,0.723-0.707,2.132-1.943,4.055c-1.219,2.131-2.113,3.368-2.816,3.882c-1.752,1.065-4.76,1.581-8.621,1.581
				c-1.771,0-2.646,0.532-2.646,1.235c0,0.533,0.342,1.942,1.217,4.227c1.086,2.474,1.598,3.712,1.961,4.054
				c0.172,0.171,0.703,0.171,1.58,0.171c7.576,0,12.145-0.513,13.551-1.923c1.408-1.427,6.34-8.469,14.445-20.783
				c8.281-12.524,12.506-19.548,13.039-21.127c0.17-1.238,0.342-4.93,0.342-10.926
				C2444.691,204.657,2444.35,200.261,2443.285,200.261z"/>
			<path fill="#181878" d="M2146.898,248.929c0-2.132-0.172-5.634-0.172-10.22c0-4.416,0-7.938,0-10.222c0-1.047,0-2.817,0-5.1
				c0-2.304,0-4.055,0-5.102c0-6.339-0.875-11.097-2.664-14.104c-2.455-3.882-6.852-5.977-13.361-5.977
				c-3.883,0-7.404,1.047-10.928,3.351c-2.814,2.093-5.1,4.035-6.867,5.634c-0.191-0.191-0.363-0.533-0.363-1.409
				c0-3.35,0.172-8.469,0.363-15.149c0.359-6.7,0.359-11.821,0.359-15.151c0-0.703-0.17-1.047-0.723-1.047
				c-0.512,0-1.578,0.172-3.16,0.344c-1.408,0.361-2.475,0.533-3.178,0.533c-3.33,0-5.271,0-5.977,0.17
				c-0.361,0.172-0.531,0.533-0.531,1.237c0,0.172,0,0.344,0,0.875c0.531,8.281,0.873,14.618,0.873,18.843
				c0.533,13.725,0.705,22.727,0.705,26.953v26.055c0,0.877,0.533,1.409,1.256,1.409c1.047,0,2.627,0,4.912,0
				c2.111,0.172,3.689,0.172,4.756,0.172c0.707,0,1.066-0.515,1.066-1.581v-31.861c0-1.789,1.752-3.711,4.912-5.823
				c3.178-2.114,5.652-2.989,7.594-2.989c5.977,0,8.813,3.179,8.813,9.688c0,1.581,0.172,4.227,0.172,7.558
				c0.172,3.35,0.172,5.804,0.172,7.403c0,1.771,0,4.415-0.172,7.918c0,3.35-0.172,5.995-0.172,7.766
				c0,1.219,0.514,1.751,1.389,1.751c1.066,0,2.648,0,4.93,0c2.111,0.172,3.693,0.172,4.758,0.172
				C2146.535,251.023,2146.898,250.319,2146.898,248.929z"/>
			<path fill="#181878" d="M2093.719,201.003c-4.053-2.646-8.43-3.863-13.189-3.863c-7.402,0-13.4,2.798-18.328,8.26
				c-4.76,5.292-7.043,11.61-7.043,19.205c0,7.557,2.455,13.894,7.211,19.357c4.932,5.463,10.926,8.279,18.16,8.279
				c1.578,0,4.225-0.515,7.555-1.39c4.055-1.065,6.17-2.132,6.17-3.369c0-0.875-0.363-2.798-0.879-5.634
				c-0.531-2.987-1.064-4.396-1.406-4.396c0.17,0-0.705,0.532-3.01,1.771c-2.283,1.237-4.568,1.751-6.852,1.751
				c-4.244,0-7.746-1.58-10.754-4.93c-2.795-3.179-4.225-7.042-4.225-11.439c0-4.415,1.43-8.28,4.225-11.438
				c2.838-3.37,6.34-4.949,10.754-4.949c1.752,0,3.521,0.362,5.102,1.065c1.582,0.705,3.18,1.409,4.76,2.095
				c0.342,0,0.875-1.218,1.578-4.035c0.875-2.646,1.238-4.396,1.238-5.272C2094.785,201.708,2094.422,201.347,2093.719,201.003z"/>
			<path fill="#181878" d="M2252.762,205.591c-4.932-5.273-10.906-7.899-18.121-7.899c-7.061,0-13.229,2.626-18.156,7.899
				c-4.76,5.291-7.043,11.801-7.043,19.204c0,7.575,2.283,13.914,7.043,19.186c4.928,5.481,10.926,8.108,18.156,8.108
				c7.215,0,13.361-2.816,18.121-8.279c4.76-5.292,7.211-11.611,7.211-19.187C2259.973,217.22,2257.521,210.882,2252.762,205.591z
				 M2245.016,236.044c-2.648,3.179-6.186,4.93-10.395,4.93c-4.053,0-7.402-1.751-10.219-4.93
				c-2.646-3.179-4.057-7.042-4.057-11.269c0-4.396,1.41-8.107,4.057-11.267c2.645-3.18,6.166-4.759,10.219-4.759
				c4.209,0,7.746,1.579,10.395,4.929c2.627,2.989,3.863,6.7,3.863,11.097C2248.879,229.002,2247.643,232.865,2245.016,236.044z"/>
			<path fill="#181878" d="M2330.758,205.591c-4.756-5.273-10.732-7.899-17.945-7.899c-7.234,0-13.229,2.626-18.16,7.899
				c-4.756,5.291-7.211,11.801-7.211,19.204c0,7.575,2.455,13.914,7.211,19.186c4.932,5.481,10.926,8.108,18.16,8.108
				c7.213,0,13.189-2.816,18.117-8.279c4.76-5.292,7.043-11.611,7.043-19.187C2337.973,217.22,2335.689,210.882,2330.758,205.591z
				 M2323.203,236.044c-2.836,3.179-6.357,4.93-10.391,4.93c-4.057,0-7.578-1.751-10.393-4.93
				c-2.648-3.179-3.883-7.042-3.883-11.269c0-4.396,1.234-8.107,3.883-11.267c2.814-3.18,6.164-4.759,10.393-4.759
				c4.205,0,7.555,1.579,10.391,4.929c2.455,2.989,3.865,6.7,3.865,11.097C2327.068,229.002,2325.658,232.865,2323.203,236.044z"/>
			<g>
				<path fill="#181878" d="M2347.664,259.007c0-0.01-0.004-0.019-0.004-0.027C2347.66,258.996,2347.664,259.003,2347.664,259.007z"
					/>
				<path fill="#181878" d="M2390.639,199.462c-0.363-0.171-2.285-0.532-5.635-1.237c-3.35-0.704-5.291-1.065-5.635-1.065
					c-0.359,0-0.703,1.065-0.703,3.178c0,0.533,0.172,1.408,0.172,2.284c0,1.066,0.172,1.771,0.172,2.304
					c0,0.703-0.172,1.047-0.516,1.047c-0.191,0-0.531-0.533-1.236-1.219c-3.352-4.587-7.938-6.89-13.57-6.89
					c-6.512,0-11.803,2.646-15.855,7.765c-3.865,4.76-5.805,10.563-5.805,17.244s2.111,12.334,5.996,16.902
					c4.225,4.93,9.496,7.231,15.834,7.231c5.996,0,10.928-2.474,14.809-7.231c0,2.646,0.172,4.225,0.172,5.119
					c0,3.351-1.408,5.978-3.885,7.747c-2.283,1.579-5.1,2.284-8.621,2.284c-5.271,0-10.563-1.58-15.664-4.588
					c-0.361-0.17-0.531-0.342-0.723-0.342c-0.344,0-0.703,0.342-0.703,1.046c-1,5.383-1.531,8.052-1.578,7.966
					c0.02,0.352,0.381,0.69,1.234,1.21c4.76,3.178,11.096,4.566,19.014,4.566c8.279,0,14.104-2.093,17.797-6.337
					c3.691-4.055,5.443-10.393,5.443-18.844c0-4.396,0-10.734,0-19.356c0.191-8.641,0.191-15.151,0.191-19.376
					C2391.344,199.995,2390.98,199.633,2390.639,199.462z M2375.488,233.094c-2.285,2.987-5.463,4.568-8.984,4.568
					c-3.861,0-6.871-1.581-9.156-4.568c-2.111-2.816-3.178-6.167-3.178-10.222c0-3.883,1.066-7.213,3.178-10.05
					c2.285-3.159,5.295-4.738,9.156-4.738c3.693,0,6.699,1.579,9.156,4.568c2.111,2.835,3.178,6.337,3.178,10.22
					C2378.838,226.927,2377.771,230.277,2375.488,233.094z"/>
			</g>
			<path fill="#181878" d="M2046.877,234.997c0-0.171-0.168-0.171-0.531-0.171c-0.516,0.513-1.047,0.874-1.752,1.388
				c-4.586,3.713-9.516,5.464-14.979,5.464c-3.35,0-6.338-1.046-8.984-3.18c-2.988-2.093-4.568-4.93-5.1-8.088
				c20.08-1.408,30.814-2.476,32.223-3.179c2.301-0.876,3.352-2.627,3.352-5.272c0-6.87-2.113-12.677-6.342-17.435
				c-4.396-4.929-9.857-7.385-16.367-7.385c-7.061,0-13.037,2.798-17.797,8.432c-4.584,5.463-6.869,11.972-6.869,19.376
				c0,8.279,2.285,14.808,7.213,19.737c4.76,5.102,11.096,7.557,19.205,7.557c8.088,0,14.615-2.816,19.738-8.451
				c0.512-0.532,0.875-1.065,0.875-1.237s-0.707-1.407-1.961-3.883C2047.582,236.214,2047.049,234.997,2046.877,234.997z
				 M2019.088,211.414c2.457-2.646,5.463-4.055,8.625-4.055c2.816,0,5.271,1.238,7.574,3.522c2.285,2.284,3.502,4.929,3.502,7.938
				c0,0.342-1.045,0.703-2.971,1.046c-7.23,1.066-13.398,1.58-18.5,1.58c-1.236,0-1.939-0.342-1.939-1.219
				C2015.379,217.049,2016.615,214.06,2019.088,211.414z"/>
			<path fill="#181878" d="M2279.523,175.479c-0.535,0-1.582,0-2.818,0.19c-1.219,0-2.305,0.172-2.816,0.172
				c-0.707,0-1.58-0.172-2.818-0.172c-1.406-0.19-2.301-0.19-2.816-0.19c-0.875,0-1.236,0.362-1.236,1.065
				c0,3.884,0.172,9.689,0.533,17.436c0.531,7.747,0.703,13.551,0.703,17.434c0,4.207-0.172,10.563-0.172,19.186
				c0,8.471-0.189,14.81-0.189,19.034c0,0.875,0.361,1.218,1.064,1.218h9.859c0.535,0,0.877-0.343,0.877-1.218
				c0-4.225,0-10.563-0.17-19.034c-0.172-8.622-0.172-14.979-0.172-19.186c0-9.687,0.342-21.127,1.064-34.354v-0.686
				C2280.588,175.842,2280.227,175.479,2279.523,175.479z"/>
		</g>
	</g>
</g>
</svg>
